{"glyphs":{"0":{"ha":956,"x_min":136,"x_max":821,"o":"m 478 95 q 636 165 575 95 q 685 312 685 221 l 685 712 q 636 859 685 803 q 478 929 576 929 q 320 859 380 929 q 271 712 271 803 l 271 312 q 320 165 271 222 q 478 95 379 95 m 478 -27 q 227 71 323 -27 q 136 312 136 165 l 136 787 l 478 1051 q 729 953 633 1051 q 821 712 821 859 l 821 237 l 478 -27 z "},"1":{"ha":484,"x_min":14,"x_max":315,"o":"m 179 -27 l 179 910 l 14 833 l 14 911 l 308 1051 l 315 1051 l 315 34 l 186 -27 l 179 -27 z "},"2":{"ha":904,"x_min":102,"x_max":795,"o":"m 102 0 l 102 7 l 141 88 l 500 441 q 661 713 661 594 q 610 859 661 798 q 452 929 553 929 q 294 859 357 929 q 245 724 245 805 q 272 633 245 678 l 158 578 l 151 578 q 110 787 110 652 l 452 1051 q 703 953 610 1051 q 795 726 795 855 q 608 393 795 545 l 254 88 l 795 88 l 795 81 l 757 0 l 102 0 z "},"3":{"ha":902,"x_min":109,"x_max":793,"o":"m 451 -27 q 200 71 293 -27 q 109 312 109 168 l 237 373 l 244 373 l 244 312 q 293 165 244 222 q 451 95 352 95 q 609 165 548 95 q 658 312 658 220 q 618 446 658 399 q 450 509 562 509 q 300 479 357 509 l 549 936 l 169 936 l 169 943 l 208 1024 l 735 1024 l 735 1017 l 515 628 q 702 554 620 628 q 793 313 793 471 l 793 237 l 451 -27 z "},"4":{"ha":806,"x_min":3,"x_max":738,"o":"m 500 -27 l 500 354 l 3 354 l 3 361 l 42 442 l 500 990 l 629 1051 l 636 1051 l 636 442 l 738 442 l 738 435 l 699 354 l 636 354 l 636 34 l 507 -27 l 500 -27 m 500 442 l 500 886 l 159 442 l 500 442 z "},"5":{"ha":902,"x_min":109,"x_max":793,"o":"m 451 -27 q 200 71 293 -27 q 109 312 109 168 l 237 373 l 244 373 l 244 312 q 293 165 244 222 q 451 95 352 95 q 609 165 548 95 q 658 312 658 221 q 618 446 658 399 q 450 509 562 509 q 300 479 357 509 l 170 568 l 233 990 l 304 1024 l 734 1024 l 734 1017 l 696 936 l 349 936 l 296 572 q 450 631 410 572 q 702 554 616 631 q 793 313 793 472 l 793 237 l 451 -27 z "},"6":{"ha":956,"x_min":136,"x_max":821,"o":"m 478 -27 q 227 71 320 -27 q 136 312 136 168 l 136 787 l 478 1051 q 729 960 642 1051 q 817 772 817 869 l 692 712 l 685 712 q 636 859 685 802 q 478 929 575 929 q 320 859 381 929 q 271 712 271 803 l 271 492 l 478 652 q 729 554 636 652 q 821 313 821 457 l 821 237 l 478 -27 m 478 95 q 636 165 574 95 q 685 312 685 220 q 636 460 685 404 q 478 530 576 530 q 320 460 381 530 q 271 312 271 404 q 320 165 271 222 q 478 95 380 95 z "},"7":{"ha":817,"x_min":81,"x_max":735,"o":"m 197 -27 l 336 354 l 93 354 l 93 361 l 132 442 l 368 442 l 547 936 l 81 936 l 81 943 l 120 1024 l 715 1024 l 715 1017 l 503 442 l 735 442 l 735 435 l 696 354 l 470 354 l 356 45 l 203 -27 l 197 -27 z "},"8":{"ha":902,"x_min":109,"x_max":793,"o":"m 451 95 q 609 165 548 95 q 658 312 658 221 q 618 446 658 400 q 450 509 560 509 q 293 440 363 509 q 244 308 244 393 q 293 165 244 222 q 451 95 352 95 m 451 -27 q 198 82 291 -27 q 109 357 110 186 l 333 531 q 237 591 279 551 q 170 769 170 654 l 170 833 l 451 1051 q 648 986 579 1042 q 732 750 732 918 l 563 620 q 702 554 648 602 q 793 313 793 473 l 793 237 l 451 -27 m 450 631 q 558 673 519 631 q 597 790 597 714 q 553 907 597 867 q 451 944 511 944 q 345 903 385 944 q 305 785 305 861 q 336 677 305 709 q 450 631 378 631 z "},"9":{"ha":956,"x_min":136,"x_max":821,"o":"m 478 -27 q 227 64 315 -27 q 140 252 140 155 l 264 312 l 271 312 q 320 165 271 222 q 478 95 381 95 q 636 165 575 95 q 685 312 685 221 l 685 532 l 478 372 q 227 470 320 372 q 136 711 136 567 l 136 787 l 478 1051 q 729 953 636 1051 q 821 712 821 856 l 821 237 l 478 -27 m 478 494 q 636 564 575 494 q 685 712 685 620 q 636 859 685 802 q 478 929 576 929 q 320 859 382 929 q 271 712 271 804 q 320 564 271 621 q 478 494 380 494 z "}," ":{"ha":543,"x_min":0,"x_max":0,"o":""},"!":{"ha":407,"x_min":136,"x_max":271,"o":"m 136 -27 l 136 127 l 264 189 l 271 189 l 271 34 l 142 -27 l 136 -27 m 264 1051 l 271 1051 l 271 346 l 142 285 l 136 285 l 136 990 l 264 1051 z "},"\"":{"ha":507,"x_min":102,"x_max":405,"o":"m 398 1051 l 405 1051 l 405 723 l 299 673 l 292 673 l 292 1001 l 398 1051 m 208 1051 l 214 1051 l 214 723 l 109 673 l 102 673 l 102 1001 l 208 1051 z "},"#":{"ha":928,"x_min":102,"x_max":826,"o":"m 311 151 l 304 151 l 304 353 l 102 353 l 102 359 l 157 476 l 304 476 l 304 549 l 102 549 l 102 556 l 157 673 l 304 673 l 304 820 l 420 875 l 427 875 l 427 673 l 500 673 l 500 820 l 617 875 l 624 875 l 624 673 l 826 673 l 826 666 l 771 549 l 624 549 l 624 476 l 826 476 l 826 469 l 771 353 l 624 353 l 624 205 l 507 151 l 500 151 l 500 353 l 427 353 l 427 205 l 311 151 m 427 476 l 500 476 l 500 549 l 427 549 l 427 476 z "},"$":{"ha":902,"x_min":109,"x_max":793,"o":"m 412 -163 l 412 -26 q 200 71 281 -14 q 109 312 109 168 l 237 373 l 244 373 l 244 312 q 293 165 244 223 q 412 98 340 109 l 412 511 q 237 591 311 522 q 170 769 170 654 l 170 834 l 412 1021 l 412 1153 l 484 1187 l 490 1187 l 490 1047 q 648 986 590 1034 q 732 785 732 918 l 604 724 l 597 724 l 597 785 q 553 907 597 868 q 490 939 525 931 l 490 630 q 702 554 624 622 q 793 313 793 475 l 793 237 l 490 3 l 490 -129 l 418 -163 l 412 -163 m 412 635 l 412 940 q 345 903 372 931 q 305 785 305 861 q 336 677 305 711 q 412 635 365 644 m 490 507 l 490 98 q 609 165 561 110 q 658 312 658 220 q 618 446 658 400 q 490 507 572 497 z "},"%":{"ha":1345,"x_min":102,"x_max":1243,"o":"m 383 1051 q 579 972 501 1048 q 662 722 661 894 l 380 505 q 184 583 262 507 q 102 834 103 662 l 383 1051 m 962 -27 q 766 52 843 -24 q 683 302 684 130 l 964 519 q 1160 441 1082 517 q 1243 190 1242 362 l 962 -27 m 963 80 q 1069 121 1029 80 q 1109 246 1109 163 q 1065 375 1109 335 q 963 412 1024 412 q 857 371 897 412 q 817 246 817 329 q 861 117 817 157 q 963 80 902 81 m 479 -27 l 383 19 l 864 1051 l 871 1051 l 966 1005 l 486 -27 l 479 -27 m 382 612 q 488 653 448 612 q 528 778 528 695 q 484 907 528 867 q 382 944 443 943 q 276 903 315 944 q 236 778 236 861 q 280 649 236 689 q 382 612 321 612 z "},"&":{"ha":1166,"x_min":109,"x_max":1058,"o":"m 674 290 l 481 521 q 293 440 374 519 q 244 308 244 393 q 293 165 244 224 q 448 100 347 100 q 674 290 519 100 m 563 620 l 768 375 l 974 584 l 981 584 l 1052 550 l 817 317 l 1058 28 l 940 -27 l 933 -27 l 720 231 l 451 -27 q 198 82 291 -27 q 109 358 110 186 l 333 531 q 237 591 279 551 q 170 769 170 654 l 170 834 l 451 1051 q 648 986 579 1042 q 732 785 732 918 l 604 724 l 597 724 l 597 790 q 553 907 597 867 q 451 944 511 944 q 345 903 385 944 q 305 785 305 861 q 336 677 305 709 q 443 626 378 632 q 563 620 508 620 z "},"'":{"ha":316,"x_min":102,"x_max":214,"o":"m 208 1051 l 214 1051 l 214 723 l 109 673 l 102 673 l 102 1001 l 208 1051 z "},"(":{"ha":512,"x_min":136,"x_max":478,"o":"m 478 -163 q 227 -64 323 -163 q 136 176 136 29 l 136 922 l 478 1187 l 478 1065 q 320 995 376 1064 q 271 848 271 935 l 271 176 q 320 29 271 87 q 478 -41 379 -40 l 478 -163 z "},")":{"ha":512,"x_min":34,"x_max":376,"o":"m 34 -163 l 34 -41 q 192 29 136 -40 q 241 176 241 89 l 241 848 q 192 995 241 937 q 34 1065 133 1064 l 34 1187 q 285 1088 189 1187 q 376 848 376 995 l 376 102 l 34 -163 z "},"*":{"ha":802,"x_min":102,"x_max":701,"o":"m 463 1051 l 463 848 l 591 922 l 697 848 l 701 843 l 524 741 l 701 640 l 697 634 l 591 560 l 463 634 l 463 486 l 346 431 l 339 431 l 339 634 l 211 560 l 105 634 l 102 640 l 277 741 l 102 843 l 105 848 l 211 922 l 339 848 l 339 996 l 456 1051 l 463 1051 z "},"+":{"ha":823,"x_min":102,"x_max":722,"o":"m 473 822 l 473 574 l 722 574 l 722 567 l 667 450 l 473 450 l 473 257 l 357 202 l 350 202 l 350 450 l 102 450 l 102 457 l 157 574 l 350 574 l 350 767 l 467 822 l 473 822 z "},",":{"ha":404,"x_min":102,"x_max":302,"o":"m 231 189 l 237 189 q 302 -9 294 119 l 145 -194 l 116 -160 q 175 4 175 -82 q 102 127 175 80 l 231 189 z "},"-":{"ha":823,"x_min":102,"x_max":722,"o":"m 102 450 l 102 457 l 157 574 l 722 574 l 722 567 l 667 450 l 102 450 z "},".":{"ha":407,"x_min":136,"x_max":271,"o":"m 136 -27 l 136 127 l 264 189 l 271 189 l 271 34 l 142 -27 l 136 -27 z "},"/":{"ha":661,"x_min":7,"x_max":654,"o":"m 102 -95 l 7 -49 l 551 1119 l 557 1119 l 654 1073 l 109 -95 l 102 -95 z "},":":{"ha":407,"x_min":136,"x_max":271,"o":"m 136 403 l 136 557 l 264 618 l 271 618 l 271 464 l 142 403 l 136 403 m 136 -27 l 136 127 l 264 189 l 271 189 l 271 34 l 142 -27 l 136 -27 z "},";":{"ha":404,"x_min":102,"x_max":302,"o":"m 231 189 l 237 189 q 302 -9 294 119 l 145 -194 l 116 -160 q 175 4 175 -82 q 102 127 175 80 l 231 189 m 136 403 l 136 557 l 264 618 l 271 618 l 271 464 l 142 403 l 136 403 z "},"<":{"ha":907,"x_min":102,"x_max":772,"o":"m 102 450 l 102 457 l 157 574 l 739 824 l 772 754 l 772 747 l 250 534 l 772 313 l 772 306 l 716 189 l 102 450 z "},"=":{"ha":823,"x_min":102,"x_max":722,"o":"m 102 574 l 102 581 l 157 697 l 722 697 l 722 690 l 667 574 l 102 574 m 102 327 l 102 334 l 157 450 l 722 450 l 722 444 l 667 327 l 102 327 z "},">":{"ha":907,"x_min":136,"x_max":806,"o":"m 806 562 l 806 555 l 750 438 l 169 189 l 136 258 l 136 265 l 657 479 l 136 700 l 136 707 l 191 824 l 806 562 z "},"?":{"ha":888,"x_min":102,"x_max":787,"o":"m 444 1051 q 695 953 602 1051 q 787 712 787 856 q 564 401 787 552 q 503 308 505 361 l 395 257 l 389 257 q 499 461 389 387 q 652 713 652 565 q 602 859 652 800 q 444 929 542 929 q 286 859 345 929 q 237 724 237 802 q 264 633 237 680 l 150 578 l 143 578 q 102 787 102 652 l 444 1051 m 376 -27 l 376 127 l 505 189 l 512 189 l 512 34 l 383 -27 l 376 -27 z "},"@":{"ha":827,"x_min":102,"x_max":726,"o":"m 590 -27 q 393 38 464 -18 q 309 239 309 104 l 309 291 l 590 508 q 546 629 590 591 q 444 666 503 666 q 303 602 371 666 q 237 434 237 540 l 237 34 q 286 -113 237 -55 q 444 -183 345 -183 q 602 -113 542 -183 l 639 -154 l 444 -305 q 193 -207 290 -305 q 102 34 102 -113 l 102 509 l 444 773 q 642 708 572 764 q 726 507 726 640 l 726 34 l 597 -27 l 590 -27 m 590 80 l 590 401 q 484 359 518 400 q 444 241 444 311 q 488 117 444 157 q 590 80 530 80 z "},"A":{"ha":956,"x_min":34,"x_max":821,"o":"m 34 354 l 34 361 l 73 442 l 136 442 l 136 787 l 478 1051 q 729 953 633 1051 q 821 712 821 859 l 821 35 l 692 -27 l 685 -27 l 685 712 q 636 859 685 803 q 478 929 576 929 q 320 859 378 929 q 271 712 271 801 l 271 442 l 590 442 l 590 435 l 551 354 l 271 354 l 271 34 l 142 -27 l 136 -27 l 136 354 l 34 354 z "},"B":{"ha":883,"x_min":136,"x_max":802,"o":"m 136 -27 l 136 990 l 264 1051 l 271 1051 l 271 68 q 545 178 438 98 q 675 390 675 277 q 551 557 675 490 q 425 610 484 594 q 573 801 573 694 q 473 918 573 869 q 277 977 382 964 l 433 1051 l 439 1051 q 602 975 541 1026 q 681 819 681 909 q 590 668 681 739 q 704 608 651 651 q 802 419 802 530 q 633 140 802 255 q 142 -27 428 3 l 136 -27 z "},"C":{"ha":956,"x_min":136,"x_max":821,"o":"m 478 -27 q 227 71 323 -27 q 136 312 136 165 l 136 787 l 478 1051 q 729 953 633 1051 q 821 712 821 859 l 692 651 l 685 651 l 685 712 q 636 859 685 803 q 478 929 576 929 q 320 859 380 929 q 271 712 271 803 l 271 312 q 320 165 271 222 q 478 95 379 95 q 636 165 575 95 q 685 312 685 221 l 814 373 l 821 373 l 821 237 l 478 -27 z "},"D":{"ha":907,"x_min":136,"x_max":826,"o":"m 136 -27 l 136 990 l 264 1051 l 271 1051 l 271 68 q 541 221 433 128 q 696 553 696 354 q 569 844 696 727 q 279 977 478 928 l 434 1051 l 441 1051 q 694 909 600 1009 q 826 576 826 771 q 590 149 826 314 q 142 -27 399 15 l 136 -27 z "},"E":{"ha":768,"x_min":34,"x_max":734,"o":"m 34 0 l 34 7 l 73 88 l 136 88 l 136 354 l 34 354 l 34 361 l 73 442 l 136 442 l 136 990 l 208 1024 l 637 1024 l 637 1017 l 599 936 l 271 936 l 271 442 l 590 442 l 590 435 l 551 354 l 271 354 l 271 88 l 734 88 l 734 81 l 696 0 l 34 0 z "},"F":{"ha":719,"x_min":34,"x_max":637,"o":"m 136 -27 l 136 354 l 34 354 l 34 361 l 73 442 l 136 442 l 136 990 l 208 1024 l 637 1024 l 637 1017 l 599 936 l 271 936 l 271 442 l 590 442 l 590 435 l 551 354 l 271 354 l 271 34 l 142 -27 l 136 -27 z "},"G":{"ha":956,"x_min":136,"x_max":821,"o":"m 478 -27 q 227 71 323 -27 q 136 312 136 165 l 136 787 l 478 1051 q 729 953 633 1051 q 821 712 821 859 l 692 651 l 685 651 l 685 712 q 636 859 685 803 q 478 929 576 929 q 320 859 380 929 q 271 712 271 803 l 271 312 q 320 165 271 222 q 478 95 379 95 q 636 165 575 95 q 685 312 685 221 l 685 354 l 439 354 l 439 361 l 477 442 l 821 442 l 821 237 l 478 -27 z "},"H":{"ha":943,"x_min":34,"x_max":807,"o":"m 671 -27 l 671 990 l 800 1051 l 807 1051 l 807 34 l 678 -27 l 671 -27 m 136 -27 l 136 354 l 34 354 l 34 361 l 73 442 l 136 442 l 136 990 l 264 1051 l 271 1051 l 271 442 l 590 442 l 590 435 l 551 354 l 271 354 l 271 34 l 142 -27 l 136 -27 z "},"I":{"ha":407,"x_min":136,"x_max":271,"o":"m 136 -27 l 136 990 l 264 1051 l 271 1051 l 271 34 l 142 -27 l 136 -27 z "},"J":{"ha":875,"x_min":54,"x_max":739,"o":"m 397 -27 q 146 71 242 -27 q 54 312 54 165 l 183 373 l 190 373 l 190 312 q 239 165 190 221 q 397 95 299 95 q 555 165 495 95 q 604 312 604 221 l 604 901 l 283 901 l 283 907 l 338 1024 l 739 1024 l 739 237 l 397 -27 z "},"K":{"ha":925,"x_min":136,"x_max":823,"o":"m 136 -27 l 136 990 l 264 1051 l 271 1051 l 271 241 q 450 326 366 273 l 346 475 l 465 532 l 472 532 l 557 409 q 651 853 651 527 l 651 990 l 780 1051 l 787 1051 l 787 856 q 602 345 787 519 l 823 29 l 704 -27 l 697 -27 l 494 262 q 271 173 391 204 l 271 34 l 142 -27 l 136 -27 z "},"L":{"ha":738,"x_min":34,"x_max":734,"o":"m 34 0 l 34 7 l 73 88 l 136 88 l 136 990 l 264 1051 l 271 1051 l 271 88 l 734 88 l 734 81 l 696 0 l 34 0 z "},"M":{"ha":1506,"x_min":136,"x_max":1370,"o":"m 136 -27 l 136 787 l 478 1051 q 729 953 634 1051 q 789 867 766 914 l 1027 1051 q 1278 953 1182 1051 q 1370 712 1370 859 l 1370 35 l 1241 -27 l 1234 -27 l 1234 712 q 1185 859 1234 803 q 1027 929 1125 929 q 869 859 928 929 q 821 712 821 801 l 821 35 l 821 34 l 692 -27 l 685 -27 l 685 712 q 636 859 685 803 q 478 929 576 929 q 320 859 378 929 q 271 712 271 801 l 271 34 l 142 -27 l 136 -27 z "},"N":{"ha":956,"x_min":136,"x_max":821,"o":"m 136 -27 l 136 787 l 478 1051 q 729 953 633 1051 q 821 712 821 859 l 821 35 l 692 -27 l 685 -27 l 685 712 q 636 859 685 803 q 478 929 576 929 q 320 859 378 929 q 271 712 271 801 l 271 34 l 142 -27 l 136 -27 z "},"O":{"ha":956,"x_min":136,"x_max":821,"o":"m 478 95 q 636 165 575 95 q 685 312 685 221 l 685 712 q 636 859 685 803 q 478 929 576 929 q 320 859 380 929 q 271 712 271 803 l 271 312 q 320 165 271 222 q 478 95 379 95 m 478 -27 q 227 71 323 -27 q 136 312 136 165 l 136 787 l 478 1051 q 729 953 633 1051 q 821 712 821 859 l 821 237 l 478 -27 z "},"P":{"ha":867,"x_min":136,"x_max":786,"o":"m 136 -27 l 136 990 l 264 1051 l 271 1051 l 271 241 q 524 377 402 281 q 660 645 660 485 q 555 859 660 770 q 279 977 460 941 l 434 1051 l 441 1051 q 670 930 574 1025 q 786 646 786 815 q 568 308 786 454 q 271 173 433 218 l 271 34 l 142 -27 l 136 -27 z "},"Q":{"ha":956,"x_min":136,"x_max":821,"o":"m 478 -27 q 227 71 323 -27 q 136 312 136 165 l 136 787 l 478 1051 q 729 953 633 1051 q 821 712 821 859 l 821 237 l 707 149 l 791 29 l 671 -27 l 665 -27 l 600 66 l 478 -27 m 665 210 q 685 312 685 254 l 685 712 q 636 859 685 803 q 478 929 576 929 q 320 859 380 929 q 271 712 271 802 l 271 312 q 320 165 271 222 q 478 95 379 95 q 567 113 527 95 l 450 280 l 569 337 l 576 337 l 665 210 z "},"R":{"ha":905,"x_min":136,"x_max":823,"o":"m 136 -27 l 136 990 l 264 1051 l 271 1051 l 271 241 q 450 326 361 269 l 346 475 l 465 532 l 472 532 l 557 409 q 660 645 660 509 q 555 859 660 764 q 279 977 466 939 l 434 1051 l 441 1051 q 670 930 574 1025 q 786 646 786 814 q 608 337 786 473 l 823 29 l 704 -27 l 697 -27 l 494 263 q 271 173 390 206 l 271 34 l 142 -27 l 136 -27 z "},"S":{"ha":902,"x_min":109,"x_max":793,"o":"m 451 -27 q 200 71 293 -27 q 109 312 109 168 l 237 373 l 244 373 l 244 312 q 293 165 244 222 q 451 95 352 95 q 609 165 548 95 q 658 312 658 221 q 618 446 658 399 q 450 509 562 509 q 237 591 325 509 q 170 769 170 654 l 170 834 l 451 1051 q 648 986 579 1042 q 732 785 732 918 l 604 724 l 597 724 l 597 785 q 553 907 597 868 q 451 944 510 944 q 345 903 385 944 q 305 785 305 861 q 336 677 305 711 q 450 631 376 631 q 702 554 612 631 q 793 313 793 475 l 793 237 l 451 -27 z "},"T":{"ha":723,"x_min":3,"x_max":720,"o":"m 294 -27 l 294 936 l 3 936 l 3 943 l 42 1024 l 720 1024 l 720 1017 l 681 936 l 429 936 l 429 34 l 300 -27 l 294 -27 z "},"U":{"ha":956,"x_min":136,"x_max":821,"o":"m 478 -27 q 227 71 323 -27 q 136 312 136 165 l 136 989 l 264 1051 l 271 1051 l 271 312 q 320 165 271 221 q 478 95 380 95 q 636 165 578 95 q 685 312 685 223 l 685 990 l 814 1051 l 821 1051 l 821 237 l 478 -27 z "},"V":{"ha":808,"x_min":3,"x_max":804,"o":"m 349 -27 l 3 996 l 121 1051 l 127 1051 l 427 159 l 725 1051 l 732 1051 l 804 1017 l 473 28 l 356 -27 l 349 -27 z "},"W":{"ha":1506,"x_min":136,"x_max":1370,"o":"m 478 -27 q 227 71 323 -27 q 136 312 136 165 l 136 989 l 264 1051 l 271 1051 l 271 312 q 320 165 271 221 q 478 95 380 95 q 636 165 578 95 q 685 312 685 223 l 685 989 l 685 990 l 814 1051 l 821 1051 l 821 312 q 869 165 821 221 q 1027 95 930 95 q 1185 165 1127 95 q 1234 312 1234 223 l 1234 990 l 1363 1051 l 1370 1051 l 1370 237 l 1027 -27 q 777 71 871 -27 q 717 157 739 110 l 478 -27 z "},"X":{"ha":867,"x_min":68,"x_max":799,"o":"m 146 -27 l 139 -27 l 68 7 l 369 488 l 68 995 l 186 1051 l 193 1051 l 450 618 l 721 1051 l 728 1051 l 799 1017 l 498 536 l 799 28 l 681 -27 l 674 -27 l 417 406 l 146 -27 z "},"Y":{"ha":867,"x_min":68,"x_max":799,"o":"m 350 -27 l 350 354 l 155 354 l 155 361 l 194 442 l 316 442 l 68 995 l 186 1051 l 193 1051 l 450 468 l 721 1051 l 728 1051 l 799 1017 l 524 442 l 711 442 l 711 435 l 673 354 l 486 354 l 486 34 l 357 -27 l 350 -27 z "},"Z":{"ha":859,"x_min":102,"x_max":758,"o":"m 102 0 l 102 7 l 272 354 l 102 354 l 102 361 l 140 442 l 315 442 l 557 936 l 111 936 l 111 943 l 149 1024 l 744 1024 l 744 1017 l 460 442 l 744 442 l 744 435 l 705 354 l 416 354 l 285 88 l 758 88 l 758 81 l 719 0 l 102 0 z "},"[":{"ha":586,"x_min":136,"x_max":552,"o":"m 136 -163 l 136 1126 l 264 1187 l 552 1187 l 552 1180 l 511 1092 l 271 1092 l 271 -68 l 552 -68 l 552 -75 l 511 -163 l 136 -163 z "},"\\":{"ha":661,"x_min":7,"x_max":654,"o":"m 551 -95 l 7 1073 l 102 1119 l 109 1119 l 654 -49 l 557 -95 l 551 -95 z "},"]":{"ha":586,"x_min":34,"x_max":450,"o":"m 34 -163 l 34 -156 l 75 -68 l 315 -68 l 315 1092 l 34 1092 l 34 1099 l 75 1187 l 450 1187 l 450 -102 l 321 -163 l 34 -163 z "},"^":{"ha":937,"x_min":102,"x_max":836,"o":"m 524 1051 l 836 738 l 718 682 l 711 682 l 456 935 l 178 682 l 172 682 l 102 715 l 399 996 l 517 1051 l 524 1051 z "},"_":{"ha":823,"x_min":102,"x_max":722,"o":"m 102 -278 l 102 -271 l 157 -155 l 722 -155 l 722 -161 l 667 -278 l 102 -278 z "},"`":{"ha":439,"x_min":102,"x_max":338,"o":"m 221 1051 l 228 1051 l 338 817 l 258 780 l 252 780 l 102 994 l 221 1051 z "},"a":{"ha":732,"x_min":68,"x_max":631,"o":"m 349 80 q 455 121 420 80 q 495 241 495 170 q 451 363 495 324 q 349 401 409 401 q 243 359 278 401 q 203 241 203 311 q 248 117 203 157 q 349 80 290 80 m 349 -27 q 152 38 223 -18 q 68 239 68 104 l 68 290 l 349 508 q 495 474 435 502 l 495 507 q 451 629 495 589 q 349 666 409 666 q 243 625 283 666 l 206 663 l 349 773 q 547 708 477 764 q 631 507 631 640 l 631 34 l 502 -27 l 495 -27 l 495 86 l 349 -27 z "},"b":{"ha":800,"x_min":136,"x_max":699,"o":"m 417 80 q 522 121 481 80 q 563 239 563 163 l 563 507 q 519 629 563 589 q 417 666 477 666 q 311 625 351 666 q 271 507 271 583 l 271 239 q 314 117 271 155 q 417 80 357 80 m 417 -27 q 220 38 288 -18 q 136 239 136 108 l 136 990 l 264 1051 l 271 1051 l 271 660 l 417 773 q 614 708 545 764 q 699 507 699 640 l 699 191 l 417 -27 z "},"c":{"ha":766,"x_min":102,"x_max":665,"o":"m 383 -27 q 186 38 255 -18 q 102 239 102 107 l 102 555 l 383 773 q 581 708 511 764 q 665 507 665 640 l 536 446 l 529 446 l 529 507 q 485 629 529 589 q 383 666 443 666 q 277 625 317 665 q 237 507 237 583 l 237 239 q 281 117 237 157 q 383 80 323 80 q 489 121 450 81 q 529 239 529 163 l 658 300 l 665 300 l 665 191 l 383 -27 z "},"d":{"ha":800,"x_min":102,"x_max":665,"o":"m 383 80 q 489 121 448 80 q 529 239 529 163 l 529 507 q 485 629 529 586 q 383 666 446 666 q 278 625 319 666 q 237 507 237 583 l 237 239 q 281 117 237 155 q 383 80 326 80 m 383 -27 q 186 38 255 -18 q 102 239 102 107 l 102 555 l 383 773 q 529 740 469 767 l 529 990 l 658 1051 l 665 1051 l 665 191 l 383 -27 z "},"e":{"ha":766,"x_min":102,"x_max":665,"o":"m 383 -27 q 186 38 255 -18 q 102 239 102 107 l 102 555 l 383 773 q 581 708 511 764 q 665 507 665 640 l 248 170 q 281 117 260 136 q 382 80 326 80 q 489 121 441 80 q 529 239 529 156 l 658 300 l 665 300 l 665 191 l 383 -27 m 237 269 l 529 506 q 485 629 529 591 q 383 666 440 666 q 277 625 317 666 q 237 507 237 583 l 237 269 z "},"f":{"ha":618,"x_min":34,"x_max":614,"o":"m 136 -27 l 136 513 l 34 513 l 34 519 l 73 601 l 136 601 l 136 833 l 417 1051 q 614 986 547 1042 l 519 907 q 417 944 473 944 q 311 903 352 944 q 271 785 271 862 l 271 601 l 515 601 l 515 594 l 477 513 l 271 513 l 271 34 l 142 -27 l 136 -27 z "},"g":{"ha":766,"x_min":102,"x_max":665,"o":"m 281 117 q 381 80 326 80 q 489 121 437 80 q 529 239 529 155 l 529 507 q 485 629 529 591 q 383 666 440 666 q 277 625 317 666 q 237 507 237 583 l 237 239 q 281 117 237 154 m 383 -27 q 186 38 255 -18 q 102 239 102 107 l 102 555 l 383 773 q 581 708 511 764 q 665 507 665 640 l 665 -87 l 383 -305 q 187 -241 241 -296 l 281 -161 q 382 -198 321 -198 q 489 -157 446 -198 q 529 -39 529 -119 l 529 85 l 383 -27 z "},"h":{"ha":800,"x_min":136,"x_max":699,"o":"m 136 -27 l 136 990 l 264 1051 l 271 1051 l 271 660 l 417 773 q 614 708 545 764 q 699 507 699 640 l 699 34 l 570 -27 l 563 -27 l 563 507 q 519 629 563 585 q 417 666 481 666 q 311 624 351 666 q 271 507 271 583 l 271 34 l 142 -27 l 136 -27 z "},"i":{"ha":407,"x_min":136,"x_max":271,"o":"m 136 -27 l 136 712 l 264 773 l 271 773 l 271 34 l 142 -27 l 136 -27 m 271 1051 l 271 897 l 142 836 l 136 836 l 136 990 l 264 1051 l 271 1051 z "},"j":{"ha":407,"x_min":-10,"x_max":271,"o":"m 43 -260 q -10 -198 -10 -199 q 96 -157 55 -197 q 136 -39 136 -116 l 136 712 l 264 773 l 271 773 l 271 -83 l 43 -260 m 271 1051 l 271 897 l 142 836 l 136 836 l 136 990 l 264 1051 l 271 1051 z "},"k":{"ha":800,"x_min":136,"x_max":699,"o":"m 136 -27 l 136 990 l 264 1051 l 271 1051 l 271 467 l 630 773 l 637 773 l 698 718 l 526 572 q 614 526 576 556 q 699 325 699 458 l 699 34 l 570 -27 l 563 -27 l 563 325 q 519 447 563 406 q 417 484 478 484 q 312 443 352 484 q 271 325 271 401 l 271 34 l 142 -27 l 136 -27 z "},"l":{"ha":407,"x_min":136,"x_max":271,"o":"m 136 -27 l 136 990 l 264 1051 l 271 1051 l 271 34 l 142 -27 l 136 -27 z "},"m":{"ha":1194,"x_min":102,"x_max":1092,"o":"m 102 -27 l 102 555 l 383 773 q 581 708 513 764 q 637 639 616 679 l 810 773 q 1008 708 939 764 q 1092 507 1092 640 l 1092 34 l 963 -27 l 956 -27 l 956 507 q 912 629 956 591 q 810 666 868 666 q 705 625 747 666 q 665 507 665 585 l 665 34 l 536 -27 l 529 -27 l 529 507 q 485 629 529 591 q 383 666 441 666 q 277 625 319 666 q 237 507 237 585 l 237 34 l 109 -27 l 102 -27 z "},"n":{"ha":766,"x_min":102,"x_max":665,"o":"m 102 -27 l 102 555 l 383 773 q 581 708 511 764 q 665 507 665 640 l 665 34 l 536 -27 l 529 -27 l 529 507 q 485 629 529 591 q 383 666 441 666 q 277 625 319 666 q 237 507 237 585 l 237 34 l 109 -27 l 102 -27 z "},"o":{"ha":766,"x_min":102,"x_max":665,"o":"m 383 -27 q 186 38 255 -18 q 102 239 102 107 l 102 555 l 383 773 q 581 708 511 764 q 665 507 665 640 l 665 191 l 383 -27 m 383 80 q 488 121 448 80 q 529 239 529 163 l 529 507 q 485 629 529 591 q 383 666 440 666 q 278 625 319 666 q 237 507 237 583 l 237 239 q 281 117 237 155 q 383 80 326 80 z "},"p":{"ha":800,"x_min":136,"x_max":699,"o":"m 316 117 q 338 99 316 117 q 417 80 360 80 q 523 121 474 80 q 563 239 563 157 l 563 507 q 518 629 563 591 q 417 666 474 666 q 312 625 352 666 q 271 507 271 583 l 271 239 q 316 117 271 155 m 417 -27 q 271 6 331 -21 l 271 -244 l 142 -305 l 136 -305 l 136 555 l 417 773 q 614 708 545 764 q 699 507 699 639 l 699 191 l 417 -27 z "},"q":{"ha":800,"x_min":102,"x_max":665,"o":"m 383 80 q 489 121 448 80 q 529 239 529 163 l 529 507 q 485 629 529 591 q 383 666 441 666 q 277 625 317 666 q 237 507 237 583 l 237 239 q 281 117 237 159 q 383 80 321 80 m 383 -27 q 186 38 255 -18 q 102 239 102 105 l 102 555 l 383 773 q 581 708 513 764 q 665 507 665 638 l 665 -244 l 536 -305 l 529 -305 l 529 86 l 383 -27 z "},"r":{"ha":699,"x_min":102,"x_max":665,"o":"m 102 -27 l 102 555 l 383 773 q 581 708 511 764 q 665 507 665 640 l 536 446 l 529 446 l 529 507 q 485 629 529 591 q 382 666 440 666 q 277 625 323 666 q 237 507 237 589 l 237 34 l 109 -27 l 102 -27 z "},"s":{"ha":726,"x_min":81,"x_max":644,"o":"m 363 -27 q 165 38 235 -18 q 81 239 81 106 l 210 300 l 217 300 l 217 239 q 261 117 217 157 q 363 80 303 80 q 468 121 428 80 q 509 239 509 163 q 463 344 509 315 q 362 368 424 368 q 141 441 203 368 q 110 577 110 479 l 363 773 q 529 713 462 771 q 596 591 583 667 l 467 530 l 460 530 l 460 550 q 440 624 460 599 q 347 666 406 666 q 260 629 289 666 q 239 564 239 603 q 275 495 239 521 q 362 481 296 481 q 572 425 508 481 q 644 191 644 361 l 363 -27 z "},"t":{"ha":509,"x_min":3,"x_max":505,"o":"m 186 -27 l 186 658 l 3 658 l 3 665 l 42 746 l 186 746 l 186 990 l 315 1051 l 322 1051 l 322 746 l 505 746 l 505 739 l 467 658 l 322 658 l 322 34 l 193 -27 l 186 -27 z "},"u":{"ha":766,"x_min":102,"x_max":665,"o":"m 383 -27 q 186 38 255 -18 q 102 239 102 106 l 102 712 l 231 773 l 237 773 l 237 239 q 281 117 237 155 q 383 80 326 80 q 489 121 447 80 q 529 239 529 161 l 529 712 l 658 773 l 665 773 l 665 191 l 383 -27 z "},"v":{"ha":642,"x_min":3,"x_max":639,"o":"m 265 -27 l 3 718 l 121 773 l 127 773 l 345 149 l 562 773 l 569 773 l 639 740 l 389 28 l 272 -27 l 265 -27 z "},"w":{"ha":1194,"x_min":102,"x_max":1092,"o":"m 383 -27 q 186 38 255 -18 q 102 239 102 106 l 102 712 l 231 773 l 237 773 l 237 239 q 281 117 237 155 q 383 80 326 80 q 489 121 447 80 q 529 239 529 161 l 529 712 l 658 773 l 665 773 l 665 239 q 709 117 665 155 q 810 80 753 80 q 916 121 874 80 q 956 239 956 161 l 956 712 l 1085 773 l 1092 773 l 1092 191 l 810 -27 q 613 38 681 -18 q 557 107 578 67 l 383 -27 z "},"x":{"ha":675,"x_min":54,"x_max":621,"o":"m 125 -27 l 54 7 l 273 349 l 54 717 l 173 773 l 180 773 l 355 478 l 543 773 l 549 773 l 621 739 l 402 397 l 621 28 l 503 -27 l 496 -27 l 321 269 l 132 -27 l 125 -27 z "},"y":{"ha":800,"x_min":102,"x_max":665,"o":"m 383 -27 q 186 38 255 -18 q 102 239 102 106 l 102 712 l 231 773 l 237 773 l 237 239 q 281 117 237 155 q 382 80 326 80 q 489 121 441 80 q 529 239 529 156 l 529 712 l 658 773 l 665 773 l 665 -87 l 383 -305 q 187 -241 241 -296 l 281 -161 q 382 -198 322 -198 q 489 -157 443 -198 q 529 -39 529 -121 l 529 86 l 383 -27 z "},"z":{"ha":732,"x_min":81,"x_max":650,"o":"m 81 0 l 81 7 l 226 264 l 81 264 l 81 271 l 120 353 l 276 353 l 447 658 l 95 658 l 95 665 l 134 746 l 637 746 l 637 739 l 421 353 l 637 353 l 637 346 l 599 264 l 372 264 l 273 88 l 650 88 l 650 81 l 612 0 l 81 0 z "},"{":{"ha":559,"x_min":34,"x_max":526,"o":"m 526 -163 q 275 -64 371 -163 q 183 176 183 29 l 183 450 l 34 450 l 34 457 l 89 574 l 183 574 l 183 922 l 526 1187 l 526 1065 q 368 995 424 1064 q 319 848 319 935 l 319 176 q 368 29 319 87 q 526 -41 427 -40 l 526 -163 z "},"|":{"ha":452,"x_min":170,"x_max":282,"o":"m 170 -163 l 170 1137 l 275 1187 l 282 1187 l 282 -113 l 176 -163 l 170 -163 z "},"}":{"ha":559,"x_min":34,"x_max":526,"o":"m 34 -163 l 34 -41 q 192 29 136 -40 q 241 176 241 89 l 241 848 q 192 995 241 937 q 34 1065 133 1064 l 34 1187 q 285 1088 189 1187 q 376 848 376 995 l 376 574 l 526 574 l 526 567 l 471 450 l 376 450 l 376 102 l 34 -163 z "},"~":{"ha":860,"x_min":102,"x_max":758,"o":"m 138 395 l 132 395 q 102 517 102 436 l 262 640 q 488 555 426 640 q 603 444 569 444 q 640 498 640 444 q 608 574 640 541 l 722 629 l 728 629 q 758 508 758 588 l 597 384 q 372 469 434 384 q 257 581 291 581 q 220 526 220 581 q 252 450 220 483 l 138 395 z "}," ":{"ha":543,"x_min":0,"x_max":0,"o":""},"¡":{"ha":407,"x_min":136,"x_max":271,"o":"m 271 1051 l 271 897 l 142 836 l 136 836 l 136 990 l 264 1051 l 271 1051 m 136 -27 l 136 678 l 264 739 l 271 739 l 271 34 l 142 -27 l 136 -27 z "},"¢":{"ha":766,"x_min":102,"x_max":665,"o":"m 344 -163 l 344 -23 q 186 38 244 -9 q 102 239 102 106 l 102 555 l 344 743 l 344 875 l 416 909 l 422 909 l 422 769 q 581 708 522 755 q 665 507 665 640 l 536 446 l 529 446 l 529 507 q 485 629 529 589 q 422 661 458 653 l 422 85 q 489 121 462 94 q 529 239 529 162 l 658 300 l 665 300 l 665 191 l 422 3 l 422 -129 l 351 -163 l 344 -163 m 344 85 l 344 661 q 277 625 304 652 q 237 507 237 583 l 237 239 q 281 117 237 157 q 344 85 309 93 z "},"£":{"ha":870,"x_min":68,"x_max":768,"o":"m 68 0 l 68 7 l 106 88 l 170 88 l 170 354 l 68 354 l 68 361 l 106 442 l 170 442 l 170 834 l 451 1051 q 648 986 579 1042 q 732 785 732 918 l 604 724 l 597 724 l 597 785 q 552 907 597 869 q 451 944 508 944 q 346 903 387 944 q 305 785 305 861 l 305 442 l 624 442 l 624 435 l 585 354 l 305 354 l 305 88 l 768 88 l 768 81 l 730 0 l 68 0 z "},"¤":{"ha":946,"x_min":102,"x_max":844,"o":"m 473 289 q 631 359 566 289 q 680 507 680 412 q 631 654 680 593 q 472 724 574 724 q 315 654 378 724 q 266 507 266 600 q 315 359 266 414 q 473 289 377 289 m 473 846 q 668 795 588 846 l 718 844 l 840 801 l 844 796 l 756 708 q 815 507 815 623 l 815 431 l 717 355 l 844 228 l 840 223 l 718 180 l 618 279 l 473 167 q 271 223 353 167 l 228 180 l 106 223 l 102 228 l 185 311 q 130 506 130 390 l 130 582 l 233 662 l 102 796 l 106 801 l 228 844 l 334 739 l 473 846 z "},"¥":{"ha":867,"x_min":68,"x_max":799,"o":"m 350 -27 l 350 354 l 155 354 l 155 361 l 194 442 l 316 442 l 285 511 l 155 511 l 155 518 l 194 600 l 245 600 l 68 995 l 186 1051 l 193 1051 l 393 600 l 511 600 l 721 1051 l 728 1051 l 799 1017 l 599 600 l 711 600 l 711 593 l 673 511 l 557 511 l 524 442 l 711 442 l 711 435 l 673 354 l 486 354 l 486 34 l 357 -27 l 350 -27 m 471 511 l 431 511 l 450 468 l 471 511 z "},"¦":{"ha":452,"x_min":170,"x_max":282,"o":"m 170 -163 l 170 398 l 275 448 l 282 448 l 282 -113 l 176 -163 l 170 -163 m 275 1187 l 282 1187 l 282 626 l 176 576 l 170 576 l 170 1137 l 275 1187 z "},"§":{"ha":766,"x_min":102,"x_max":665,"o":"m 383 -27 q 217 33 284 -25 q 150 155 163 79 l 279 216 l 286 216 l 286 196 q 306 122 286 147 q 389 80 340 80 q 486 117 456 80 q 507 182 507 142 q 471 251 507 225 q 384 265 450 265 q 174 321 238 265 q 102 541 102 385 l 222 634 l 277 625 q 237 507 237 583 q 283 402 238 430 q 384 378 322 378 q 605 304 547 378 q 636 168 635 267 l 383 -27 m 383 1051 q 549 991 482 1049 q 616 869 604 945 l 488 808 l 481 808 l 481 828 q 460 902 481 877 q 378 944 427 944 q 280 907 310 944 q 259 842 259 882 q 296 773 259 799 q 382 759 316 759 q 592 703 528 759 q 665 482 665 639 l 544 389 l 489 399 q 529 517 529 441 q 484 622 528 594 q 382 646 444 646 q 161 720 220 646 q 130 856 132 757 l 383 1051 z "},"¨":{"ha":524,"x_min":102,"x_max":422,"o":"m 416 1051 l 422 1051 l 422 897 l 294 836 l 287 836 l 287 990 l 416 1051 m 231 1051 l 237 1051 l 237 897 l 109 836 l 102 836 l 102 990 l 231 1051 z "},"©":{"ha":950,"x_min":102,"x_max":848,"o":"m 472 799 q 616 744 564 799 q 666 602 666 690 l 589 564 l 564 564 l 564 612 q 545 675 564 652 q 479 704 519 704 q 412 675 440 704 q 392 612 392 654 l 392 412 q 412 349 392 370 q 479 320 439 320 q 545 349 519 320 q 564 412 564 372 l 564 422 l 642 460 l 666 460 l 666 366 l 484 225 q 340 280 393 225 q 290 412 290 334 l 290 658 l 472 799 m 475 903 q 618 873 550 903 q 739 787 683 846 q 821 661 793 731 q 848 511 848 593 q 821 363 848 433 q 739 237 795 296 q 618 151 686 181 q 475 122 551 122 q 332 151 400 122 q 211 237 267 179 q 129 363 156 294 q 102 511 102 431 q 129 661 102 592 q 211 787 156 730 q 332 874 266 845 q 475 903 399 903 m 475 848 q 353 824 409 848 q 248 749 296 800 q 176 640 201 700 q 152 515 152 581 l 152 511 q 176 384 152 444 q 248 275 199 328 q 352 201 296 225 q 475 176 410 176 q 599 201 541 176 q 703 275 655 225 q 774 383 750 324 q 798 511 798 442 q 774 641 798 581 q 703 749 751 699 q 599 824 656 799 q 475 848 541 848 z "},"ª":{"ha":648,"x_min":102,"x_max":546,"o":"m 102 450 l 102 457 l 157 574 l 546 574 l 546 567 l 491 450 l 102 450 m 323 704 q 366 720 347 704 q 383 771 383 734 q 366 823 383 807 q 324 838 349 838 q 281 822 298 838 q 264 771 264 806 q 282 720 264 734 q 323 704 300 704 m 319 1051 q 431 1015 393 1046 q 478 904 478 977 l 478 659 l 403 623 l 383 623 l 383 666 l 328 623 q 217 659 257 627 q 170 803 171 696 l 319 919 q 382 907 354 918 q 366 955 382 941 q 324 970 348 970 q 272 945 294 970 l 231 982 l 319 1051 z "},"«":{"ha":806,"x_min":102,"x_max":671,"o":"m 593 871 l 600 871 l 671 837 l 493 558 l 668 262 l 550 206 l 543 206 l 363 511 l 593 871 m 332 871 l 338 871 l 410 837 l 232 558 l 407 262 l 289 206 l 282 206 l 102 511 l 332 871 z "},"¬":{"ha":823,"x_min":102,"x_max":722,"o":"m 503 273 l 586 450 l 102 450 l 102 457 l 157 574 l 722 574 l 722 567 l 581 273 l 503 273 z "},"­":{"ha":823,"x_min":102,"x_max":722,"o":"m 102 450 l 102 457 l 157 574 l 722 574 l 722 567 l 667 450 l 102 450 z "},"®":{"ha":950,"x_min":102,"x_max":848,"o":"m 302 244 l 302 748 l 379 783 l 404 783 l 404 756 l 464 783 l 473 783 q 598 724 545 770 q 661 589 661 670 q 578 423 661 503 l 688 281 l 607 244 l 591 244 l 492 368 q 404 348 450 355 l 404 279 l 326 244 l 302 244 m 532 490 q 564 585 564 537 q 509 677 564 644 q 404 709 469 701 l 404 504 l 479 541 l 496 541 l 532 490 m 404 494 l 404 402 q 452 426 428 412 l 404 494 m 475 903 q 618 873 550 903 q 739 787 683 846 q 821 661 793 731 q 848 511 848 593 q 821 363 848 433 q 739 237 795 296 q 618 151 686 181 q 475 122 551 122 q 332 151 400 122 q 211 237 267 179 q 129 363 156 294 q 102 511 102 431 q 129 661 102 592 q 211 787 156 730 q 332 874 266 845 q 475 903 399 903 m 475 848 q 353 824 409 848 q 248 749 296 800 q 176 640 201 700 q 152 515 152 581 l 152 511 q 176 384 152 444 q 248 275 199 328 q 352 201 296 225 q 475 176 410 176 q 599 201 541 176 q 703 275 655 225 q 774 383 750 324 q 798 511 798 442 q 774 641 798 581 q 703 749 751 699 q 599 824 656 799 q 475 848 541 848 z "},"¯":{"ha":823,"x_min":102,"x_max":722,"o":"m 102 901 l 102 907 l 157 1024 l 722 1024 l 722 1017 l 667 901 l 102 901 z "},"°":{"ha":764,"x_min":102,"x_max":662,"o":"m 383 1051 q 579 972 501 1048 q 662 722 661 894 l 380 505 q 184 583 262 507 q 102 834 103 662 l 383 1051 m 382 612 q 488 653 448 612 q 528 778 528 695 q 484 907 528 867 q 382 944 443 943 q 276 903 315 944 q 236 778 236 861 q 280 649 236 689 q 382 612 321 612 z "},"±":{"ha":823,"x_min":102,"x_max":722,"o":"m 102 165 l 102 172 l 157 288 l 722 288 l 722 281 l 667 165 l 102 165 m 473 938 l 473 690 l 722 690 l 722 683 l 667 566 l 473 566 l 473 373 l 357 318 l 350 318 l 350 566 l 102 566 l 102 573 l 157 690 l 350 690 l 350 883 l 467 938 l 473 938 z "},"²":{"ha":585,"x_min":102,"x_max":483,"o":"m 288 1051 q 432 999 382 1051 q 482 874 482 946 q 383 708 482 781 l 205 576 l 483 576 l 483 552 l 462 509 l 102 509 l 102 533 l 124 576 l 307 740 q 381 870 381 807 q 360 928 381 907 q 294 956 333 956 q 228 927 254 956 q 208 873 208 904 q 227 818 208 847 l 151 781 l 134 781 q 106 911 106 821 l 288 1051 z "},"³":{"ha":580,"x_min":102,"x_max":478,"o":"m 165 1024 l 463 1024 l 342 831 q 427 792 388 825 q 478 663 478 748 l 478 622 l 296 481 q 152 534 203 481 q 102 671 102 585 l 182 715 l 203 715 l 203 668 q 224 606 203 630 q 290 576 248 576 q 356 606 330 576 q 376 671 376 629 q 361 724 376 705 q 288 750 338 749 l 202 750 l 323 958 l 137 958 l 137 982 l 165 1024 z "},"´":{"ha":439,"x_min":102,"x_max":338,"o":"m 212 1051 l 218 1051 l 338 994 l 188 780 l 181 780 l 102 817 l 212 1051 z "},"µ":{"ha":766,"x_min":102,"x_max":665,"o":"m 102 -305 l 102 712 l 231 773 l 237 773 l 237 239 q 281 117 237 157 q 382 80 323 80 q 489 121 443 80 q 529 239 529 157 l 529 712 l 658 773 l 665 773 l 665 190 l 383 -27 q 237 6 297 -21 l 237 -244 l 109 -305 l 102 -305 z "},"¶":{"ha":800,"x_min":102,"x_max":665,"o":"m 529 -27 l 529 502 l 383 389 q 186 454 255 398 q 102 656 102 523 l 102 833 l 383 1051 q 581 986 513 1042 q 665 785 665 916 l 665 34 l 620 13 l 620 785 l 576 785 l 576 -8 l 536 -27 l 529 -27 z "},"·":{"ha":407,"x_min":136,"x_max":271,"o":"m 136 403 l 136 557 l 264 618 l 271 618 l 271 464 l 142 403 l 136 403 z "},"¸":{"ha":404,"x_min":102,"x_max":302,"o":"m 237 -305 q 231 -305 237 -305 l 102 -244 q 175 -121 175 -197 q 116 43 174 -43 l 145 77 l 302 -108 q 237 -305 294 -236 z "},"¹":{"ha":456,"x_min":102,"x_max":286,"o":"m 262 1051 l 286 1051 l 286 518 l 209 481 l 184 481 l 184 937 l 102 899 l 102 975 l 262 1051 z "},"º":{"ha":648,"x_min":102,"x_max":546,"o":"m 102 450 l 102 457 l 157 574 l 546 574 l 546 567 l 491 450 l 102 450 m 319 1051 q 431 1015 389 1050 q 478 904 478 977 l 478 739 l 328 623 q 216 659 253 629 q 170 770 170 698 l 170 935 l 319 1051 m 323 704 q 367 721 349 704 q 383 770 383 736 l 383 904 q 366 955 383 939 q 325 970 349 970 q 281 954 296 970 q 264 904 264 937 l 264 770 q 282 720 264 735 q 323 704 298 704 z "},"»":{"ha":806,"x_min":136,"x_max":705,"o":"m 256 871 l 263 871 l 444 566 l 214 206 l 207 206 l 136 240 l 314 519 l 138 815 l 256 871 m 517 871 l 524 871 l 705 566 l 475 206 l 468 206 l 397 240 l 575 519 l 399 815 l 517 871 z "},"¼":{"ha":996,"x_min":102,"x_max":861,"o":"m 581 228 l 708 228 l 708 393 l 581 228 m 708 -27 l 708 157 l 460 157 l 460 182 l 480 224 l 714 509 l 785 543 l 810 543 l 810 228 l 861 228 l 861 203 l 838 157 l 810 157 l 810 9 l 732 -27 l 708 -27 m 262 1051 l 286 1051 l 286 518 l 209 481 l 184 481 l 184 937 l 102 899 l 102 975 l 262 1051 m 239 -27 l 143 19 l 624 1051 l 631 1051 l 726 1005 l 245 -27 l 239 -27 z "},"½":{"ha":1042,"x_min":102,"x_max":906,"o":"m 525 0 l 525 24 l 547 68 l 730 231 q 804 361 804 298 q 783 420 804 398 q 718 448 756 448 q 651 418 677 448 q 631 365 631 395 q 650 309 631 338 l 574 273 l 557 273 q 529 402 529 312 l 711 543 q 855 490 806 543 q 905 366 905 437 q 806 199 905 273 l 629 68 l 906 68 l 906 43 l 885 0 l 525 0 m 262 1051 l 286 1051 l 286 518 l 209 481 l 184 481 l 184 937 l 102 899 l 102 975 l 262 1051 m 239 -27 l 143 19 l 624 1051 l 631 1051 l 726 1005 l 245 -27 l 239 -27 z "},"¾":{"ha":1129,"x_min":102,"x_max":994,"o":"m 713 228 l 841 228 l 841 393 l 713 228 m 841 -27 l 841 157 l 593 157 l 593 182 l 613 224 l 847 509 l 918 543 l 943 543 l 943 228 l 994 228 l 994 203 l 971 157 l 943 157 l 943 9 l 865 -27 l 841 -27 m 165 1024 l 463 1024 l 342 831 q 427 792 388 825 q 478 663 478 748 l 478 622 l 296 481 q 152 534 203 481 q 102 671 102 585 l 182 715 l 203 715 l 203 668 q 224 606 203 630 q 290 576 248 576 q 356 606 330 576 q 376 671 376 629 q 361 724 376 705 q 288 750 338 749 l 202 750 l 323 958 l 145 958 l 145 982 l 165 1024 m 372 -27 l 276 19 l 757 1051 l 764 1051 l 859 1005 l 378 -27 l 372 -27 z "},"¿":{"ha":888,"x_min":102,"x_max":787,"o":"m 444 -27 q 193 71 286 -27 q 102 312 102 168 q 325 623 102 472 q 386 716 384 663 l 493 767 l 500 767 q 389 563 499 637 q 236 311 236 459 q 286 165 236 224 q 444 95 347 95 q 602 165 543 95 q 651 300 651 222 q 625 391 651 345 l 739 446 l 745 446 q 787 237 787 372 l 444 -27 m 512 1051 l 512 897 l 383 836 l 376 836 l 376 990 l 505 1051 l 512 1051 z "},"À":{"ha":956,"x_min":34,"x_max":821,"o":"m 34 354 l 34 361 l 73 442 l 136 442 l 136 787 l 478 1051 q 729 953 633 1051 q 821 712 821 859 l 821 35 l 692 -27 l 685 -27 l 685 712 q 636 859 685 803 q 478 929 576 929 q 320 859 378 929 q 271 712 271 801 l 271 442 l 590 442 l 590 435 l 551 354 l 271 354 l 271 34 l 142 -27 l 136 -27 l 136 354 l 34 354 m 404 1333 l 411 1333 l 521 1099 l 441 1062 l 435 1062 l 285 1276 l 404 1333 z "},"Á":{"ha":956,"x_min":34,"x_max":821,"o":"m 34 354 l 34 361 l 73 442 l 136 442 l 136 787 l 478 1051 q 729 953 633 1051 q 821 712 821 859 l 821 35 l 692 -27 l 685 -27 l 685 712 q 636 859 685 803 q 478 929 576 929 q 320 859 378 929 q 271 712 271 801 l 271 442 l 590 442 l 590 435 l 551 354 l 271 354 l 271 34 l 142 -27 l 136 -27 l 136 354 l 34 354 m 540 1333 l 547 1333 l 666 1276 l 516 1062 l 509 1062 l 430 1099 l 540 1333 z "},"Â":{"ha":956,"x_min":34,"x_max":821,"o":"m 34 354 l 34 361 l 73 442 l 136 442 l 136 787 l 478 1051 q 729 953 633 1051 q 821 712 821 859 l 821 35 l 692 -27 l 685 -27 l 685 712 q 636 859 685 803 q 478 929 576 929 q 320 859 378 929 q 271 712 271 801 l 271 442 l 590 442 l 590 435 l 551 354 l 271 354 l 271 34 l 142 -27 l 136 -27 l 136 354 l 34 354 m 547 1333 l 699 1118 l 582 1062 l 575 1062 l 479 1217 l 384 1062 l 377 1062 l 307 1095 l 422 1278 l 540 1333 l 547 1333 z "},"Ã":{"ha":956,"x_min":34,"x_max":821,"o":"m 34 354 l 34 361 l 73 442 l 136 442 l 136 787 l 478 1051 q 729 953 633 1051 q 821 712 821 859 l 821 35 l 692 -27 l 685 -27 l 685 712 q 636 859 685 803 q 478 929 576 929 q 320 859 378 929 q 271 712 271 801 l 271 442 l 590 442 l 590 435 l 551 354 l 271 354 l 271 34 l 142 -27 l 136 -27 l 136 354 l 34 354 m 346 1112 l 288 1145 l 432 1286 q 496 1259 475 1286 q 564 1219 528 1219 q 633 1286 605 1219 l 640 1286 l 698 1253 l 554 1112 q 490 1138 511 1112 q 422 1178 458 1178 q 353 1112 381 1178 l 346 1112 z "},"Ä":{"ha":956,"x_min":34,"x_max":821,"o":"m 34 354 l 34 361 l 73 442 l 136 442 l 136 787 l 478 1051 q 729 953 633 1051 q 821 712 821 859 l 821 35 l 692 -27 l 685 -27 l 685 712 q 636 859 685 803 q 478 929 576 929 q 320 859 378 929 q 271 712 271 801 l 271 442 l 590 442 l 590 435 l 551 354 l 271 354 l 271 34 l 142 -27 l 136 -27 l 136 354 l 34 354 m 633 1333 l 640 1333 l 640 1179 l 511 1118 l 505 1118 l 505 1272 l 633 1333 m 448 1333 l 455 1333 l 455 1179 l 326 1118 l 319 1118 l 319 1272 l 448 1333 z "},"Å":{"ha":956,"x_min":34,"x_max":821,"o":"m 34 354 l 34 361 l 73 442 l 136 442 l 136 787 l 478 1051 q 729 953 633 1051 q 821 712 821 859 l 821 35 l 692 -27 l 685 -27 l 685 712 q 636 859 685 803 q 478 929 576 929 q 320 859 378 929 q 271 712 271 801 l 271 442 l 590 442 l 590 435 l 551 354 l 271 354 l 271 34 l 142 -27 l 136 -27 l 136 354 l 34 354 m 478 1333 q 572 1302 536 1332 q 612 1205 612 1270 l 612 1189 l 486 1078 q 391 1109 422 1082 q 352 1205 352 1143 l 352 1222 l 478 1333 m 483 1263 q 446 1249 460 1263 q 433 1205 433 1234 q 447 1161 433 1174 q 484 1147 462 1147 q 518 1162 503 1147 q 532 1205 532 1175 q 517 1250 532 1236 q 483 1263 503 1263 z "},"Æ":{"ha":1318,"x_min":34,"x_max":1284,"o":"m 136 -27 l 136 354 l 34 354 l 34 361 l 73 442 l 136 442 l 136 787 l 478 1051 q 686 990 600 1051 l 757 1024 l 1187 1024 l 1187 1017 l 1148 936 l 821 936 l 821 442 l 1139 442 l 1139 435 l 1101 354 l 821 354 l 821 88 l 1284 88 l 1284 81 l 1245 0 l 685 0 l 685 354 l 271 354 l 271 34 l 142 -27 l 136 -27 m 271 442 l 685 442 l 685 712 q 636 859 685 803 q 478 929 576 929 q 320 859 378 929 q 271 712 271 801 l 271 442 z "},"Ç":{"ha":956,"x_min":136,"x_max":821,"o":"m 821 373 l 821 237 l 526 10 l 626 -108 q 561 -305 617 -236 l 554 -305 l 425 -244 q 498 -121 498 -193 q 478 -27 498 -72 q 227 71 323 -27 q 136 312 136 165 l 136 787 l 478 1051 q 729 953 633 1051 q 821 712 821 859 l 692 651 l 685 651 l 685 712 q 636 859 685 803 q 478 929 576 929 q 320 859 380 929 q 271 712 271 802 l 271 312 q 320 165 271 222 q 478 95 379 95 q 636 165 575 95 q 685 312 685 221 l 814 373 l 821 373 z "},"È":{"ha":768,"x_min":34,"x_max":734,"o":"m 34 0 l 34 7 l 73 88 l 136 88 l 136 354 l 34 354 l 34 361 l 73 442 l 136 442 l 136 990 l 208 1024 l 637 1024 l 637 1017 l 599 936 l 271 936 l 271 442 l 590 442 l 590 435 l 551 354 l 271 354 l 271 88 l 734 88 l 734 81 l 696 0 l 34 0 m 357 1333 l 363 1333 l 473 1099 l 394 1062 l 387 1062 l 237 1276 l 357 1333 z "},"É":{"ha":768,"x_min":34,"x_max":734,"o":"m 34 0 l 34 7 l 73 88 l 136 88 l 136 354 l 34 354 l 34 361 l 73 442 l 136 442 l 136 990 l 208 1024 l 637 1024 l 637 1017 l 599 936 l 271 936 l 271 442 l 590 442 l 590 435 l 551 354 l 271 354 l 271 88 l 734 88 l 734 81 l 696 0 l 34 0 m 454 1333 l 460 1333 l 580 1276 l 430 1062 l 423 1062 l 344 1099 l 454 1333 z "},"Ê":{"ha":768,"x_min":34,"x_max":734,"o":"m 34 0 l 34 7 l 73 88 l 136 88 l 136 354 l 34 354 l 34 361 l 73 442 l 136 442 l 136 990 l 208 1024 l 637 1024 l 637 1017 l 599 936 l 271 936 l 271 442 l 590 442 l 590 435 l 551 354 l 271 354 l 271 88 l 734 88 l 734 81 l 696 0 l 34 0 m 439 1333 l 592 1118 l 475 1062 l 468 1062 l 372 1217 l 277 1062 l 270 1062 l 200 1095 l 315 1278 l 433 1333 l 439 1333 z "},"Ë":{"ha":768,"x_min":34,"x_max":734,"o":"m 34 0 l 34 7 l 73 88 l 136 88 l 136 354 l 34 354 l 34 361 l 73 442 l 136 442 l 136 990 l 208 1024 l 637 1024 l 637 1017 l 599 936 l 271 936 l 271 442 l 590 442 l 590 435 l 551 354 l 271 354 l 271 88 l 734 88 l 734 81 l 696 0 l 34 0 m 562 1333 l 568 1333 l 568 1179 l 439 1118 l 433 1118 l 433 1272 l 562 1333 m 376 1333 l 383 1333 l 383 1179 l 254 1118 l 248 1118 l 248 1272 l 376 1333 z "},"Ì":{"ha":407,"x_min":44,"x_max":280,"o":"m 163 1333 l 170 1333 l 280 1099 l 201 1062 l 194 1062 l 44 1276 l 163 1333 m 136 -27 l 136 990 l 264 1051 l 271 1051 l 271 34 l 142 -27 l 136 -27 z "},"Í":{"ha":407,"x_min":125,"x_max":361,"o":"m 235 1333 l 242 1333 l 361 1276 l 212 1062 l 205 1062 l 125 1099 l 235 1333 m 136 -27 l 136 990 l 264 1051 l 271 1051 l 271 34 l 142 -27 l 136 -27 z "},"Î":{"ha":407,"x_min":7,"x_max":399,"o":"m 247 1333 l 399 1118 l 282 1062 l 275 1062 l 180 1217 l 84 1062 l 77 1062 l 7 1095 l 123 1278 l 240 1333 l 247 1333 m 136 -27 l 136 990 l 264 1051 l 271 1051 l 271 34 l 142 -27 l 136 -27 z "},"Ï":{"ha":407,"x_min":43,"x_max":364,"o":"m 357 1333 l 364 1333 l 364 1179 l 235 1118 l 229 1118 l 229 1272 l 357 1333 m 172 1333 l 179 1333 l 179 1179 l 50 1118 l 43 1118 l 43 1272 l 172 1333 m 136 -27 l 136 990 l 264 1051 l 271 1051 l 271 34 l 142 -27 l 136 -27 z "},"Ð":{"ha":907,"x_min":34,"x_max":826,"o":"m 136 -27 l 136 354 l 34 354 l 34 361 l 73 442 l 136 442 l 136 990 l 264 1051 l 271 1051 l 271 442 l 590 442 l 590 435 l 551 354 l 271 354 l 271 68 q 541 221 432 128 q 696 553 696 355 q 569 844 696 727 q 279 977 478 928 l 434 1051 l 441 1051 q 694 909 599 1009 q 826 576 826 770 q 590 149 826 315 q 142 -27 398 15 l 136 -27 z "},"Ñ":{"ha":956,"x_min":136,"x_max":821,"o":"m 136 -27 l 136 787 l 478 1051 q 729 953 633 1051 q 821 712 821 859 l 821 35 l 692 -27 l 685 -27 l 685 712 q 636 859 685 803 q 478 929 576 929 q 320 859 378 929 q 271 712 271 801 l 271 34 l 142 -27 l 136 -27 m 346 1112 l 288 1145 l 432 1286 q 496 1259 475 1286 q 564 1219 528 1219 q 633 1286 605 1219 l 640 1286 l 698 1253 l 554 1112 q 490 1138 511 1112 q 422 1178 458 1178 q 353 1112 381 1178 l 346 1112 z "},"Ò":{"ha":956,"x_min":136,"x_max":821,"o":"m 478 95 q 636 165 575 95 q 685 312 685 221 l 685 712 q 636 859 685 803 q 478 929 576 929 q 320 859 380 929 q 271 712 271 803 l 271 312 q 320 165 271 222 q 478 95 379 95 m 478 -27 q 227 71 323 -27 q 136 312 136 165 l 136 787 l 478 1051 q 729 953 633 1051 q 821 712 821 859 l 821 237 l 478 -27 m 404 1333 l 411 1333 l 521 1099 l 441 1062 l 435 1062 l 285 1276 l 404 1333 z "},"Ó":{"ha":956,"x_min":136,"x_max":821,"o":"m 478 95 q 636 165 575 95 q 685 312 685 221 l 685 712 q 636 859 685 803 q 478 929 576 929 q 320 859 380 929 q 271 712 271 803 l 271 312 q 320 165 271 222 q 478 95 379 95 m 478 -27 q 227 71 323 -27 q 136 312 136 165 l 136 787 l 478 1051 q 729 953 633 1051 q 821 712 821 859 l 821 237 l 478 -27 m 540 1333 l 547 1333 l 666 1276 l 516 1062 l 509 1062 l 430 1099 l 540 1333 z "},"Ô":{"ha":956,"x_min":136,"x_max":821,"o":"m 478 95 q 636 165 575 95 q 685 312 685 221 l 685 712 q 636 859 685 803 q 478 929 576 929 q 320 859 380 929 q 271 712 271 803 l 271 312 q 320 165 271 222 q 478 95 379 95 m 478 -27 q 227 71 323 -27 q 136 312 136 165 l 136 787 l 478 1051 q 729 953 633 1051 q 821 712 821 859 l 821 237 l 478 -27 m 547 1333 l 699 1118 l 582 1062 l 575 1062 l 479 1217 l 384 1062 l 377 1062 l 307 1095 l 422 1278 l 540 1333 l 547 1333 z "},"Õ":{"ha":956,"x_min":136,"x_max":821,"o":"m 478 95 q 636 165 575 95 q 685 312 685 221 l 685 712 q 636 859 685 803 q 478 929 576 929 q 320 859 380 929 q 271 712 271 803 l 271 312 q 320 165 271 222 q 478 95 379 95 m 478 -27 q 227 71 323 -27 q 136 312 136 165 l 136 787 l 478 1051 q 729 953 633 1051 q 821 712 821 859 l 821 237 l 478 -27 m 346 1112 l 288 1145 l 432 1286 q 496 1259 475 1286 q 564 1219 528 1219 q 633 1286 605 1219 l 640 1286 l 698 1253 l 554 1112 q 490 1138 511 1112 q 422 1178 458 1178 q 353 1112 381 1178 l 346 1112 z "},"Ö":{"ha":956,"x_min":136,"x_max":821,"o":"m 478 95 q 636 165 575 95 q 685 312 685 221 l 685 712 q 636 859 685 803 q 478 929 576 929 q 320 859 380 929 q 271 712 271 803 l 271 312 q 320 165 271 222 q 478 95 379 95 m 478 -27 q 227 71 323 -27 q 136 312 136 165 l 136 787 l 478 1051 q 729 953 633 1051 q 821 712 821 859 l 821 237 l 478 -27 m 633 1333 l 640 1333 l 640 1179 l 511 1118 l 505 1118 l 505 1272 l 633 1333 m 448 1333 l 455 1333 l 455 1179 l 326 1118 l 319 1118 l 319 1272 l 448 1333 z "},"×":{"ha":729,"x_min":102,"x_max":627,"o":"m 102 688 l 106 692 l 228 736 l 364 600 l 501 736 l 623 692 l 627 688 l 452 512 l 627 336 l 623 332 l 501 288 l 364 425 l 228 288 l 106 332 l 102 336 l 277 512 l 102 688 z "},"Ø":{"ha":956,"x_min":136,"x_max":821,"o":"m 274 -27 l 267 -27 l 197 7 l 227 72 q 136 312 136 165 l 136 787 l 478 1051 q 661 1006 583 1051 l 682 1051 l 689 1051 l 760 1017 l 730 952 q 821 712 821 859 l 821 237 l 478 -27 q 295 18 373 -27 l 274 -27 m 478 95 q 636 165 575 95 q 685 312 685 220 l 685 712 q 665 814 685 770 l 350 136 q 478 95 402 95 m 292 210 l 606 888 q 478 929 553 929 q 320 859 380 929 q 271 712 271 802 l 271 312 q 292 210 271 254 z "},"Ù":{"ha":956,"x_min":136,"x_max":821,"o":"m 478 -27 q 227 71 323 -27 q 136 312 136 165 l 136 989 l 264 1051 l 271 1051 l 271 312 q 320 165 271 221 q 478 95 380 95 q 636 165 578 95 q 685 312 685 223 l 685 990 l 814 1051 l 821 1051 l 821 237 l 478 -27 m 404 1333 l 411 1333 l 521 1099 l 441 1062 l 435 1062 l 285 1276 l 404 1333 z "},"Ú":{"ha":956,"x_min":136,"x_max":821,"o":"m 478 -27 q 227 71 323 -27 q 136 312 136 165 l 136 989 l 264 1051 l 271 1051 l 271 312 q 320 165 271 221 q 478 95 380 95 q 636 165 578 95 q 685 312 685 223 l 685 990 l 814 1051 l 821 1051 l 821 237 l 478 -27 m 540 1333 l 547 1333 l 666 1276 l 516 1062 l 509 1062 l 430 1099 l 540 1333 z "},"Û":{"ha":956,"x_min":136,"x_max":821,"o":"m 478 -27 q 227 71 323 -27 q 136 312 136 165 l 136 989 l 264 1051 l 271 1051 l 271 312 q 320 165 271 221 q 478 95 380 95 q 636 165 578 95 q 685 312 685 223 l 685 990 l 814 1051 l 821 1051 l 821 237 l 478 -27 m 547 1333 l 699 1118 l 582 1062 l 575 1062 l 479 1217 l 384 1062 l 377 1062 l 307 1095 l 422 1278 l 540 1333 l 547 1333 z "},"Ü":{"ha":956,"x_min":136,"x_max":821,"o":"m 478 -27 q 227 71 323 -27 q 136 312 136 165 l 136 989 l 264 1051 l 271 1051 l 271 312 q 320 165 271 221 q 478 95 380 95 q 636 165 578 95 q 685 312 685 223 l 685 990 l 814 1051 l 821 1051 l 821 237 l 478 -27 m 633 1333 l 640 1333 l 640 1179 l 511 1118 l 505 1118 l 505 1272 l 633 1333 m 448 1333 l 455 1333 l 455 1179 l 326 1118 l 319 1118 l 319 1272 l 448 1333 z "},"Ý":{"ha":867,"x_min":68,"x_max":799,"o":"m 350 -27 l 350 354 l 155 354 l 155 361 l 194 442 l 316 442 l 68 995 l 186 1051 l 193 1051 l 450 468 l 721 1051 l 728 1051 l 799 1017 l 524 442 l 711 442 l 711 435 l 673 354 l 486 354 l 486 34 l 357 -27 l 350 -27 m 540 1333 l 547 1333 l 666 1276 l 516 1062 l 509 1062 l 430 1099 l 540 1333 z "},"Þ":{"ha":929,"x_min":136,"x_max":821,"o":"m 478 304 q 636 374 580 304 q 685 521 685 434 l 685 582 q 636 729 685 671 q 478 799 576 799 q 320 729 378 799 q 271 582 271 670 l 271 521 q 320 374 271 431 q 478 304 379 304 m 136 -27 l 136 990 l 264 1051 l 271 1051 l 271 761 l 478 921 q 729 823 635 921 q 821 582 821 726 l 821 446 l 478 182 q 271 241 355 182 l 271 34 l 142 -27 l 136 -27 z "},"ß":{"ha":868,"x_min":136,"x_max":760,"o":"m 136 -27 l 136 834 l 417 1051 q 614 986 545 1042 q 699 751 699 918 l 529 620 q 668 554 616 601 q 760 313 760 471 l 760 237 l 417 -27 l 362 -27 l 362 -20 l 417 96 q 575 165 515 96 q 624 312 624 221 q 584 446 624 404 q 361 508 524 508 l 361 515 l 416 631 q 524 673 485 631 q 563 790 563 714 q 519 907 563 867 q 417 944 477 944 q 311 903 351 944 q 271 785 271 861 l 271 34 l 142 -27 l 136 -27 z "},"à":{"ha":732,"x_min":68,"x_max":631,"o":"m 349 80 q 455 121 420 80 q 495 241 495 170 q 451 363 495 324 q 349 401 409 401 q 243 359 278 401 q 203 241 203 311 q 248 117 203 157 q 349 80 290 80 m 349 -27 q 152 38 223 -18 q 68 239 68 104 l 68 290 l 349 508 q 495 474 435 502 l 495 507 q 451 629 495 589 q 349 666 409 666 q 243 625 283 666 l 206 663 l 349 773 q 547 708 477 764 q 631 507 631 640 l 631 34 l 502 -27 l 495 -27 l 495 86 l 349 -27 m 307 1055 l 314 1055 l 424 821 l 345 784 l 338 784 l 188 998 l 307 1055 z "},"á":{"ha":732,"x_min":68,"x_max":631,"o":"m 349 80 q 455 121 420 80 q 495 241 495 170 q 451 363 495 324 q 349 401 409 401 q 243 359 278 401 q 203 241 203 311 q 248 117 203 157 q 349 80 290 80 m 349 -27 q 152 38 223 -18 q 68 239 68 104 l 68 290 l 349 508 q 495 474 435 502 l 495 507 q 451 629 495 589 q 349 666 409 666 q 243 625 283 666 l 206 663 l 349 773 q 547 708 477 764 q 631 507 631 640 l 631 34 l 502 -27 l 495 -27 l 495 86 l 349 -27 m 450 1055 l 456 1055 l 576 998 l 426 784 l 419 784 l 340 821 l 450 1055 z "},"â":{"ha":732,"x_min":68,"x_max":631,"o":"m 349 80 q 455 121 420 80 q 495 241 495 170 q 451 363 495 324 q 349 401 409 401 q 243 359 278 401 q 203 241 203 311 q 248 117 203 157 q 349 80 290 80 m 349 -27 q 152 38 223 -18 q 68 239 68 104 l 68 290 l 349 508 q 495 474 435 502 l 495 507 q 451 629 495 589 q 349 666 409 666 q 243 625 283 666 l 206 663 l 349 773 q 547 708 477 764 q 631 507 631 640 l 631 34 l 502 -27 l 495 -27 l 495 86 l 349 -27 m 439 1055 l 592 840 l 475 784 l 468 784 l 372 939 l 277 784 l 270 784 l 200 817 l 315 1000 l 433 1055 l 439 1055 z "},"ã":{"ha":732,"x_min":68,"x_max":631,"o":"m 349 80 q 455 121 420 80 q 495 241 495 170 q 451 363 495 324 q 349 401 409 401 q 243 359 278 401 q 203 241 203 311 q 248 117 203 157 q 349 80 290 80 m 349 -27 q 152 38 223 -18 q 68 239 68 104 l 68 290 l 349 508 q 495 474 435 502 l 495 507 q 451 629 495 589 q 349 666 409 666 q 243 625 283 666 l 206 663 l 349 773 q 547 708 477 764 q 631 507 631 640 l 631 34 l 502 -27 l 495 -27 l 495 86 l 349 -27 m 260 833 l 202 866 l 346 1007 q 410 981 389 1007 q 477 941 442 941 q 547 1007 519 941 l 554 1007 l 612 974 l 468 833 q 404 859 425 833 q 336 899 372 899 q 267 833 295 899 l 260 833 z "},"ä":{"ha":732,"x_min":68,"x_max":631,"o":"m 349 80 q 455 121 420 80 q 495 241 495 170 q 451 363 495 324 q 349 401 409 401 q 243 359 278 401 q 203 241 203 311 q 248 117 203 157 q 349 80 290 80 m 349 -27 q 152 38 223 -18 q 68 239 68 104 l 68 290 l 349 508 q 495 474 435 502 l 495 507 q 451 629 495 589 q 349 666 409 666 q 243 625 283 666 l 206 663 l 349 773 q 547 708 477 764 q 631 507 631 640 l 631 34 l 502 -27 l 495 -27 l 495 86 l 349 -27 m 538 1051 l 545 1051 l 545 897 l 416 836 l 409 836 l 409 990 l 538 1051 m 353 1051 l 359 1051 l 359 897 l 231 836 l 224 836 l 224 990 l 353 1051 z "},"å":{"ha":732,"x_min":68,"x_max":631,"o":"m 349 80 q 455 121 420 80 q 495 241 495 170 q 451 363 495 324 q 349 401 409 401 q 243 359 278 401 q 203 241 203 311 q 248 117 203 157 q 349 80 290 80 m 349 -27 q 152 38 223 -18 q 68 239 68 104 l 68 290 l 349 508 q 495 474 435 502 l 495 507 q 451 629 495 589 q 349 666 409 666 q 243 625 283 666 l 206 663 l 349 773 q 547 708 477 764 q 631 507 631 640 l 631 34 l 502 -27 l 495 -27 l 495 86 l 349 -27 m 349 1055 q 444 1024 408 1054 q 483 927 483 991 l 483 911 l 357 800 q 262 831 293 804 q 223 927 223 865 l 223 944 l 349 1055 m 354 985 q 317 970 331 985 q 304 927 304 956 q 318 883 304 896 q 355 869 333 869 q 389 884 374 869 q 403 927 403 897 q 388 972 403 958 q 354 985 374 985 z "},"æ":{"ha":1160,"x_min":68,"x_max":1059,"o":"m 349 -27 q 152 38 223 -18 q 68 239 68 104 l 68 290 l 349 508 q 495 474 435 502 l 495 507 q 451 629 495 589 q 349 666 409 666 q 243 625 283 666 l 206 663 l 349 773 q 547 708 477 764 q 603 638 583 679 l 777 773 q 975 708 905 764 q 1059 507 1059 640 l 642 170 q 675 117 654 136 q 776 80 720 80 q 883 121 835 80 q 923 239 923 156 l 1052 300 l 1059 300 l 1059 191 l 777 -27 q 604 21 669 -20 l 502 -27 l 495 -27 l 495 86 l 349 -27 m 349 80 q 455 121 420 80 q 495 241 495 170 q 451 363 495 324 q 349 401 409 401 q 243 359 278 401 q 203 241 203 311 q 248 117 203 156 q 349 80 290 80 m 631 269 l 923 506 q 879 629 923 591 q 777 666 834 666 q 671 625 711 666 q 631 507 631 583 l 631 269 z "},"ç":{"ha":766,"x_min":102,"x_max":665,"o":"m 665 300 l 665 191 l 431 10 l 531 -108 q 466 -305 522 -236 l 459 -305 l 330 -244 q 404 -121 404 -197 q 383 -27 404 -75 q 186 38 255 -18 q 102 239 102 107 l 102 555 l 383 773 q 581 708 511 764 q 665 507 665 640 l 536 446 l 529 446 l 529 507 q 485 629 529 591 q 383 666 441 666 q 277 625 317 666 q 237 507 237 583 l 237 239 q 281 117 237 155 q 383 80 326 80 q 487 121 445 80 q 529 239 529 163 l 658 300 l 665 300 z "},"è":{"ha":766,"x_min":102,"x_max":665,"o":"m 383 -27 q 186 38 255 -18 q 102 239 102 107 l 102 555 l 383 773 q 581 708 511 764 q 665 507 665 640 l 248 170 q 281 117 260 136 q 382 80 326 80 q 489 121 441 80 q 529 239 529 156 l 658 300 l 665 300 l 665 191 l 383 -27 m 237 269 l 529 506 q 485 629 529 591 q 383 666 440 666 q 277 625 317 666 q 237 507 237 583 l 237 269 m 307 1055 l 314 1055 l 424 821 l 345 784 l 338 784 l 188 998 l 307 1055 z "},"é":{"ha":766,"x_min":102,"x_max":665,"o":"m 383 -27 q 186 38 255 -18 q 102 239 102 107 l 102 555 l 383 773 q 581 708 511 764 q 665 507 665 640 l 248 170 q 281 117 260 136 q 382 80 326 80 q 489 121 441 80 q 529 239 529 156 l 658 300 l 665 300 l 665 191 l 383 -27 m 237 269 l 529 506 q 485 629 529 591 q 383 666 440 666 q 277 625 317 666 q 237 507 237 583 l 237 269 m 450 1055 l 456 1055 l 576 998 l 426 784 l 419 784 l 340 821 l 450 1055 z "},"ê":{"ha":766,"x_min":102,"x_max":665,"o":"m 383 -27 q 186 38 255 -18 q 102 239 102 107 l 102 555 l 383 773 q 581 708 511 764 q 665 507 665 640 l 248 170 q 281 117 260 136 q 382 80 326 80 q 489 121 441 80 q 529 239 529 156 l 658 300 l 665 300 l 665 191 l 383 -27 m 237 269 l 529 506 q 485 629 529 591 q 383 666 440 666 q 277 625 317 666 q 237 507 237 583 l 237 269 m 439 1055 l 592 840 l 475 784 l 468 784 l 372 939 l 277 784 l 270 784 l 200 817 l 315 1000 l 433 1055 l 439 1055 z "},"ë":{"ha":766,"x_min":102,"x_max":665,"o":"m 383 -27 q 186 38 255 -18 q 102 239 102 107 l 102 555 l 383 773 q 581 708 511 764 q 665 507 665 640 l 248 170 q 281 117 260 136 q 382 80 326 80 q 489 121 441 80 q 529 239 529 156 l 658 300 l 665 300 l 665 191 l 383 -27 m 237 269 l 529 506 q 485 629 529 591 q 383 666 440 666 q 277 625 317 666 q 237 507 237 583 l 237 269 m 538 1051 l 545 1051 l 545 897 l 416 836 l 409 836 l 409 990 l 538 1051 m 353 1051 l 359 1051 l 359 897 l 231 836 l 224 836 l 224 990 l 353 1051 z "},"ì":{"ha":407,"x_min":44,"x_max":280,"o":"m 163 1055 l 170 1055 l 280 821 l 201 784 l 194 784 l 44 998 l 163 1055 m 136 -27 l 136 712 l 264 773 l 271 773 l 271 34 l 142 -27 l 136 -27 z "},"í":{"ha":407,"x_min":125,"x_max":361,"o":"m 235 1055 l 242 1055 l 361 998 l 212 784 l 205 784 l 125 821 l 235 1055 m 136 -27 l 136 712 l 264 773 l 271 773 l 271 34 l 142 -27 l 136 -27 z "},"î":{"ha":407,"x_min":7,"x_max":399,"o":"m 247 1055 l 399 840 l 282 784 l 275 784 l 180 939 l 84 784 l 77 784 l 7 817 l 123 1000 l 240 1055 l 247 1055 m 136 -27 l 136 712 l 264 773 l 271 773 l 271 34 l 142 -27 l 136 -27 z "},"ï":{"ha":407,"x_min":43,"x_max":363,"o":"m 357 1051 l 363 1051 l 363 897 l 235 836 l 228 836 l 228 990 l 357 1051 m 172 1051 l 178 1051 l 178 897 l 50 836 l 43 836 l 43 990 l 172 1051 m 136 -27 l 136 712 l 264 773 l 271 773 l 271 34 l 142 -27 l 136 -27 z "},"ð":{"ha":800,"x_min":102,"x_max":734,"o":"m 383 80 q 488 121 448 80 q 529 239 529 163 l 529 393 q 484 515 529 479 q 383 553 439 553 q 278 511 319 553 q 237 393 237 470 l 237 239 q 281 117 237 154 q 383 80 326 80 m 383 -27 q 186 38 254 -18 q 102 239 102 109 l 102 442 l 383 660 q 529 627 469 654 l 529 785 q 524 835 529 812 l 397 729 l 390 729 l 341 792 l 482 909 q 383 944 443 944 l 336 1044 l 336 1051 l 383 1051 q 577 989 509 1042 l 679 1073 l 686 1073 l 734 1010 l 632 925 q 665 785 665 867 l 665 191 l 383 -27 z "},"ñ":{"ha":766,"x_min":102,"x_max":665,"o":"m 102 -27 l 102 555 l 383 773 q 581 708 511 764 q 665 507 665 640 l 665 34 l 536 -27 l 529 -27 l 529 507 q 485 629 529 591 q 383 666 441 666 q 277 625 319 666 q 237 507 237 585 l 237 34 l 109 -27 l 102 -27 m 260 833 l 202 866 l 346 1007 q 410 981 389 1007 q 477 941 442 941 q 547 1007 519 941 l 554 1007 l 612 974 l 468 833 q 404 859 425 833 q 336 899 372 899 q 267 833 295 899 l 260 833 z "},"ò":{"ha":766,"x_min":102,"x_max":665,"o":"m 383 -27 q 186 38 255 -18 q 102 239 102 107 l 102 555 l 383 773 q 581 708 511 764 q 665 507 665 640 l 665 191 l 383 -27 m 383 80 q 488 121 448 80 q 529 239 529 163 l 529 507 q 485 629 529 591 q 383 666 440 666 q 278 625 319 666 q 237 507 237 583 l 237 239 q 281 117 237 155 q 383 80 326 80 m 307 1055 l 314 1055 l 424 821 l 345 784 l 338 784 l 188 998 l 307 1055 z "},"ó":{"ha":766,"x_min":102,"x_max":665,"o":"m 383 -27 q 186 38 255 -18 q 102 239 102 107 l 102 555 l 383 773 q 581 708 511 764 q 665 507 665 640 l 665 191 l 383 -27 m 383 80 q 488 121 448 80 q 529 239 529 163 l 529 507 q 485 629 529 591 q 383 666 440 666 q 278 625 319 666 q 237 507 237 583 l 237 239 q 281 117 237 155 q 383 80 326 80 m 450 1055 l 456 1055 l 576 998 l 426 784 l 419 784 l 340 821 l 450 1055 z "},"ô":{"ha":766,"x_min":102,"x_max":665,"o":"m 383 -27 q 186 38 255 -18 q 102 239 102 107 l 102 555 l 383 773 q 581 708 511 764 q 665 507 665 640 l 665 191 l 383 -27 m 383 80 q 488 121 448 80 q 529 239 529 163 l 529 507 q 485 629 529 591 q 383 666 440 666 q 278 625 319 666 q 237 507 237 583 l 237 239 q 281 117 237 155 q 383 80 326 80 m 439 1055 l 592 840 l 475 784 l 468 784 l 372 939 l 277 784 l 270 784 l 200 817 l 315 1000 l 433 1055 l 439 1055 z "},"õ":{"ha":766,"x_min":102,"x_max":665,"o":"m 383 -27 q 186 38 255 -18 q 102 239 102 107 l 102 555 l 383 773 q 581 708 511 764 q 665 507 665 640 l 665 191 l 383 -27 m 383 80 q 488 121 448 80 q 529 239 529 163 l 529 507 q 485 629 529 591 q 383 666 440 666 q 278 625 319 666 q 237 507 237 583 l 237 239 q 281 117 237 155 q 383 80 326 80 m 260 833 l 202 866 l 346 1007 q 410 981 389 1007 q 477 941 442 941 q 547 1007 519 941 l 554 1007 l 612 974 l 468 833 q 404 859 425 833 q 336 899 372 899 q 267 833 295 899 l 260 833 z "},"ö":{"ha":766,"x_min":102,"x_max":665,"o":"m 383 -27 q 186 38 255 -18 q 102 239 102 107 l 102 555 l 383 773 q 581 708 511 764 q 665 507 665 640 l 665 191 l 383 -27 m 383 80 q 488 121 448 80 q 529 239 529 163 l 529 507 q 485 629 529 591 q 383 666 440 666 q 278 625 319 666 q 237 507 237 583 l 237 239 q 281 117 237 155 q 383 80 326 80 m 538 1051 l 545 1051 l 545 897 l 416 836 l 409 836 l 409 990 l 538 1051 m 353 1051 l 359 1051 l 359 897 l 231 836 l 224 836 l 224 990 l 353 1051 z "},"÷":{"ha":823,"x_min":102,"x_max":722,"o":"m 102 450 l 102 457 l 157 574 l 722 574 l 722 567 l 667 450 l 102 450 m 344 620 l 344 774 l 473 836 l 479 836 l 479 681 l 351 620 l 344 620 m 344 190 l 344 345 l 473 406 l 479 406 l 479 251 l 351 190 l 344 190 z "},"ø":{"ha":766,"x_min":102,"x_max":665,"o":"m 243 -27 l 237 -27 l 166 7 l 182 41 q 102 239 102 110 l 102 555 l 383 773 q 510 747 456 768 l 522 773 l 529 773 l 600 739 l 585 705 q 665 507 665 636 l 665 191 l 383 -27 q 256 -1 310 -22 l 243 -27 m 383 80 q 488 121 448 80 q 529 239 529 163 l 529 507 q 522 569 529 542 l 303 102 q 383 80 339 80 m 245 177 l 463 644 q 383 666 427 666 q 278 625 319 666 q 237 507 237 583 l 237 239 q 245 177 237 204 z "},"ù":{"ha":766,"x_min":102,"x_max":665,"o":"m 383 -27 q 186 38 255 -18 q 102 239 102 106 l 102 712 l 231 773 l 237 773 l 237 239 q 281 117 237 155 q 383 80 326 80 q 489 121 447 80 q 529 239 529 161 l 529 712 l 658 773 l 665 773 l 665 191 l 383 -27 m 307 1055 l 314 1055 l 424 821 l 345 784 l 338 784 l 188 998 l 307 1055 z "},"ú":{"ha":766,"x_min":102,"x_max":665,"o":"m 383 -27 q 186 38 255 -18 q 102 239 102 106 l 102 712 l 231 773 l 237 773 l 237 239 q 281 117 237 155 q 383 80 326 80 q 489 121 447 80 q 529 239 529 161 l 529 712 l 658 773 l 665 773 l 665 191 l 383 -27 m 450 1055 l 456 1055 l 576 998 l 426 784 l 419 784 l 340 821 l 450 1055 z "},"û":{"ha":766,"x_min":102,"x_max":665,"o":"m 383 -27 q 186 38 255 -18 q 102 239 102 106 l 102 712 l 231 773 l 237 773 l 237 239 q 281 117 237 155 q 383 80 326 80 q 489 121 447 80 q 529 239 529 161 l 529 712 l 658 773 l 665 773 l 665 191 l 383 -27 m 439 1055 l 592 840 l 475 784 l 468 784 l 372 939 l 277 784 l 270 784 l 200 817 l 315 1000 l 433 1055 l 439 1055 z "},"ü":{"ha":766,"x_min":102,"x_max":665,"o":"m 383 -27 q 186 38 255 -18 q 102 239 102 106 l 102 712 l 231 773 l 237 773 l 237 239 q 281 117 237 155 q 383 80 326 80 q 489 121 447 80 q 529 239 529 161 l 529 712 l 658 773 l 665 773 l 665 191 l 383 -27 m 538 1051 l 545 1051 l 545 897 l 416 836 l 409 836 l 409 990 l 538 1051 m 353 1051 l 359 1051 l 359 897 l 231 836 l 224 836 l 224 990 l 353 1051 z "},"ý":{"ha":800,"x_min":102,"x_max":665,"o":"m 383 -27 q 186 38 255 -18 q 102 239 102 106 l 102 712 l 231 773 l 237 773 l 237 239 q 281 117 237 155 q 382 80 326 80 q 489 121 441 80 q 529 239 529 156 l 529 712 l 658 773 l 665 773 l 665 -87 l 383 -305 q 187 -241 241 -296 l 281 -161 q 382 -198 322 -198 q 489 -157 443 -198 q 529 -39 529 -121 l 529 86 l 383 -27 m 450 1055 l 456 1055 l 576 998 l 426 784 l 419 784 l 340 821 l 450 1055 z "},"þ":{"ha":800,"x_min":136,"x_max":699,"o":"m 417 80 q 523 121 476 80 q 563 239 563 157 l 563 507 q 518 629 563 591 q 417 666 474 666 q 312 625 352 666 q 271 507 271 583 l 271 239 q 316 117 271 155 q 417 80 360 80 m 136 -305 l 136 990 l 264 1051 l 271 1051 l 271 660 l 417 773 q 614 708 547 764 q 699 507 699 637 l 699 191 l 417 -27 q 271 6 331 -21 l 271 -244 l 142 -305 l 136 -305 z "},"ÿ":{"ha":800,"x_min":102,"x_max":665,"o":"m 383 -27 q 186 38 255 -18 q 102 239 102 106 l 102 712 l 231 773 l 237 773 l 237 239 q 281 117 237 155 q 382 80 326 80 q 489 121 441 80 q 529 239 529 156 l 529 712 l 658 773 l 665 773 l 665 -87 l 383 -305 q 187 -241 241 -296 l 281 -161 q 382 -198 322 -198 q 489 -157 443 -198 q 529 -39 529 -121 l 529 86 l 383 -27 m 538 1051 l 545 1051 l 545 897 l 416 836 l 409 836 l 409 990 l 538 1051 m 353 1051 l 359 1051 l 359 897 l 231 836 l 224 836 l 224 990 l 353 1051 z "},"Ā":{"ha":956,"x_min":34,"x_max":821,"o":"m 34 354 l 34 361 l 73 442 l 136 442 l 136 787 l 478 1051 q 729 953 633 1051 q 821 712 821 859 l 821 35 l 692 -27 l 685 -27 l 685 712 q 636 859 685 803 q 478 929 576 929 q 320 859 378 929 q 271 712 271 801 l 271 442 l 590 442 l 590 435 l 551 354 l 271 354 l 271 34 l 142 -27 l 136 -27 l 136 354 l 34 354 m 317 1111 l 317 1118 l 372 1234 l 682 1234 l 682 1227 l 627 1111 l 317 1111 z "},"ā":{"ha":732,"x_min":68,"x_max":631,"o":"m 349 80 q 455 121 420 80 q 495 241 495 170 q 451 363 495 324 q 349 401 409 401 q 243 359 278 401 q 203 241 203 311 q 248 117 203 157 q 349 80 290 80 m 349 -27 q 152 38 223 -18 q 68 239 68 104 l 68 290 l 349 508 q 495 474 435 502 l 495 507 q 451 629 495 589 q 349 666 409 666 q 243 625 283 666 l 206 663 l 349 773 q 547 708 477 764 q 631 507 631 640 l 631 34 l 502 -27 l 495 -27 l 495 86 l 349 -27 m 213 833 l 213 840 l 268 956 l 578 956 l 578 949 l 524 833 l 213 833 z "},"Ă":{"ha":956,"x_min":34,"x_max":821,"o":"m 34 354 l 34 361 l 73 442 l 136 442 l 136 787 l 478 1051 q 729 953 633 1051 q 821 712 821 859 l 821 35 l 692 -27 l 685 -27 l 685 712 q 636 859 685 803 q 478 929 576 929 q 320 859 378 929 q 271 712 271 801 l 271 442 l 590 442 l 590 435 l 551 354 l 271 354 l 271 34 l 142 -27 l 136 -27 l 136 354 l 34 354 m 273 1211 l 361 1290 l 368 1290 q 494 1218 425 1218 q 637 1286 564 1218 l 644 1286 l 677 1257 l 507 1111 q 273 1211 378 1111 z "},"ă":{"ha":732,"x_min":68,"x_max":631,"o":"m 349 80 q 455 121 420 80 q 495 241 495 170 q 451 363 495 324 q 349 401 409 401 q 243 359 278 401 q 203 241 203 311 q 248 117 203 157 q 349 80 290 80 m 349 -27 q 152 38 223 -18 q 68 239 68 104 l 68 290 l 349 508 q 495 474 435 502 l 495 507 q 451 629 495 589 q 349 666 409 666 q 243 625 283 666 l 206 663 l 349 773 q 547 708 477 764 q 631 507 631 640 l 631 34 l 502 -27 l 495 -27 l 495 86 l 349 -27 m 173 932 l 262 1012 l 269 1012 q 395 940 326 940 q 537 1008 465 940 l 544 1008 l 577 979 l 407 833 q 173 932 279 833 z "},"Ą":{"ha":956,"x_min":34,"x_max":821,"o":"m 136 -27 l 136 354 l 34 354 l 34 361 l 73 442 l 136 442 l 136 787 l 478 1051 q 729 953 633 1051 q 821 712 821 859 l 821 35 l 786 18 q 744 -121 744 -53 q 817 -244 744 -195 l 688 -305 l 682 -305 q 616 -108 625 -236 l 685 -27 l 685 712 q 636 859 685 803 q 478 929 576 929 q 320 859 378 929 q 271 712 271 801 l 271 442 l 590 442 l 590 435 l 551 354 l 271 354 l 271 34 l 142 -27 l 136 -27 z "},"ą":{"ha":732,"x_min":68,"x_max":631,"o":"m 349 -27 q 152 38 223 -18 q 68 239 68 104 l 68 290 l 349 508 q 495 474 435 502 l 495 507 q 451 629 495 589 q 349 666 409 666 q 243 625 283 666 l 206 663 l 349 773 q 547 708 477 764 q 631 507 631 640 l 631 34 l 596 18 q 554 -121 554 -54 q 627 -244 554 -197 l 498 -305 l 492 -305 q 427 -108 435 -236 l 495 -27 l 495 86 l 349 -27 m 349 80 q 455 121 420 80 q 495 241 495 170 q 451 363 495 324 q 349 401 409 401 q 243 359 278 401 q 203 241 203 311 q 248 117 203 156 q 349 80 290 80 z "},"Ć":{"ha":956,"x_min":136,"x_max":821,"o":"m 478 -27 q 227 71 323 -27 q 136 312 136 165 l 136 787 l 478 1051 q 729 953 633 1051 q 821 712 821 859 l 692 651 l 685 651 l 685 712 q 636 859 685 803 q 478 929 576 929 q 320 859 380 929 q 271 712 271 803 l 271 312 q 320 165 271 222 q 478 95 379 95 q 636 165 575 95 q 685 312 685 221 l 814 373 l 821 373 l 821 237 l 478 -27 m 540 1333 l 547 1333 l 666 1276 l 516 1062 l 509 1062 l 430 1099 l 540 1333 z "},"ć":{"ha":766,"x_min":102,"x_max":665,"o":"m 383 -27 q 186 38 255 -18 q 102 239 102 107 l 102 555 l 383 773 q 581 708 511 764 q 665 507 665 640 l 536 446 l 529 446 l 529 507 q 485 629 529 589 q 383 666 443 666 q 277 625 317 665 q 237 507 237 583 l 237 239 q 281 117 237 157 q 383 80 323 80 q 489 121 450 81 q 529 239 529 163 l 658 300 l 665 300 l 665 191 l 383 -27 m 450 1055 l 456 1055 l 576 998 l 426 784 l 419 784 l 340 821 l 450 1055 z "},"Ĉ":{"ha":956,"x_min":136,"x_max":821,"o":"m 478 -27 q 227 71 323 -27 q 136 312 136 165 l 136 787 l 478 1051 q 729 953 633 1051 q 821 712 821 859 l 692 651 l 685 651 l 685 712 q 636 859 685 803 q 478 929 576 929 q 320 859 380 929 q 271 712 271 803 l 271 312 q 320 165 271 222 q 478 95 379 95 q 636 165 575 95 q 685 312 685 221 l 814 373 l 821 373 l 821 237 l 478 -27 m 547 1333 l 699 1118 l 582 1062 l 575 1062 l 479 1217 l 384 1062 l 377 1062 l 307 1095 l 422 1278 l 540 1333 l 547 1333 z "},"ĉ":{"ha":766,"x_min":102,"x_max":665,"o":"m 383 -27 q 186 38 255 -18 q 102 239 102 107 l 102 555 l 383 773 q 581 708 511 764 q 665 507 665 640 l 536 446 l 529 446 l 529 507 q 485 629 529 589 q 383 666 443 666 q 277 625 317 665 q 237 507 237 583 l 237 239 q 281 117 237 157 q 383 80 323 80 q 489 121 450 81 q 529 239 529 163 l 658 300 l 665 300 l 665 191 l 383 -27 m 439 1055 l 592 840 l 475 784 l 468 784 l 372 939 l 277 784 l 270 784 l 200 817 l 315 1000 l 433 1055 l 439 1055 z "},"Ċ":{"ha":956,"x_min":136,"x_max":821,"o":"m 478 -27 q 227 71 323 -27 q 136 312 136 165 l 136 787 l 478 1051 q 729 953 633 1051 q 821 712 821 859 l 692 651 l 685 651 l 685 712 q 636 859 685 803 q 478 929 576 929 q 320 859 380 929 q 271 712 271 803 l 271 312 q 320 165 271 222 q 478 95 379 95 q 636 165 575 95 q 685 312 685 221 l 814 373 l 821 373 l 821 237 l 478 -27 m 543 1333 l 543 1179 l 414 1118 l 407 1118 l 407 1272 l 536 1333 l 543 1333 z "},"ċ":{"ha":766,"x_min":102,"x_max":665,"o":"m 383 -27 q 186 38 255 -18 q 102 239 102 107 l 102 555 l 383 773 q 581 708 511 764 q 665 507 665 640 l 536 446 l 529 446 l 529 507 q 485 629 529 589 q 383 666 443 666 q 277 625 317 665 q 237 507 237 583 l 237 239 q 281 117 237 157 q 383 80 323 80 q 489 121 450 81 q 529 239 529 163 l 658 300 l 665 300 l 665 191 l 383 -27 m 445 1051 l 445 897 l 316 836 l 309 836 l 309 990 l 438 1051 l 445 1051 z "},"Č":{"ha":956,"x_min":136,"x_max":821,"o":"m 478 -27 q 227 71 323 -27 q 136 312 136 165 l 136 787 l 478 1051 q 729 953 633 1051 q 821 712 821 859 l 692 651 l 685 651 l 685 712 q 636 859 685 803 q 478 929 576 929 q 320 859 380 929 q 271 712 271 803 l 271 312 q 320 165 271 222 q 478 95 379 95 q 636 165 575 95 q 685 312 685 221 l 814 373 l 821 373 l 821 237 l 478 -27 m 391 1333 l 398 1333 l 494 1179 l 589 1333 l 596 1333 l 666 1300 l 551 1118 l 433 1062 l 427 1062 l 274 1278 l 391 1333 z "},"č":{"ha":766,"x_min":102,"x_max":665,"o":"m 383 -27 q 186 38 255 -18 q 102 239 102 107 l 102 555 l 383 773 q 581 708 511 764 q 665 507 665 640 l 536 446 l 529 446 l 529 507 q 485 629 529 589 q 383 666 443 666 q 277 625 317 665 q 237 507 237 583 l 237 239 q 281 117 237 157 q 383 80 323 80 q 489 121 450 81 q 529 239 529 163 l 658 300 l 665 300 l 665 191 l 383 -27 m 317 1055 l 324 1055 l 420 901 l 515 1055 l 522 1055 l 592 1022 l 477 840 l 359 784 l 353 784 l 200 1000 l 317 1055 z "},"Ď":{"ha":907,"x_min":136,"x_max":826,"o":"m 357 1333 l 363 1333 l 459 1179 l 555 1333 l 562 1333 l 631 1300 l 516 1118 l 399 1062 l 392 1062 l 239 1278 l 357 1333 m 136 -27 l 136 990 l 264 1051 l 271 1051 l 271 68 q 541 221 433 128 q 696 553 696 354 q 569 844 696 727 q 279 977 478 928 l 434 1051 l 441 1051 q 694 909 600 1009 q 826 576 826 771 q 590 149 826 314 q 142 -27 399 15 l 136 -27 z "},"ď":{"ha":826,"x_min":102,"x_max":928,"o":"m 383 80 q 489 121 448 80 q 529 239 529 163 l 529 507 q 485 629 529 586 q 383 666 446 666 q 278 625 319 666 q 237 507 237 583 l 237 239 q 281 117 237 155 q 383 80 326 80 m 383 -27 q 186 38 255 -18 q 102 239 102 107 l 102 555 l 383 773 q 529 740 469 767 l 529 990 l 658 1051 l 665 1051 l 665 191 l 383 -27 m 802 1055 l 808 1055 l 928 998 l 778 784 l 771 784 l 692 821 l 802 1055 z "},"Đ":{"ha":907,"x_min":34,"x_max":826,"o":"m 136 -27 l 136 354 l 34 354 l 34 361 l 73 442 l 136 442 l 136 990 l 264 1051 l 271 1051 l 271 442 l 590 442 l 590 435 l 551 354 l 271 354 l 271 68 q 541 221 432 128 q 696 553 696 355 q 569 844 696 727 q 279 977 478 928 l 434 1051 l 441 1051 q 694 909 599 1009 q 826 576 826 770 q 590 149 826 315 q 142 -27 398 15 l 136 -27 z "},"đ":{"ha":800,"x_min":102,"x_max":766,"o":"m 383 -27 q 186 38 255 -18 q 102 239 102 107 l 102 555 l 383 773 q 529 740 469 767 l 529 841 l 348 841 l 348 848 l 387 929 l 529 929 l 529 990 l 658 1051 l 665 1051 l 665 929 l 766 929 l 766 922 l 728 841 l 665 841 l 665 191 l 383 -27 m 383 80 q 489 121 448 80 q 529 239 529 163 l 529 507 q 485 629 529 586 q 383 666 446 666 q 278 625 319 666 q 237 507 237 583 l 237 239 q 281 117 237 155 q 383 80 326 80 z "},"Ē":{"ha":768,"x_min":34,"x_max":734,"o":"m 34 0 l 34 7 l 73 88 l 136 88 l 136 354 l 34 354 l 34 361 l 73 442 l 136 442 l 136 990 l 208 1024 l 637 1024 l 637 1017 l 599 936 l 271 936 l 271 442 l 590 442 l 590 435 l 551 354 l 271 354 l 271 88 l 734 88 l 734 81 l 696 0 l 34 0 m 224 1111 l 224 1118 l 279 1234 l 590 1234 l 590 1227 l 535 1111 l 224 1111 z "},"ē":{"ha":766,"x_min":102,"x_max":665,"o":"m 383 -27 q 186 38 255 -18 q 102 239 102 107 l 102 555 l 383 773 q 581 708 511 764 q 665 507 665 640 l 248 170 q 281 117 260 136 q 382 80 326 80 q 489 121 441 80 q 529 239 529 156 l 658 300 l 665 300 l 665 191 l 383 -27 m 237 269 l 529 506 q 485 629 529 591 q 383 666 440 666 q 277 625 317 666 q 237 507 237 583 l 237 269 m 213 833 l 213 840 l 268 956 l 578 956 l 578 949 l 524 833 l 213 833 z "},"Ĕ":{"ha":768,"x_min":34,"x_max":734,"o":"m 34 0 l 34 7 l 73 88 l 136 88 l 136 354 l 34 354 l 34 361 l 73 442 l 136 442 l 136 990 l 208 1024 l 637 1024 l 637 1017 l 599 936 l 271 936 l 271 442 l 590 442 l 590 435 l 551 354 l 271 354 l 271 88 l 734 88 l 734 81 l 696 0 l 34 0 m 182 1211 l 271 1290 l 278 1290 q 404 1218 335 1218 q 547 1286 474 1218 l 553 1286 l 587 1257 l 416 1111 q 182 1211 288 1111 z "},"ĕ":{"ha":766,"x_min":102,"x_max":665,"o":"m 383 -27 q 186 38 255 -18 q 102 239 102 107 l 102 555 l 383 773 q 581 708 511 764 q 665 507 665 640 l 248 170 q 281 117 260 136 q 382 80 326 80 q 489 121 441 80 q 529 239 529 156 l 658 300 l 665 300 l 665 191 l 383 -27 m 237 269 l 529 506 q 485 629 529 591 q 383 666 440 666 q 277 625 317 666 q 237 507 237 583 l 237 269 m 173 932 l 262 1012 l 269 1012 q 395 940 326 940 q 537 1008 465 940 l 544 1008 l 577 979 l 407 833 q 173 932 279 833 z "},"Ė":{"ha":768,"x_min":34,"x_max":734,"o":"m 34 0 l 34 7 l 73 88 l 136 88 l 136 354 l 34 354 l 34 361 l 73 442 l 136 442 l 136 990 l 208 1024 l 637 1024 l 637 1017 l 599 936 l 271 936 l 271 442 l 590 442 l 590 435 l 551 354 l 271 354 l 271 88 l 734 88 l 734 81 l 696 0 l 34 0 m 465 1333 l 465 1179 l 336 1118 l 330 1118 l 330 1272 l 458 1333 l 465 1333 z "},"ė":{"ha":766,"x_min":102,"x_max":665,"o":"m 383 -27 q 186 38 255 -18 q 102 239 102 107 l 102 555 l 383 773 q 581 708 511 764 q 665 507 665 640 l 248 170 q 281 117 260 136 q 382 80 326 80 q 489 121 441 80 q 529 239 529 156 l 658 300 l 665 300 l 665 191 l 383 -27 m 237 269 l 529 506 q 485 629 529 591 q 383 666 440 666 q 277 625 317 666 q 237 507 237 583 l 237 269 m 445 1051 l 445 897 l 316 836 l 309 836 l 309 990 l 438 1051 l 445 1051 z "},"Ę":{"ha":768,"x_min":34,"x_max":734,"o":"m 34 0 l 34 7 l 73 88 l 136 88 l 136 354 l 34 354 l 34 361 l 73 442 l 136 442 l 136 990 l 208 1024 l 637 1024 l 637 1017 l 599 936 l 271 936 l 271 442 l 590 442 l 590 435 l 551 354 l 271 354 l 271 88 l 734 88 l 734 81 l 696 0 l 650 0 q 610 -121 610 -62 q 683 -244 610 -197 l 554 -305 l 547 -305 q 482 -108 491 -236 l 574 0 l 34 0 z "},"ę":{"ha":766,"x_min":102,"x_max":665,"o":"m 237 269 l 529 506 q 485 629 529 591 q 383 666 440 666 q 277 625 317 666 q 237 507 237 583 l 237 269 m 665 300 l 665 191 l 456 28 q 406 -121 406 -50 q 479 -244 406 -196 l 351 -305 l 344 -305 q 279 -108 288 -236 l 350 -24 q 186 38 245 -11 q 102 239 102 106 l 102 555 l 383 773 q 581 708 511 764 q 665 507 665 640 l 248 170 q 281 117 260 136 q 382 80 326 80 q 489 121 441 80 q 529 239 529 156 l 658 300 l 665 300 z "},"Ě":{"ha":768,"x_min":34,"x_max":734,"o":"m 34 0 l 34 7 l 73 88 l 136 88 l 136 354 l 34 354 l 34 361 l 73 442 l 136 442 l 136 990 l 208 1024 l 637 1024 l 637 1017 l 599 936 l 271 936 l 271 442 l 590 442 l 590 435 l 551 354 l 271 354 l 271 88 l 734 88 l 734 81 l 696 0 l 34 0 m 311 1333 l 317 1333 l 413 1179 l 509 1333 l 515 1333 l 585 1300 l 470 1118 l 353 1062 l 346 1062 l 193 1278 l 311 1333 z "},"ě":{"ha":766,"x_min":102,"x_max":665,"o":"m 383 -27 q 186 38 255 -18 q 102 239 102 107 l 102 555 l 383 773 q 581 708 511 764 q 665 507 665 640 l 248 170 q 281 117 260 136 q 382 80 326 80 q 489 121 441 80 q 529 239 529 156 l 658 300 l 665 300 l 665 191 l 383 -27 m 237 269 l 529 506 q 485 629 529 591 q 383 666 440 666 q 277 625 317 666 q 237 507 237 583 l 237 269 m 317 1055 l 324 1055 l 420 901 l 515 1055 l 522 1055 l 592 1022 l 477 840 l 359 784 l 353 784 l 200 1000 l 317 1055 z "},"Ĝ":{"ha":956,"x_min":136,"x_max":821,"o":"m 478 -27 q 227 71 323 -27 q 136 312 136 165 l 136 787 l 478 1051 q 729 953 633 1051 q 821 712 821 859 l 692 651 l 685 651 l 685 712 q 636 859 685 803 q 478 929 576 929 q 320 859 380 929 q 271 712 271 803 l 271 312 q 320 165 271 222 q 478 95 379 95 q 636 165 575 95 q 685 312 685 221 l 685 354 l 439 354 l 439 361 l 477 442 l 821 442 l 821 237 l 478 -27 m 547 1333 l 699 1118 l 582 1062 l 575 1062 l 479 1217 l 384 1062 l 377 1062 l 307 1095 l 422 1278 l 540 1333 l 547 1333 z "},"ĝ":{"ha":766,"x_min":102,"x_max":665,"o":"m 281 117 q 381 80 326 80 q 489 121 437 80 q 529 239 529 155 l 529 507 q 485 629 529 591 q 383 666 440 666 q 277 625 317 666 q 237 507 237 583 l 237 239 q 281 117 237 154 m 383 -27 q 186 38 255 -18 q 102 239 102 107 l 102 555 l 383 773 q 581 708 511 764 q 665 507 665 640 l 665 -87 l 383 -305 q 187 -241 241 -296 l 281 -161 q 382 -198 321 -198 q 489 -157 446 -198 q 529 -39 529 -119 l 529 85 l 383 -27 m 439 1055 l 592 840 l 475 784 l 468 784 l 372 939 l 277 784 l 270 784 l 200 817 l 315 1000 l 433 1055 l 439 1055 z "},"Ğ":{"ha":956,"x_min":136,"x_max":821,"o":"m 478 -27 q 227 71 323 -27 q 136 312 136 165 l 136 787 l 478 1051 q 729 953 633 1051 q 821 712 821 859 l 692 651 l 685 651 l 685 712 q 636 859 685 803 q 478 929 576 929 q 320 859 380 929 q 271 712 271 803 l 271 312 q 320 165 271 222 q 478 95 379 95 q 636 165 575 95 q 685 312 685 221 l 685 354 l 439 354 l 439 361 l 477 442 l 821 442 l 821 237 l 478 -27 m 273 1211 l 361 1290 l 368 1290 q 494 1218 425 1218 q 637 1286 564 1218 l 644 1286 l 677 1257 l 507 1111 q 273 1211 378 1111 z "},"ğ":{"ha":766,"x_min":102,"x_max":665,"o":"m 281 117 q 381 80 326 80 q 489 121 437 80 q 529 239 529 155 l 529 507 q 485 629 529 591 q 383 666 440 666 q 277 625 317 666 q 237 507 237 583 l 237 239 q 281 117 237 154 m 383 -27 q 186 38 255 -18 q 102 239 102 107 l 102 555 l 383 773 q 581 708 511 764 q 665 507 665 640 l 665 -87 l 383 -305 q 187 -241 241 -296 l 281 -161 q 382 -198 321 -198 q 489 -157 446 -198 q 529 -39 529 -119 l 529 85 l 383 -27 m 173 932 l 262 1012 l 269 1012 q 395 940 326 940 q 537 1008 465 940 l 544 1008 l 577 979 l 407 833 q 173 932 279 833 z "},"Ġ":{"ha":956,"x_min":136,"x_max":821,"o":"m 478 -27 q 227 71 323 -27 q 136 312 136 165 l 136 787 l 478 1051 q 729 953 633 1051 q 821 712 821 859 l 692 651 l 685 651 l 685 712 q 636 859 685 803 q 478 929 576 929 q 320 859 380 929 q 271 712 271 803 l 271 312 q 320 165 271 222 q 478 95 379 95 q 636 165 575 95 q 685 312 685 221 l 685 354 l 439 354 l 439 361 l 477 442 l 821 442 l 821 237 l 478 -27 m 543 1333 l 543 1179 l 414 1118 l 407 1118 l 407 1272 l 536 1333 l 543 1333 z "},"ġ":{"ha":766,"x_min":102,"x_max":665,"o":"m 281 117 q 381 80 326 80 q 489 121 437 80 q 529 239 529 155 l 529 507 q 485 629 529 591 q 383 666 440 666 q 277 625 317 666 q 237 507 237 583 l 237 239 q 281 117 237 154 m 383 -27 q 186 38 255 -18 q 102 239 102 107 l 102 555 l 383 773 q 581 708 511 764 q 665 507 665 640 l 665 -87 l 383 -305 q 187 -241 241 -296 l 281 -161 q 382 -198 321 -198 q 489 -157 446 -198 q 529 -39 529 -119 l 529 85 l 383 -27 m 445 1051 l 445 897 l 316 836 l 309 836 l 309 990 l 438 1051 l 445 1051 z "},"Ģ":{"ha":956,"x_min":136,"x_max":821,"o":"m 478 -27 q 227 71 323 -27 q 136 312 136 165 l 136 787 l 478 1051 q 729 953 633 1051 q 821 712 821 859 l 692 651 l 685 651 l 685 712 q 636 859 685 803 q 478 929 576 929 q 320 859 380 929 q 271 712 271 803 l 271 312 q 320 165 271 222 q 478 95 379 95 q 636 165 575 95 q 685 312 685 221 l 685 354 l 439 354 l 439 361 l 477 442 l 821 442 l 821 237 l 478 -27 m 404 -305 l 397 -305 l 277 -248 l 427 -34 l 434 -34 l 513 -71 l 404 -305 z "},"ģ":{"ha":766,"x_min":102,"x_max":665,"o":"m 281 117 q 381 80 326 80 q 489 121 437 80 q 529 239 529 155 l 529 507 q 485 629 529 591 q 383 666 440 666 q 277 625 317 666 q 237 507 237 583 l 237 239 q 281 117 237 154 m 383 -27 q 186 38 255 -18 q 102 239 102 107 l 102 555 l 383 773 q 581 708 511 764 q 665 507 665 640 l 665 -87 l 383 -305 q 187 -241 241 -296 l 281 -161 q 382 -198 321 -198 q 489 -157 446 -198 q 529 -39 529 -119 l 529 85 l 383 -27 m 450 1055 l 456 1055 l 576 998 l 426 784 l 419 784 l 340 821 l 450 1055 z "},"Ĥ":{"ha":943,"x_min":34,"x_max":807,"o":"m 671 -27 l 671 990 l 800 1051 l 807 1051 l 807 34 l 678 -27 l 671 -27 m 136 -27 l 136 354 l 34 354 l 34 361 l 73 442 l 136 442 l 136 990 l 264 1051 l 271 1051 l 271 442 l 590 442 l 590 435 l 551 354 l 271 354 l 271 34 l 142 -27 l 136 -27 m 547 1333 l 699 1118 l 582 1062 l 575 1062 l 479 1217 l 384 1062 l 377 1062 l 307 1095 l 422 1278 l 540 1333 l 547 1333 z "},"ĥ":{"ha":800,"x_min":136,"x_max":699,"o":"m 136 -27 l 136 990 l 264 1051 l 271 1051 l 271 660 l 417 773 q 614 708 545 764 q 699 507 699 640 l 699 34 l 570 -27 l 563 -27 l 563 507 q 519 629 563 585 q 417 666 481 666 q 311 624 351 666 q 271 507 271 583 l 271 34 l 142 -27 l 136 -27 m 486 1333 l 639 1118 l 522 1062 l 515 1062 l 419 1217 l 323 1062 l 317 1062 l 247 1095 l 362 1278 l 479 1333 l 486 1333 z "},"Ħ":{"ha":943,"x_min":34,"x_max":909,"o":"m 136 -27 l 136 354 l 34 354 l 34 361 l 73 442 l 136 442 l 136 841 l 34 841 l 34 848 l 73 929 l 136 929 l 136 990 l 264 1051 l 271 1051 l 271 929 l 671 929 l 671 990 l 800 1051 l 807 1051 l 807 929 l 909 929 l 909 922 l 870 841 l 807 841 l 807 34 l 678 -27 l 671 -27 l 671 841 l 271 841 l 271 442 l 590 442 l 590 435 l 551 354 l 271 354 l 271 34 l 142 -27 l 136 -27 z "},"ħ":{"ha":800,"x_min":34,"x_max":699,"o":"m 136 -27 l 136 841 l 34 841 l 34 848 l 73 929 l 136 929 l 136 990 l 264 1051 l 271 1051 l 271 929 l 452 929 l 452 922 l 414 841 l 271 841 l 271 660 l 417 773 q 614 708 545 764 q 699 507 699 640 l 699 34 l 570 -27 l 563 -27 l 563 507 q 519 629 563 585 q 417 666 481 666 q 311 624 351 666 q 271 507 271 583 l 271 34 l 142 -27 l 136 -27 z "},"Ĩ":{"ha":407,"x_min":3,"x_max":404,"o":"m 56 1111 l 3 1144 l 142 1285 q 207 1259 186 1285 q 274 1219 239 1219 q 344 1285 315 1219 l 351 1285 l 404 1252 l 264 1111 q 200 1137 221 1111 q 133 1177 168 1177 q 63 1111 92 1177 l 56 1111 m 136 -27 l 136 990 l 264 1051 l 271 1051 l 271 34 l 142 -27 l 136 -27 z "},"ĩ":{"ha":407,"x_min":3,"x_max":404,"o":"m 136 -27 l 136 712 l 264 773 l 271 773 l 271 34 l 142 -27 l 136 -27 m 56 833 l 3 866 l 142 1007 q 207 981 186 1007 q 274 941 239 941 q 344 1007 315 941 l 351 1007 l 404 974 l 264 833 q 200 859 221 833 q 133 899 168 899 q 63 833 92 899 l 56 833 z "},"Ī":{"ha":407,"x_min":20,"x_max":386,"o":"m 136 -27 l 136 990 l 264 1051 l 271 1051 l 271 34 l 142 -27 l 136 -27 m 20 1111 l 20 1118 l 75 1234 l 386 1234 l 386 1227 l 331 1111 l 20 1111 z "},"ī":{"ha":407,"x_min":20,"x_max":386,"o":"m 136 -27 l 136 712 l 264 773 l 271 773 l 271 34 l 142 -27 l 136 -27 m 20 833 l 20 840 l 75 956 l 386 956 l 386 949 l 331 833 l 20 833 z "},"Ĭ":{"ha":407,"x_min":1,"x_max":406,"o":"m 1 1211 l 90 1290 l 97 1290 q 223 1218 154 1218 q 366 1286 293 1218 l 372 1286 l 406 1257 l 235 1111 q 1 1211 107 1111 m 136 -27 l 136 990 l 264 1051 l 271 1051 l 271 34 l 142 -27 l 136 -27 z "},"ĭ":{"ha":407,"x_min":1,"x_max":406,"o":"m 1 932 l 90 1012 l 97 1012 q 223 940 154 940 q 366 1008 293 940 l 372 1008 l 406 979 l 235 833 q 1 932 107 833 m 136 -27 l 136 712 l 264 773 l 271 773 l 271 34 l 142 -27 l 136 -27 z "},"Į":{"ha":407,"x_min":67,"x_max":271,"o":"m 136 -27 l 136 990 l 264 1051 l 271 1051 l 271 34 l 237 18 q 195 -121 195 -54 q 268 -244 195 -197 l 139 -305 l 132 -305 q 67 -108 76 -236 l 136 -27 z "},"į":{"ha":407,"x_min":67,"x_max":271,"o":"m 271 1051 l 271 897 l 142 836 l 136 836 l 136 990 l 264 1051 l 271 1051 m 136 -27 l 136 712 l 264 773 l 271 773 l 271 34 l 237 18 q 195 -121 195 -54 q 268 -244 195 -197 l 139 -305 l 132 -305 q 67 -108 76 -236 l 136 -27 z "},"İ":{"ha":407,"x_min":136,"x_max":271,"o":"m 136 -27 l 136 990 l 264 1051 l 271 1051 l 271 34 l 142 -27 l 136 -27 m 271 1333 l 271 1179 l 142 1118 l 136 1118 l 136 1272 l 264 1333 l 271 1333 z "},"ı":{"ha":407,"x_min":136,"x_max":271,"o":"m 136 -27 l 136 712 l 264 773 l 271 773 l 271 34 l 142 -27 l 136 -27 z "},"Ĳ":{"ha":1148,"x_min":136,"x_max":1013,"o":"m 670 -27 q 419 71 515 -27 q 328 312 328 165 l 456 373 l 463 373 l 463 312 q 512 165 463 221 q 670 95 572 95 q 828 165 768 95 q 877 312 877 221 l 877 901 l 556 901 l 556 907 l 611 1024 l 1013 1024 l 1013 237 l 670 -27 m 136 -27 l 136 990 l 264 1051 l 271 1051 l 271 34 l 142 -27 l 136 -27 z "},"ĳ":{"ha":738,"x_min":136,"x_max":602,"o":"m 374 -260 q 321 -198 321 -199 q 427 -157 386 -197 q 467 -39 467 -116 l 467 712 l 595 773 l 602 773 l 602 -83 l 374 -260 m 602 1051 l 602 897 l 473 836 l 467 836 l 467 990 l 595 1051 l 602 1051 m 136 -27 l 136 712 l 264 773 l 271 773 l 271 34 l 142 -27 l 136 -27 m 271 1051 l 271 897 l 142 836 l 136 836 l 136 990 l 264 1051 l 271 1051 z "},"Ĵ":{"ha":875,"x_min":54,"x_max":739,"o":"m 397 -27 q 146 71 242 -27 q 54 312 54 165 l 183 373 l 190 373 l 190 312 q 239 165 190 221 q 397 95 299 95 q 555 165 495 95 q 604 312 604 221 l 604 901 l 283 901 l 283 907 l 338 1024 l 739 1024 l 739 237 l 397 -27 m 572 1333 l 725 1118 l 608 1062 l 601 1062 l 505 1217 l 410 1062 l 403 1062 l 333 1095 l 448 1278 l 566 1333 l 572 1333 z "},"ĵ":{"ha":407,"x_min":-10,"x_max":399,"o":"m 43 -260 q -10 -198 -10 -199 q 96 -157 55 -197 q 136 -39 136 -116 l 136 712 l 264 773 l 271 773 l 271 -83 l 43 -260 m 247 1055 l 399 840 l 282 784 l 275 784 l 180 939 l 84 784 l 77 784 l 7 817 l 123 1000 l 240 1055 l 247 1055 z "},"Ķ":{"ha":925,"x_min":136,"x_max":823,"o":"m 404 -305 l 397 -305 l 277 -248 l 427 -34 l 434 -34 l 513 -71 l 404 -305 m 136 -27 l 136 990 l 264 1051 l 271 1051 l 271 241 q 450 326 366 273 l 346 475 l 465 532 l 472 532 l 557 409 q 651 853 651 527 l 651 990 l 780 1051 l 787 1051 l 787 856 q 602 345 787 519 l 823 29 l 704 -27 l 697 -27 l 494 262 q 271 173 391 204 l 271 34 l 142 -27 l 136 -27 z "},"ķ":{"ha":800,"x_min":136,"x_max":699,"o":"m 136 -27 l 136 990 l 264 1051 l 271 1051 l 271 467 l 630 773 l 637 773 l 698 718 l 526 572 q 614 526 576 556 q 699 325 699 458 l 699 34 l 570 -27 l 563 -27 l 563 325 q 519 447 563 406 q 417 484 478 484 q 312 443 352 484 q 271 325 271 401 l 271 34 l 142 -27 l 136 -27 m 365 -305 l 358 -305 l 239 -248 l 389 -34 l 395 -34 l 475 -71 l 365 -305 z "},"ĸ":{"ha":800,"x_min":136,"x_max":699,"o":"m 136 -27 l 136 712 l 264 773 l 271 773 l 271 467 l 630 773 l 637 773 l 698 718 l 526 572 q 614 526 580 554 q 699 325 699 458 l 699 34 l 570 -27 l 563 -27 l 563 325 q 519 447 563 406 q 417 484 478 484 q 312 443 352 484 q 271 325 271 401 l 271 34 l 142 -27 l 136 -27 z "},"Ĺ":{"ha":738,"x_min":34,"x_max":734,"o":"m 34 0 l 34 7 l 73 88 l 136 88 l 136 990 l 264 1051 l 271 1051 l 271 88 l 734 88 l 734 81 l 696 0 l 34 0 m 235 1333 l 242 1333 l 361 1276 l 212 1062 l 205 1062 l 125 1099 l 235 1333 z "},"ĺ":{"ha":407,"x_min":125,"x_max":361,"o":"m 235 1333 l 242 1333 l 361 1276 l 212 1062 l 205 1062 l 125 1099 l 235 1333 m 136 -27 l 136 990 l 264 1051 l 271 1051 l 271 34 l 142 -27 l 136 -27 z "},"Ļ":{"ha":738,"x_min":34,"x_max":734,"o":"m 34 0 l 34 7 l 73 88 l 136 88 l 136 990 l 264 1051 l 271 1051 l 271 88 l 734 88 l 734 81 l 696 0 l 34 0 m 353 -305 l 346 -305 l 227 -248 l 376 -34 l 383 -34 l 463 -71 l 353 -305 z "},"ļ":{"ha":407,"x_min":44,"x_max":280,"o":"m 170 -305 l 163 -305 l 44 -248 l 194 -34 l 201 -34 l 280 -71 l 170 -305 m 136 -27 l 136 990 l 264 1051 l 271 1051 l 271 34 l 142 -27 l 136 -27 z "},"Ľ":{"ha":738,"x_min":34,"x_max":734,"o":"m 34 0 l 34 7 l 73 88 l 136 88 l 136 990 l 264 1051 l 271 1051 l 271 88 l 734 88 l 734 81 l 696 0 l 34 0 m 450 1055 l 456 1055 l 576 998 l 426 784 l 419 784 l 340 821 l 450 1055 z "},"ľ":{"ha":434,"x_min":136,"x_max":536,"o":"m 410 1055 l 416 1055 l 536 998 l 386 784 l 379 784 l 300 821 l 410 1055 m 136 -27 l 136 990 l 264 1051 l 271 1051 l 271 34 l 142 -27 l 136 -27 z "},"Ŀ":{"ha":738,"x_min":34,"x_max":734,"o":"m 34 0 l 34 7 l 73 88 l 136 88 l 136 990 l 264 1051 l 271 1051 l 271 88 l 734 88 l 734 81 l 696 0 l 34 0 m 496 773 l 496 618 l 367 557 l 360 557 l 360 712 l 489 773 l 496 773 z "},"ŀ":{"ha":441,"x_min":136,"x_max":496,"o":"m 496 773 l 496 618 l 367 557 l 360 557 l 360 712 l 489 773 l 496 773 m 136 -27 l 136 990 l 264 1051 l 271 1051 l 271 34 l 142 -27 l 136 -27 z "},"Ł":{"ha":738,"x_min":34,"x_max":734,"o":"m 34 0 l 34 7 l 73 88 l 136 88 l 136 328 l 86 390 l 136 432 l 136 990 l 264 1051 l 271 1051 l 271 548 l 536 773 l 543 773 l 592 711 l 271 442 l 271 88 l 734 88 l 734 81 l 696 0 l 34 0 z "},"ł":{"ha":513,"x_min":3,"x_max":509,"o":"m 189 -27 l 189 434 l 60 324 l 53 324 l 3 390 l 189 548 l 189 990 l 317 1051 l 324 1051 l 324 663 l 453 773 l 460 773 l 509 707 l 324 549 l 324 34 l 195 -27 l 189 -27 z "},"Ń":{"ha":956,"x_min":136,"x_max":821,"o":"m 136 -27 l 136 787 l 478 1051 q 729 953 633 1051 q 821 712 821 859 l 821 35 l 692 -27 l 685 -27 l 685 712 q 636 859 685 803 q 478 929 576 929 q 320 859 378 929 q 271 712 271 801 l 271 34 l 142 -27 l 136 -27 m 540 1333 l 547 1333 l 666 1276 l 516 1062 l 509 1062 l 430 1099 l 540 1333 z "},"ń":{"ha":766,"x_min":102,"x_max":665,"o":"m 102 -27 l 102 555 l 383 773 q 581 708 511 764 q 665 507 665 640 l 665 34 l 536 -27 l 529 -27 l 529 507 q 485 629 529 591 q 383 666 441 666 q 277 625 319 666 q 237 507 237 585 l 237 34 l 109 -27 l 102 -27 m 450 1055 l 456 1055 l 576 998 l 426 784 l 419 784 l 340 821 l 450 1055 z "},"Ņ":{"ha":956,"x_min":136,"x_max":821,"o":"m 136 -27 l 136 787 l 478 1051 q 729 953 633 1051 q 821 712 821 859 l 821 35 l 692 -27 l 685 -27 l 685 712 q 636 859 685 803 q 478 929 576 929 q 320 859 378 929 q 271 712 271 801 l 271 34 l 142 -27 l 136 -27 m 404 -305 l 397 -305 l 277 -248 l 427 -34 l 434 -34 l 513 -71 l 404 -305 z "},"ņ":{"ha":766,"x_min":102,"x_max":665,"o":"m 102 -27 l 102 555 l 383 773 q 581 708 511 764 q 665 507 665 640 l 665 34 l 536 -27 l 529 -27 l 529 507 q 485 629 529 591 q 383 666 441 666 q 277 625 319 666 q 237 507 237 585 l 237 34 l 109 -27 l 102 -27 m 351 -305 l 345 -305 l 225 -248 l 375 -34 l 382 -34 l 461 -71 l 351 -305 z "},"Ň":{"ha":956,"x_min":136,"x_max":821,"o":"m 136 -27 l 136 787 l 478 1051 q 729 953 633 1051 q 821 712 821 859 l 821 35 l 692 -27 l 685 -27 l 685 712 q 636 859 685 803 q 478 929 576 929 q 320 859 378 929 q 271 712 271 801 l 271 34 l 142 -27 l 136 -27 m 391 1333 l 398 1333 l 494 1179 l 589 1333 l 596 1333 l 666 1300 l 551 1118 l 433 1062 l 427 1062 l 274 1278 l 391 1333 z "},"ň":{"ha":766,"x_min":102,"x_max":665,"o":"m 102 -27 l 102 555 l 383 773 q 581 708 511 764 q 665 507 665 640 l 665 34 l 536 -27 l 529 -27 l 529 507 q 485 629 529 591 q 383 666 441 666 q 277 625 319 666 q 237 507 237 585 l 237 34 l 109 -27 l 102 -27 m 317 1055 l 324 1055 l 420 901 l 515 1055 l 522 1055 l 592 1022 l 477 840 l 359 784 l 353 784 l 200 1000 l 317 1055 z "},"ŉ":{"ha":766,"x_min":34,"x_max":665,"o":"m 102 -27 l 102 555 l 383 773 q 581 708 511 764 q 665 507 665 640 l 665 34 l 536 -27 l 529 -27 l 529 507 q 485 629 529 591 q 383 666 441 666 q 277 625 319 666 q 237 507 237 585 l 237 34 l 109 -27 l 102 -27 m 144 966 l 151 966 l 270 909 l 120 694 l 113 694 l 34 732 l 144 966 z "},"Ŋ":{"ha":956,"x_min":136,"x_max":821,"o":"m 136 -27 l 136 787 l 478 1051 q 729 953 633 1051 q 821 712 821 859 l 821 -83 l 592 -260 q 539 -198 539 -199 q 645 -157 604 -197 q 685 -39 685 -116 l 685 712 q 636 859 685 803 q 478 929 576 929 q 320 859 378 929 q 271 712 271 801 l 271 34 l 142 -27 l 136 -27 z "},"ŋ":{"ha":766,"x_min":102,"x_max":665,"o":"m 102 -27 l 102 555 l 383 773 q 581 708 511 764 q 665 507 665 640 l 665 -83 l 436 -260 q 383 -198 383 -199 q 489 -157 448 -197 q 529 -39 529 -116 l 529 507 q 485 629 529 591 q 383 666 441 666 q 277 625 319 666 q 237 507 237 585 l 237 34 l 109 -27 l 102 -27 z "},"Ō":{"ha":956,"x_min":136,"x_max":821,"o":"m 478 95 q 636 165 575 95 q 685 312 685 221 l 685 712 q 636 859 685 803 q 478 929 576 929 q 320 859 380 929 q 271 712 271 803 l 271 312 q 320 165 271 222 q 478 95 379 95 m 478 -27 q 227 71 323 -27 q 136 312 136 165 l 136 787 l 478 1051 q 729 953 633 1051 q 821 712 821 859 l 821 237 l 478 -27 m 317 1111 l 317 1118 l 372 1234 l 682 1234 l 682 1227 l 627 1111 l 317 1111 z "},"ō":{"ha":766,"x_min":102,"x_max":665,"o":"m 383 -27 q 186 38 255 -18 q 102 239 102 107 l 102 555 l 383 773 q 581 708 511 764 q 665 507 665 640 l 665 191 l 383 -27 m 383 80 q 488 121 448 80 q 529 239 529 163 l 529 507 q 485 629 529 591 q 383 666 440 666 q 278 625 319 666 q 237 507 237 583 l 237 239 q 281 117 237 155 q 383 80 326 80 m 213 833 l 213 840 l 268 956 l 578 956 l 578 949 l 524 833 l 213 833 z "},"Ŏ":{"ha":956,"x_min":136,"x_max":821,"o":"m 478 95 q 636 165 575 95 q 685 312 685 221 l 685 712 q 636 859 685 803 q 478 929 576 929 q 320 859 380 929 q 271 712 271 803 l 271 312 q 320 165 271 222 q 478 95 379 95 m 478 -27 q 227 71 323 -27 q 136 312 136 165 l 136 787 l 478 1051 q 729 953 633 1051 q 821 712 821 859 l 821 237 l 478 -27 m 273 1211 l 361 1290 l 368 1290 q 494 1218 425 1218 q 637 1286 564 1218 l 644 1286 l 677 1257 l 507 1111 q 273 1211 378 1111 z "},"ŏ":{"ha":766,"x_min":102,"x_max":665,"o":"m 383 -27 q 186 38 255 -18 q 102 239 102 107 l 102 555 l 383 773 q 581 708 511 764 q 665 507 665 640 l 665 191 l 383 -27 m 383 80 q 488 121 448 80 q 529 239 529 163 l 529 507 q 485 629 529 591 q 383 666 440 666 q 278 625 319 666 q 237 507 237 583 l 237 239 q 281 117 237 155 q 383 80 326 80 m 173 932 l 262 1012 l 269 1012 q 395 940 326 940 q 537 1008 465 940 l 544 1008 l 577 979 l 407 833 q 173 932 279 833 z "},"Ő":{"ha":956,"x_min":136,"x_max":821,"o":"m 478 95 q 636 165 575 95 q 685 312 685 221 l 685 712 q 636 859 685 803 q 478 929 576 929 q 320 859 380 929 q 271 712 271 803 l 271 312 q 320 165 271 222 q 478 95 379 95 m 478 -27 q 227 71 323 -27 q 136 312 136 165 l 136 787 l 478 1051 q 729 953 633 1051 q 821 712 821 859 l 821 237 l 478 -27 m 617 1333 l 624 1333 l 743 1276 l 593 1062 l 587 1062 l 507 1099 l 617 1333 m 432 1333 l 439 1333 l 558 1276 l 408 1062 l 401 1062 l 322 1099 l 432 1333 z "},"ő":{"ha":766,"x_min":102,"x_max":665,"o":"m 383 -27 q 186 38 255 -18 q 102 239 102 107 l 102 555 l 383 773 q 581 708 511 764 q 665 507 665 640 l 665 191 l 383 -27 m 383 80 q 488 121 448 80 q 529 239 529 163 l 529 507 q 485 629 529 591 q 383 666 440 666 q 278 625 319 666 q 237 507 237 583 l 237 239 q 281 117 237 155 q 383 80 326 80 m 533 1055 l 540 1055 l 659 998 l 509 784 l 503 784 l 423 821 l 533 1055 m 348 1055 l 355 1055 l 474 998 l 324 784 l 317 784 l 238 821 l 348 1055 z "},"Œ":{"ha":1318,"x_min":136,"x_max":1284,"o":"m 478 -27 q 227 71 323 -27 q 136 312 136 165 l 136 787 l 478 1051 q 686 990 600 1051 l 757 1024 l 1187 1024 l 1187 1017 l 1148 936 l 821 936 l 821 442 l 1139 442 l 1139 435 l 1101 354 l 821 354 l 821 88 l 1284 88 l 1284 81 l 1245 0 l 685 0 l 685 133 l 478 -27 m 478 95 q 636 165 575 95 q 685 312 685 221 l 685 712 q 636 859 685 803 q 478 929 576 929 q 320 859 380 929 q 271 712 271 802 l 271 312 q 320 165 271 222 q 478 95 379 95 z "},"œ":{"ha":1194,"x_min":102,"x_max":1092,"o":"m 383 80 q 488 121 448 80 q 529 239 529 163 l 529 507 q 485 629 529 591 q 383 666 440 666 q 278 625 319 666 q 237 507 237 583 l 237 239 q 281 117 237 155 q 383 80 326 80 m 383 -27 q 186 38 255 -18 q 102 239 102 107 l 102 555 l 383 773 q 581 708 513 764 q 637 639 616 679 l 810 773 q 1008 708 939 764 q 1092 507 1092 640 l 675 170 q 709 117 687 136 q 809 80 753 80 q 916 121 868 80 q 956 239 956 156 l 1085 300 l 1092 300 l 1092 191 l 810 -27 q 613 38 681 -18 q 557 107 578 67 l 383 -27 m 665 269 l 956 506 q 912 629 956 591 q 810 666 867 666 q 705 625 745 666 q 665 507 665 583 l 665 269 z "},"Ŕ":{"ha":905,"x_min":136,"x_max":823,"o":"m 512 1333 l 519 1333 l 638 1276 l 488 1062 l 481 1062 l 402 1099 l 512 1333 m 136 -27 l 136 990 l 264 1051 l 271 1051 l 271 241 q 450 326 361 269 l 346 475 l 465 532 l 472 532 l 557 409 q 660 645 660 509 q 555 859 660 764 q 279 977 466 939 l 434 1051 l 441 1051 q 670 930 574 1025 q 786 646 786 814 q 608 337 786 473 l 823 29 l 704 -27 l 697 -27 l 494 263 q 271 173 390 206 l 271 34 l 142 -27 l 136 -27 z "},"ŕ":{"ha":699,"x_min":102,"x_max":665,"o":"m 102 -27 l 102 555 l 383 773 q 581 708 511 764 q 665 507 665 640 l 536 446 l 529 446 l 529 507 q 485 629 529 591 q 382 666 440 666 q 277 625 323 666 q 237 507 237 589 l 237 34 l 109 -27 l 102 -27 m 450 1055 l 456 1055 l 576 998 l 426 784 l 419 784 l 340 821 l 450 1055 z "},"Ŗ":{"ha":905,"x_min":136,"x_max":823,"o":"m 404 -305 l 397 -305 l 277 -248 l 427 -34 l 434 -34 l 513 -71 l 404 -305 m 136 -27 l 136 990 l 264 1051 l 271 1051 l 271 241 q 450 326 361 269 l 346 475 l 465 532 l 472 532 l 557 409 q 660 645 660 509 q 555 859 660 764 q 279 977 466 939 l 434 1051 l 441 1051 q 670 930 574 1025 q 786 646 786 814 q 608 337 786 473 l 823 29 l 704 -27 l 697 -27 l 494 263 q 271 173 390 206 l 271 34 l 142 -27 l 136 -27 z "},"ŗ":{"ha":699,"x_min":44,"x_max":665,"o":"m 102 -27 l 102 555 l 383 773 q 581 708 511 764 q 665 507 665 640 l 536 446 l 529 446 l 529 507 q 485 629 529 591 q 382 666 440 666 q 277 625 323 666 q 237 507 237 589 l 237 34 l 109 -27 l 102 -27 m 170 -305 l 163 -305 l 44 -248 l 194 -34 l 201 -34 l 280 -71 l 170 -305 z "},"Ř":{"ha":905,"x_min":136,"x_max":823,"o":"m 359 1333 l 366 1333 l 461 1179 l 557 1333 l 564 1333 l 633 1300 l 518 1118 l 401 1062 l 394 1062 l 241 1278 l 359 1333 m 136 -27 l 136 990 l 264 1051 l 271 1051 l 271 241 q 450 326 361 269 l 346 475 l 465 532 l 472 532 l 557 409 q 660 645 660 509 q 555 859 660 764 q 279 977 466 939 l 434 1051 l 441 1051 q 670 930 574 1025 q 786 646 786 814 q 608 337 786 473 l 823 29 l 704 -27 l 697 -27 l 494 263 q 271 173 390 206 l 271 34 l 142 -27 l 136 -27 z "},"ř":{"ha":699,"x_min":102,"x_max":665,"o":"m 102 -27 l 102 555 l 383 773 q 581 708 511 764 q 665 507 665 640 l 536 446 l 529 446 l 529 507 q 485 629 529 591 q 382 666 440 666 q 277 625 323 666 q 237 507 237 589 l 237 34 l 109 -27 l 102 -27 m 317 1055 l 324 1055 l 420 901 l 515 1055 l 522 1055 l 592 1022 l 477 840 l 359 784 l 353 784 l 200 1000 l 317 1055 z "},"Ś":{"ha":902,"x_min":109,"x_max":793,"o":"m 451 -27 q 200 71 293 -27 q 109 312 109 168 l 237 373 l 244 373 l 244 312 q 293 165 244 222 q 451 95 352 95 q 609 165 548 95 q 658 312 658 221 q 618 446 658 399 q 450 509 562 509 q 237 591 325 509 q 170 769 170 654 l 170 834 l 451 1051 q 648 986 579 1042 q 732 785 732 918 l 604 724 l 597 724 l 597 785 q 553 907 597 868 q 451 944 510 944 q 345 903 385 944 q 305 785 305 861 q 336 677 305 711 q 450 631 376 631 q 702 554 612 631 q 793 313 793 475 l 793 237 l 451 -27 m 540 1333 l 547 1333 l 666 1276 l 516 1062 l 509 1062 l 430 1099 l 540 1333 z "},"ś":{"ha":726,"x_min":81,"x_max":644,"o":"m 363 -27 q 165 38 235 -18 q 81 239 81 106 l 210 300 l 217 300 l 217 239 q 261 117 217 157 q 363 80 303 80 q 468 121 428 80 q 509 239 509 163 q 463 344 509 315 q 362 368 424 368 q 141 441 203 368 q 110 577 110 479 l 363 773 q 529 713 462 771 q 596 591 583 667 l 467 530 l 460 530 l 460 550 q 440 624 460 599 q 347 666 406 666 q 260 629 289 666 q 239 564 239 603 q 275 495 239 521 q 362 481 296 481 q 572 425 508 481 q 644 191 644 361 l 363 -27 m 450 1055 l 456 1055 l 576 998 l 426 784 l 419 784 l 340 821 l 450 1055 z "},"Ŝ":{"ha":902,"x_min":109,"x_max":793,"o":"m 451 -27 q 200 71 293 -27 q 109 312 109 168 l 237 373 l 244 373 l 244 312 q 293 165 244 222 q 451 95 352 95 q 609 165 548 95 q 658 312 658 221 q 618 446 658 399 q 450 509 562 509 q 237 591 325 509 q 170 769 170 654 l 170 834 l 451 1051 q 648 986 579 1042 q 732 785 732 918 l 604 724 l 597 724 l 597 785 q 553 907 597 868 q 451 944 510 944 q 345 903 385 944 q 305 785 305 861 q 336 677 305 711 q 450 631 376 631 q 702 554 612 631 q 793 313 793 475 l 793 237 l 451 -27 m 547 1333 l 699 1118 l 582 1062 l 575 1062 l 479 1217 l 384 1062 l 377 1062 l 307 1095 l 422 1278 l 540 1333 l 547 1333 z "},"ŝ":{"ha":726,"x_min":81,"x_max":644,"o":"m 363 -27 q 165 38 235 -18 q 81 239 81 106 l 210 300 l 217 300 l 217 239 q 261 117 217 157 q 363 80 303 80 q 468 121 428 80 q 509 239 509 163 q 463 344 509 315 q 362 368 424 368 q 141 441 203 368 q 110 577 110 479 l 363 773 q 529 713 462 771 q 596 591 583 667 l 467 530 l 460 530 l 460 550 q 440 624 460 599 q 347 666 406 666 q 260 629 289 666 q 239 564 239 603 q 275 495 239 521 q 362 481 296 481 q 572 425 508 481 q 644 191 644 361 l 363 -27 m 439 1055 l 592 840 l 475 784 l 468 784 l 372 939 l 277 784 l 270 784 l 200 817 l 315 1000 l 433 1055 l 439 1055 z "},"Ş":{"ha":902,"x_min":109,"x_max":793,"o":"m 109 312 l 237 373 l 244 373 l 244 312 q 293 165 244 222 q 451 95 352 95 q 609 165 548 95 q 658 312 658 221 q 618 446 658 399 q 450 509 562 509 q 237 591 325 509 q 170 769 170 654 l 170 834 l 451 1051 q 648 986 579 1042 q 732 785 732 918 l 604 724 l 597 724 l 597 785 q 553 907 597 868 q 451 944 510 944 q 345 903 385 944 q 305 785 305 861 q 336 677 305 711 q 450 631 376 631 q 702 554 612 631 q 793 313 793 475 l 793 237 l 499 10 l 599 -108 q 534 -305 590 -236 l 527 -305 l 398 -244 q 471 -121 471 -197 q 451 -27 471 -76 q 200 71 293 -27 q 109 312 109 168 z "},"ş":{"ha":726,"x_min":81,"x_max":644,"o":"m 81 239 l 210 300 l 217 300 l 217 239 q 261 117 217 157 q 363 80 302 80 q 468 121 428 80 q 509 239 509 163 q 463 344 509 315 q 362 368 424 368 q 141 441 203 368 q 110 577 110 479 l 363 773 q 529 713 462 771 q 596 591 583 667 l 467 530 l 460 530 l 460 550 q 440 624 460 599 q 347 666 406 666 q 260 629 289 666 q 239 564 239 603 q 275 495 239 521 q 362 481 296 481 q 572 425 508 481 q 644 191 644 361 l 411 10 l 511 -108 q 446 -305 502 -236 l 439 -305 l 310 -244 q 383 -121 383 -197 q 363 -27 383 -75 q 165 38 235 -18 q 81 239 81 106 z "},"Š":{"ha":902,"x_min":109,"x_max":793,"o":"m 451 -27 q 200 71 293 -27 q 109 312 109 168 l 237 373 l 244 373 l 244 312 q 293 165 244 222 q 451 95 352 95 q 609 165 548 95 q 658 312 658 221 q 618 446 658 399 q 450 509 562 509 q 237 591 325 509 q 170 769 170 654 l 170 834 l 451 1051 q 648 986 579 1042 q 732 785 732 918 l 604 724 l 597 724 l 597 785 q 553 907 597 868 q 451 944 510 944 q 345 903 385 944 q 305 785 305 861 q 336 677 305 711 q 450 631 376 631 q 702 554 612 631 q 793 313 793 475 l 793 237 l 451 -27 m 391 1333 l 398 1333 l 494 1179 l 589 1333 l 596 1333 l 666 1300 l 551 1118 l 433 1062 l 427 1062 l 274 1278 l 391 1333 z "},"š":{"ha":726,"x_min":81,"x_max":644,"o":"m 363 -27 q 165 38 235 -18 q 81 239 81 106 l 210 300 l 217 300 l 217 239 q 261 117 217 157 q 363 80 303 80 q 468 121 428 80 q 509 239 509 163 q 463 344 509 315 q 362 368 424 368 q 141 441 203 368 q 110 577 110 479 l 363 773 q 529 713 462 771 q 596 591 583 667 l 467 530 l 460 530 l 460 550 q 440 624 460 599 q 347 666 406 666 q 260 629 289 666 q 239 564 239 603 q 275 495 239 521 q 362 481 296 481 q 572 425 508 481 q 644 191 644 361 l 363 -27 m 317 1055 l 324 1055 l 420 901 l 515 1055 l 522 1055 l 592 1022 l 477 840 l 359 784 l 353 784 l 200 1000 l 317 1055 z "},"Ţ":{"ha":723,"x_min":3,"x_max":720,"o":"m 294 -27 l 294 936 l 3 936 l 3 943 l 42 1024 l 720 1024 l 720 1017 l 681 936 l 429 936 l 429 34 l 550 -108 q 485 -305 541 -236 l 478 -305 l 349 -244 q 422 -121 422 -197 q 383 12 422 -57 l 300 -27 l 294 -27 z "},"ţ":{"ha":509,"x_min":3,"x_max":505,"o":"m 186 -27 l 186 658 l 3 658 l 3 665 l 42 746 l 186 746 l 186 990 l 315 1051 l 322 1051 l 322 746 l 505 746 l 505 739 l 467 658 l 322 658 l 322 34 l 443 -108 q 378 -305 434 -236 l 371 -305 l 242 -244 q 315 -121 315 -197 q 276 12 315 -57 l 193 -27 l 186 -27 z "},"Ť":{"ha":723,"x_min":3,"x_max":720,"o":"m 294 -27 l 294 936 l 3 936 l 3 943 l 42 1024 l 720 1024 l 720 1017 l 681 936 l 429 936 l 429 34 l 300 -27 l 294 -27 m 272 1333 l 279 1333 l 374 1179 l 470 1333 l 477 1333 l 547 1300 l 431 1118 l 314 1062 l 307 1062 l 155 1278 l 272 1333 z "},"ť":{"ha":522,"x_min":3,"x_max":576,"o":"m 186 -27 l 186 658 l 3 658 l 3 665 l 42 746 l 186 746 l 186 990 l 315 1051 l 322 1051 l 322 746 l 505 746 l 505 739 l 467 658 l 322 658 l 322 34 l 193 -27 l 186 -27 m 450 1055 l 456 1055 l 576 998 l 426 784 l 419 784 l 340 821 l 450 1055 z "},"Ŧ":{"ha":723,"x_min":3,"x_max":720,"o":"m 294 -27 l 294 354 l 152 354 l 152 361 l 191 442 l 294 442 l 294 936 l 3 936 l 3 943 l 42 1024 l 720 1024 l 720 1017 l 681 936 l 429 936 l 429 442 l 570 442 l 570 435 l 532 354 l 429 354 l 429 34 l 300 -27 l 294 -27 z "},"ŧ":{"ha":509,"x_min":3,"x_max":505,"o":"m 186 -27 l 186 354 l 45 354 l 45 361 l 83 442 l 186 442 l 186 658 l 3 658 l 3 665 l 42 746 l 186 746 l 186 990 l 315 1051 l 322 1051 l 322 746 l 505 746 l 505 739 l 467 658 l 322 658 l 322 442 l 463 442 l 463 435 l 425 354 l 322 354 l 322 34 l 193 -27 l 186 -27 z "},"Ũ":{"ha":956,"x_min":136,"x_max":821,"o":"m 478 -27 q 227 71 323 -27 q 136 312 136 165 l 136 989 l 264 1051 l 271 1051 l 271 312 q 320 165 271 221 q 478 95 380 95 q 636 165 578 95 q 685 312 685 223 l 685 990 l 814 1051 l 821 1051 l 821 237 l 478 -27 m 346 1112 l 288 1145 l 432 1286 q 496 1259 475 1286 q 564 1219 528 1219 q 633 1286 605 1219 l 640 1286 l 698 1253 l 554 1112 q 490 1138 511 1112 q 422 1178 458 1178 q 353 1112 381 1178 l 346 1112 z "},"ũ":{"ha":766,"x_min":102,"x_max":665,"o":"m 383 -27 q 186 38 255 -18 q 102 239 102 106 l 102 712 l 231 773 l 237 773 l 237 239 q 281 117 237 155 q 383 80 326 80 q 489 121 447 80 q 529 239 529 161 l 529 712 l 658 773 l 665 773 l 665 191 l 383 -27 m 260 833 l 202 866 l 346 1007 q 410 981 389 1007 q 477 941 442 941 q 547 1007 519 941 l 554 1007 l 612 974 l 468 833 q 404 859 425 833 q 336 899 372 899 q 267 833 295 899 l 260 833 z "},"Ū":{"ha":956,"x_min":136,"x_max":821,"o":"m 478 -27 q 227 71 323 -27 q 136 312 136 165 l 136 989 l 264 1051 l 271 1051 l 271 312 q 320 165 271 221 q 478 95 380 95 q 636 165 578 95 q 685 312 685 223 l 685 990 l 814 1051 l 821 1051 l 821 237 l 478 -27 m 317 1111 l 317 1118 l 372 1234 l 682 1234 l 682 1227 l 627 1111 l 317 1111 z "},"ū":{"ha":766,"x_min":102,"x_max":665,"o":"m 383 -27 q 186 38 255 -18 q 102 239 102 106 l 102 712 l 231 773 l 237 773 l 237 239 q 281 117 237 155 q 383 80 326 80 q 489 121 447 80 q 529 239 529 161 l 529 712 l 658 773 l 665 773 l 665 191 l 383 -27 m 213 833 l 213 840 l 268 956 l 578 956 l 578 949 l 524 833 l 213 833 z "},"Ŭ":{"ha":956,"x_min":136,"x_max":821,"o":"m 478 -27 q 227 71 323 -27 q 136 312 136 165 l 136 989 l 264 1051 l 271 1051 l 271 312 q 320 165 271 221 q 478 95 380 95 q 636 165 578 95 q 685 312 685 223 l 685 990 l 814 1051 l 821 1051 l 821 237 l 478 -27 m 273 1211 l 361 1290 l 368 1290 q 494 1218 425 1218 q 637 1286 564 1218 l 644 1286 l 677 1257 l 507 1111 q 273 1211 378 1111 z "},"ŭ":{"ha":766,"x_min":102,"x_max":665,"o":"m 383 -27 q 186 38 255 -18 q 102 239 102 106 l 102 712 l 231 773 l 237 773 l 237 239 q 281 117 237 155 q 383 80 326 80 q 489 121 447 80 q 529 239 529 161 l 529 712 l 658 773 l 665 773 l 665 191 l 383 -27 m 173 932 l 262 1012 l 269 1012 q 395 940 326 940 q 537 1008 465 940 l 544 1008 l 577 979 l 407 833 q 173 932 279 833 z "},"Ů":{"ha":956,"x_min":136,"x_max":821,"o":"m 478 -27 q 227 71 323 -27 q 136 312 136 165 l 136 989 l 264 1051 l 271 1051 l 271 312 q 320 165 271 221 q 478 95 380 95 q 636 165 578 95 q 685 312 685 223 l 685 990 l 814 1051 l 821 1051 l 821 237 l 478 -27 m 478 1333 q 572 1302 536 1332 q 612 1205 612 1270 l 612 1189 l 486 1078 q 391 1109 422 1082 q 352 1205 352 1143 l 352 1222 l 478 1333 m 483 1263 q 446 1249 460 1263 q 433 1205 433 1234 q 447 1161 433 1174 q 484 1147 462 1147 q 518 1162 503 1147 q 532 1205 532 1175 q 517 1250 532 1236 q 483 1263 503 1263 z "},"ů":{"ha":766,"x_min":102,"x_max":665,"o":"m 383 -27 q 186 38 255 -18 q 102 239 102 106 l 102 712 l 231 773 l 237 773 l 237 239 q 281 117 237 155 q 383 80 326 80 q 489 121 447 80 q 529 239 529 161 l 529 712 l 658 773 l 665 773 l 665 191 l 383 -27 m 380 1055 q 475 1024 439 1054 q 514 927 514 991 l 514 911 l 388 800 q 294 831 324 804 q 254 927 254 865 l 254 944 l 380 1055 m 385 985 q 349 970 362 985 q 335 927 335 956 q 349 883 335 896 q 387 869 364 869 q 420 884 406 869 q 434 927 434 897 q 419 972 434 958 q 385 985 406 985 z "},"Ű":{"ha":956,"x_min":136,"x_max":821,"o":"m 478 -27 q 227 71 323 -27 q 136 312 136 165 l 136 989 l 264 1051 l 271 1051 l 271 312 q 320 165 271 221 q 478 95 380 95 q 636 165 578 95 q 685 312 685 223 l 685 990 l 814 1051 l 821 1051 l 821 237 l 478 -27 m 617 1333 l 624 1333 l 743 1276 l 593 1062 l 587 1062 l 507 1099 l 617 1333 m 432 1333 l 439 1333 l 558 1276 l 408 1062 l 401 1062 l 322 1099 l 432 1333 z "},"ű":{"ha":766,"x_min":102,"x_max":665,"o":"m 383 -27 q 186 38 255 -18 q 102 239 102 106 l 102 712 l 231 773 l 237 773 l 237 239 q 281 117 237 155 q 383 80 326 80 q 489 121 447 80 q 529 239 529 161 l 529 712 l 658 773 l 665 773 l 665 191 l 383 -27 m 533 1055 l 540 1055 l 659 998 l 509 784 l 503 784 l 423 821 l 533 1055 m 348 1055 l 355 1055 l 474 998 l 324 784 l 317 784 l 238 821 l 348 1055 z "},"Ų":{"ha":956,"x_min":136,"x_max":821,"o":"m 550 28 q 501 -121 501 -49 q 574 -244 501 -197 l 446 -305 l 439 -305 q 374 -108 382 -236 l 444 -26 q 227 71 313 -16 q 136 312 136 164 l 136 989 l 264 1051 l 271 1051 l 271 312 q 320 165 271 221 q 478 95 380 95 q 636 165 578 95 q 685 312 685 223 l 685 990 l 814 1051 l 821 1051 l 821 237 l 550 28 z "},"ų":{"ha":766,"x_min":102,"x_max":665,"o":"m 455 28 q 406 -121 406 -49 q 479 -244 406 -197 l 351 -305 l 344 -305 q 279 -108 288 -236 l 350 -24 q 186 38 245 -11 q 102 239 102 106 l 102 712 l 231 773 l 237 773 l 237 239 q 281 117 237 155 q 383 80 326 80 q 489 121 447 80 q 529 239 529 161 l 529 712 l 658 773 l 665 773 l 665 191 l 455 28 z "},"Ŵ":{"ha":1506,"x_min":136,"x_max":1370,"o":"m 478 -27 q 227 71 323 -27 q 136 312 136 165 l 136 989 l 264 1051 l 271 1051 l 271 312 q 320 165 271 221 q 478 95 380 95 q 636 165 578 95 q 685 312 685 223 l 685 989 l 685 990 l 814 1051 l 821 1051 l 821 312 q 869 165 821 221 q 1027 95 930 95 q 1185 165 1127 95 q 1234 312 1234 223 l 1234 990 l 1363 1051 l 1370 1051 l 1370 237 l 1027 -27 q 777 71 871 -27 q 717 157 739 110 l 478 -27 m 814 1333 l 966 1118 l 849 1062 l 842 1062 l 747 1217 l 651 1062 l 644 1062 l 574 1095 l 690 1278 l 807 1333 l 814 1333 z "},"ŵ":{"ha":1194,"x_min":102,"x_max":1092,"o":"m 383 -27 q 186 38 255 -18 q 102 239 102 106 l 102 712 l 231 773 l 237 773 l 237 239 q 281 117 237 155 q 383 80 326 80 q 489 121 447 80 q 529 239 529 161 l 529 712 l 658 773 l 665 773 l 665 239 q 709 117 665 155 q 810 80 753 80 q 916 121 874 80 q 956 239 956 161 l 956 712 l 1085 773 l 1092 773 l 1092 191 l 810 -27 q 613 38 681 -18 q 557 107 578 67 l 383 -27 m 655 1055 l 808 840 l 690 784 l 684 784 l 588 939 l 492 784 l 486 784 l 416 817 l 531 1000 l 648 1055 l 655 1055 z "},"Ŷ":{"ha":867,"x_min":68,"x_max":799,"o":"m 350 -27 l 350 354 l 155 354 l 155 361 l 194 442 l 316 442 l 68 995 l 186 1051 l 193 1051 l 450 468 l 721 1051 l 728 1051 l 799 1017 l 524 442 l 711 442 l 711 435 l 673 354 l 486 354 l 486 34 l 357 -27 l 350 -27 m 507 1333 l 660 1118 l 543 1062 l 536 1062 l 440 1217 l 345 1062 l 338 1062 l 268 1095 l 383 1278 l 500 1333 l 507 1333 z "},"ŷ":{"ha":800,"x_min":102,"x_max":665,"o":"m 383 -27 q 186 38 255 -18 q 102 239 102 106 l 102 712 l 231 773 l 237 773 l 237 239 q 281 117 237 155 q 382 80 326 80 q 489 121 441 80 q 529 239 529 156 l 529 712 l 658 773 l 665 773 l 665 -87 l 383 -305 q 187 -241 241 -296 l 281 -161 q 382 -198 322 -198 q 489 -157 443 -198 q 529 -39 529 -121 l 529 86 l 383 -27 m 439 1055 l 592 840 l 475 784 l 468 784 l 372 939 l 277 784 l 270 784 l 200 817 l 315 1000 l 433 1055 l 439 1055 z "},"Ÿ":{"ha":867,"x_min":68,"x_max":799,"o":"m 350 -27 l 350 354 l 155 354 l 155 361 l 194 442 l 316 442 l 68 995 l 186 1051 l 193 1051 l 450 468 l 721 1051 l 728 1051 l 799 1017 l 524 442 l 711 442 l 711 435 l 673 354 l 486 354 l 486 34 l 357 -27 l 350 -27 m 610 1333 l 617 1333 l 617 1179 l 488 1118 l 481 1118 l 481 1272 l 610 1333 m 425 1333 l 432 1333 l 432 1179 l 303 1118 l 296 1118 l 296 1272 l 425 1333 z "},"Ź":{"ha":859,"x_min":102,"x_max":758,"o":"m 102 0 l 102 7 l 272 354 l 102 354 l 102 361 l 140 442 l 315 442 l 557 936 l 111 936 l 111 943 l 149 1024 l 744 1024 l 744 1017 l 460 442 l 744 442 l 744 435 l 705 354 l 416 354 l 285 88 l 758 88 l 758 81 l 719 0 l 102 0 m 482 1333 l 489 1333 l 608 1276 l 458 1062 l 452 1062 l 372 1099 l 482 1333 z "},"ź":{"ha":732,"x_min":81,"x_max":650,"o":"m 81 0 l 81 7 l 226 264 l 81 264 l 81 271 l 120 353 l 276 353 l 447 658 l 95 658 l 95 665 l 134 746 l 637 746 l 637 739 l 421 353 l 637 353 l 637 346 l 599 264 l 372 264 l 273 88 l 650 88 l 650 81 l 612 0 l 81 0 m 422 1055 l 429 1055 l 548 998 l 398 784 l 391 784 l 312 821 l 422 1055 z "},"Ż":{"ha":859,"x_min":102,"x_max":758,"o":"m 102 0 l 102 7 l 272 354 l 102 354 l 102 361 l 140 442 l 315 442 l 557 936 l 111 936 l 111 943 l 149 1024 l 744 1024 l 744 1017 l 460 442 l 744 442 l 744 435 l 705 354 l 416 354 l 285 88 l 758 88 l 758 81 l 719 0 l 102 0 m 509 1333 l 509 1179 l 380 1118 l 373 1118 l 373 1272 l 502 1333 l 509 1333 z "},"ż":{"ha":732,"x_min":81,"x_max":650,"o":"m 81 0 l 81 7 l 226 264 l 81 264 l 81 271 l 120 353 l 276 353 l 447 658 l 95 658 l 95 665 l 134 746 l 637 746 l 637 739 l 421 353 l 637 353 l 637 346 l 599 264 l 372 264 l 273 88 l 650 88 l 650 81 l 612 0 l 81 0 m 453 1051 l 453 897 l 324 836 l 317 836 l 317 990 l 446 1051 l 453 1051 z "},"Ž":{"ha":859,"x_min":102,"x_max":758,"o":"m 102 0 l 102 7 l 272 354 l 102 354 l 102 361 l 140 442 l 315 442 l 557 936 l 111 936 l 111 943 l 149 1024 l 744 1024 l 744 1017 l 460 442 l 744 442 l 744 435 l 705 354 l 416 354 l 285 88 l 758 88 l 758 81 l 719 0 l 102 0 m 355 1333 l 362 1333 l 458 1179 l 553 1333 l 560 1333 l 630 1300 l 515 1118 l 397 1062 l 391 1062 l 238 1278 l 355 1333 z "},"ž":{"ha":732,"x_min":81,"x_max":650,"o":"m 81 0 l 81 7 l 226 264 l 81 264 l 81 271 l 120 353 l 276 353 l 447 658 l 95 658 l 95 665 l 134 746 l 637 746 l 637 739 l 421 353 l 637 353 l 637 346 l 599 264 l 372 264 l 273 88 l 650 88 l 650 81 l 612 0 l 81 0 m 291 1055 l 298 1055 l 393 901 l 489 1055 l 496 1055 l 566 1022 l 450 840 l 333 784 l 326 784 l 174 1000 l 291 1055 z "},"ſ":{"ha":550,"x_min":3,"x_max":652,"o":"m 309 34 l 180 -27 l 173 -27 l 173 513 l 3 513 l 3 519 l 42 601 l 173 601 l 173 833 l 454 1051 q 652 986 585 1042 l 556 907 q 454 944 510 944 q 349 903 389 944 q 309 785 309 862 l 309 34 z "},"Ƒ":{"ha":719,"x_min":-10,"x_max":637,"o":"m 43 -260 q -10 -198 -10 -199 q 96 -157 55 -197 q 136 -39 136 -116 l 136 354 l 34 354 l 34 361 l 73 442 l 136 442 l 136 990 l 208 1024 l 637 1024 l 637 1017 l 599 936 l 271 936 l 271 442 l 590 442 l 590 435 l 551 354 l 271 354 l 271 -83 l 43 -260 z "},"ƒ":{"ha":618,"x_min":-10,"x_max":614,"o":"m 43 -260 q -10 -198 -10 -199 q 96 -157 55 -197 q 136 -39 136 -116 l 136 513 l 34 513 l 34 519 l 73 601 l 136 601 l 136 833 l 417 1051 q 614 986 547 1042 l 519 907 q 417 944 473 944 q 311 903 352 944 q 271 785 271 862 l 271 601 l 515 601 l 515 594 l 477 513 l 271 513 l 271 -83 l 43 -260 z "},"Ǥ":{"ha":956,"x_min":136,"x_max":922,"o":"m 478 -27 q 227 71 323 -27 q 136 312 136 165 l 136 787 l 478 1051 q 729 953 633 1051 q 821 712 821 859 l 692 651 l 685 651 l 685 712 q 636 859 685 803 q 478 929 576 929 q 320 859 380 929 q 271 712 271 802 l 271 312 q 320 165 271 222 q 478 95 379 95 q 636 165 578 95 q 649 182 643 173 l 504 182 l 504 189 l 543 270 l 682 270 q 685 312 685 290 l 685 354 l 439 354 l 439 361 l 477 442 l 821 442 l 821 270 l 922 270 l 922 263 l 884 182 l 749 182 l 478 -27 z "},"ǥ":{"ha":800,"x_min":102,"x_max":766,"o":"m 383 -27 q 186 38 255 -18 q 102 239 102 107 l 102 555 l 383 773 q 581 708 511 764 q 665 507 665 640 l 665 411 l 766 411 l 766 404 l 728 323 l 665 323 l 665 -87 l 383 -305 q 187 -241 241 -296 l 281 -161 q 382 -198 321 -198 q 489 -157 446 -198 q 529 -39 529 -119 l 529 85 l 383 -27 m 281 117 q 381 80 326 80 q 489 121 437 80 q 529 239 529 155 l 529 323 l 354 323 l 354 330 l 393 411 l 529 411 l 529 507 q 485 629 529 591 q 383 666 440 666 q 277 625 317 666 q 237 507 237 583 l 237 239 q 281 117 237 154 z "},"Ǽ":{"ha":1318,"x_min":34,"x_max":1284,"o":"m 136 -27 l 136 354 l 34 354 l 34 361 l 73 442 l 136 442 l 136 787 l 478 1051 q 686 990 600 1051 l 757 1024 l 1187 1024 l 1187 1017 l 1148 936 l 821 936 l 821 442 l 1139 442 l 1139 435 l 1101 354 l 821 354 l 821 88 l 1284 88 l 1284 81 l 1245 0 l 685 0 l 685 354 l 271 354 l 271 34 l 142 -27 l 136 -27 m 271 442 l 685 442 l 685 712 q 636 859 685 803 q 478 929 576 929 q 320 859 378 929 q 271 712 271 801 l 271 442 m 751 1333 l 758 1333 l 877 1276 l 727 1062 l 720 1062 l 641 1099 l 751 1333 z "},"ǽ":{"ha":1160,"x_min":68,"x_max":1059,"o":"m 349 -27 q 152 38 223 -18 q 68 239 68 104 l 68 290 l 349 508 q 495 474 435 502 l 495 507 q 451 629 495 589 q 349 666 409 666 q 243 625 283 666 l 206 663 l 349 773 q 547 708 477 764 q 603 638 583 679 l 777 773 q 975 708 905 764 q 1059 507 1059 640 l 642 170 q 675 117 654 136 q 776 80 720 80 q 883 121 835 80 q 923 239 923 156 l 1052 300 l 1059 300 l 1059 191 l 777 -27 q 604 21 669 -20 l 502 -27 l 495 -27 l 495 86 l 349 -27 m 349 80 q 455 121 420 80 q 495 241 495 170 q 451 363 495 324 q 349 401 409 401 q 243 359 278 401 q 203 241 203 311 q 248 117 203 156 q 349 80 290 80 m 631 269 l 923 506 q 879 629 923 591 q 777 666 834 666 q 671 625 711 666 q 631 507 631 583 l 631 269 m 671 1055 l 677 1055 l 797 998 l 647 784 l 640 784 l 561 821 l 671 1055 z "},"Ǿ":{"ha":956,"x_min":136,"x_max":821,"o":"m 274 -27 l 267 -27 l 197 7 l 227 72 q 136 312 136 165 l 136 787 l 478 1051 q 661 1006 583 1051 l 682 1051 l 689 1051 l 760 1017 l 730 952 q 821 712 821 859 l 821 237 l 478 -27 q 295 18 373 -27 l 274 -27 m 478 95 q 636 165 575 95 q 685 312 685 220 l 685 712 q 665 814 685 770 l 350 136 q 478 95 402 95 m 292 210 l 606 888 q 478 929 553 929 q 320 859 380 929 q 271 712 271 802 l 271 312 q 292 210 271 254 m 540 1333 l 547 1333 l 666 1276 l 516 1062 l 509 1062 l 430 1099 l 540 1333 z "},"ǿ":{"ha":766,"x_min":102,"x_max":665,"o":"m 243 -27 l 237 -27 l 166 7 l 182 41 q 102 239 102 110 l 102 555 l 383 773 q 510 747 456 768 l 522 773 l 529 773 l 600 739 l 585 705 q 665 507 665 636 l 665 191 l 383 -27 q 256 -1 310 -22 l 243 -27 m 383 80 q 488 121 448 80 q 529 239 529 163 l 529 507 q 522 569 529 542 l 303 102 q 383 80 339 80 m 245 177 l 463 644 q 383 666 427 666 q 278 625 319 666 q 237 507 237 583 l 237 239 q 245 177 237 204 m 450 1055 l 456 1055 l 576 998 l 426 784 l 419 784 l 340 821 l 450 1055 z "},"Ș":{"ha":902,"x_min":109,"x_max":793,"o":"m 451 -27 q 200 71 293 -27 q 109 312 109 168 l 237 373 l 244 373 l 244 312 q 293 165 244 222 q 451 95 352 95 q 609 165 548 95 q 658 312 658 221 q 618 446 658 399 q 450 509 562 509 q 237 591 325 509 q 170 769 170 654 l 170 834 l 451 1051 q 648 986 579 1042 q 732 785 732 918 l 604 724 l 597 724 l 597 785 q 553 907 597 868 q 451 944 510 944 q 345 903 385 944 q 305 785 305 861 q 336 677 305 711 q 450 631 376 631 q 702 554 612 631 q 793 313 793 475 l 793 237 l 451 -27 m 404 -305 l 397 -305 l 277 -248 l 427 -34 l 434 -34 l 513 -71 l 404 -305 z "},"ș":{"ha":726,"x_min":81,"x_max":644,"o":"m 363 -27 q 165 38 235 -18 q 81 239 81 106 l 210 300 l 217 300 l 217 239 q 261 117 217 157 q 363 80 303 80 q 468 121 428 80 q 509 239 509 163 q 463 344 509 315 q 362 368 424 368 q 141 441 203 368 q 110 577 110 479 l 363 773 q 529 713 462 771 q 596 591 583 667 l 467 530 l 460 530 l 460 550 q 440 624 460 599 q 347 666 406 666 q 260 629 289 666 q 239 564 239 603 q 275 495 239 521 q 362 481 296 481 q 572 425 508 481 q 644 191 644 361 l 363 -27 m 302 -305 l 295 -305 l 176 -248 l 326 -34 l 332 -34 l 412 -71 l 302 -305 z "},"Ț":{"ha":723,"x_min":3,"x_max":720,"o":"m 294 -27 l 294 936 l 3 936 l 3 943 l 42 1024 l 720 1024 l 720 1017 l 681 936 l 429 936 l 429 34 l 300 -27 l 294 -27 m 336 -305 l 330 -305 l 210 -248 l 360 -34 l 367 -34 l 446 -71 l 336 -305 z "},"ț":{"ha":509,"x_min":3,"x_max":505,"o":"m 186 -27 l 186 658 l 3 658 l 3 665 l 42 746 l 186 746 l 186 990 l 315 1051 l 322 1051 l 322 746 l 505 746 l 505 739 l 467 658 l 322 658 l 322 34 l 193 -27 l 186 -27 m 214 -305 l 207 -305 l 87 -248 l 237 -34 l 244 -34 l 323 -71 l 214 -305 z "},"ȷ":{"ha":407,"x_min":-10,"x_max":271,"o":"m 43 -260 q -10 -198 -10 -199 q 96 -157 55 -197 q 136 -39 136 -116 l 136 712 l 264 773 l 271 773 l 271 -83 l 43 -260 z "},"Δ":{"ha":808,"x_min":3,"x_max":804,"o":"m 3 0 l 334 996 l 452 1051 l 458 1051 l 804 0 l 3 0 m 123 88 l 633 88 l 380 865 l 123 88 z "},"Π":{"ha":943,"x_min":136,"x_max":807,"o":"m 142 -27 l 136 -27 l 136 990 l 208 1024 l 807 1024 l 807 34 l 678 -27 l 671 -27 l 671 936 l 271 936 l 271 34 l 142 -27 z "},"Σ":{"ha":816,"x_min":68,"x_max":714,"o":"m 68 0 l 396 526 l 68 990 l 140 1024 l 652 1024 l 652 1017 l 614 936 l 258 936 l 546 525 l 265 88 l 714 88 l 714 81 l 675 0 l 68 0 z "},"Ω":{"ha":956,"x_min":102,"x_max":854,"o":"m 102 0 l 102 7 l 140 88 l 361 88 q 203 217 255 146 q 136 416 136 307 l 136 787 l 478 1051 q 729 953 633 1051 q 821 712 821 859 l 821 341 l 608 88 l 854 88 l 854 81 l 816 0 l 544 0 l 544 123 q 654 254 620 178 q 685 416 685 323 l 685 712 q 636 859 685 803 q 478 929 576 929 q 320 859 380 929 q 271 712 271 802 l 271 416 q 302 254 271 323 q 412 123 336 178 l 412 0 l 102 0 z "},"μ":{"ha":766,"x_min":102,"x_max":665,"o":"m 102 -305 l 102 712 l 231 773 l 237 773 l 237 239 q 281 117 237 157 q 382 80 323 80 q 489 121 443 80 q 529 239 529 157 l 529 712 l 658 773 l 665 773 l 665 190 l 383 -27 q 237 6 297 -21 l 237 -244 l 109 -305 l 102 -305 z "},"π":{"ha":795,"x_min":136,"x_max":660,"o":"m 142 -27 l 136 -27 l 136 712 l 208 746 l 660 746 l 660 34 l 531 -27 l 524 -27 l 524 658 l 271 658 l 271 34 l 142 -27 z "},"Ḃ":{"ha":883,"x_min":136,"x_max":802,"o":"m 498 1333 l 498 1179 l 370 1118 l 363 1118 l 363 1272 l 492 1333 l 498 1333 m 136 -27 l 136 990 l 264 1051 l 271 1051 l 271 68 q 545 178 438 98 q 675 390 675 277 q 551 557 675 490 q 425 610 484 594 q 573 801 573 694 q 473 918 573 869 q 277 977 382 964 l 433 1051 l 439 1051 q 602 975 541 1026 q 681 819 681 909 q 590 668 681 739 q 704 608 651 651 q 802 419 802 530 q 633 140 802 255 q 142 -27 428 3 l 136 -27 z "},"ḃ":{"ha":800,"x_min":136,"x_max":699,"o":"m 417 80 q 522 121 481 80 q 563 239 563 163 l 563 507 q 519 629 563 589 q 417 666 477 666 q 311 625 351 666 q 271 507 271 583 l 271 239 q 314 117 271 155 q 417 80 357 80 m 417 -27 q 220 38 288 -18 q 136 239 136 108 l 136 990 l 264 1051 l 271 1051 l 271 660 l 417 773 q 614 708 545 764 q 699 507 699 640 l 699 191 l 417 -27 m 555 1051 l 555 897 l 426 836 l 419 836 l 419 990 l 548 1051 l 555 1051 z "},"Ḋ":{"ha":907,"x_min":136,"x_max":826,"o":"m 502 1333 l 502 1179 l 373 1118 l 366 1118 l 366 1272 l 495 1333 l 502 1333 m 136 -27 l 136 990 l 264 1051 l 271 1051 l 271 68 q 541 221 433 128 q 696 553 696 354 q 569 844 696 727 q 279 977 478 928 l 434 1051 l 441 1051 q 694 909 600 1009 q 826 576 826 771 q 590 149 826 314 q 142 -27 399 15 l 136 -27 z "},"ḋ":{"ha":800,"x_min":102,"x_max":665,"o":"m 383 80 q 489 121 448 80 q 529 239 529 163 l 529 507 q 485 629 529 586 q 383 666 446 666 q 278 625 319 666 q 237 507 237 583 l 237 239 q 281 117 237 155 q 383 80 326 80 m 383 -27 q 186 38 255 -18 q 102 239 102 107 l 102 555 l 383 773 q 529 740 469 767 l 529 990 l 658 1051 l 665 1051 l 665 191 l 383 -27 m 390 1051 l 390 897 l 261 836 l 254 836 l 254 990 l 383 1051 l 390 1051 z "},"Ḟ":{"ha":719,"x_min":34,"x_max":637,"o":"m 136 -27 l 136 354 l 34 354 l 34 361 l 73 442 l 136 442 l 136 990 l 208 1024 l 637 1024 l 637 1017 l 599 936 l 271 936 l 271 442 l 590 442 l 590 435 l 551 354 l 271 354 l 271 34 l 142 -27 l 136 -27 m 470 1333 l 470 1179 l 341 1118 l 334 1118 l 334 1272 l 463 1333 l 470 1333 z "},"ḟ":{"ha":618,"x_min":34,"x_max":614,"o":"m 136 -27 l 136 513 l 34 513 l 34 519 l 73 601 l 136 601 l 136 833 l 417 1051 q 614 986 547 1042 l 519 907 q 417 944 473 944 q 311 903 352 944 q 271 785 271 862 l 271 601 l 515 601 l 515 594 l 477 513 l 271 513 l 271 34 l 142 -27 l 136 -27 m 472 1333 l 472 1179 l 343 1118 l 336 1118 l 336 1272 l 465 1333 l 472 1333 z "},"Ṁ":{"ha":1506,"x_min":136,"x_max":1370,"o":"m 136 -27 l 136 787 l 478 1051 q 729 953 634 1051 q 789 867 766 914 l 1027 1051 q 1278 953 1182 1051 q 1370 712 1370 859 l 1370 35 l 1241 -27 l 1234 -27 l 1234 712 q 1185 859 1234 803 q 1027 929 1125 929 q 869 859 928 929 q 821 712 821 801 l 821 35 l 821 34 l 692 -27 l 685 -27 l 685 712 q 636 859 685 803 q 478 929 576 929 q 320 859 378 929 q 271 712 271 801 l 271 34 l 142 -27 l 136 -27 m 845 1333 l 845 1179 l 716 1118 l 709 1118 l 709 1272 l 838 1333 l 845 1333 z "},"ṁ":{"ha":1194,"x_min":102,"x_max":1092,"o":"m 102 -27 l 102 555 l 383 773 q 581 708 513 764 q 637 639 616 679 l 810 773 q 1008 708 939 764 q 1092 507 1092 640 l 1092 34 l 963 -27 l 956 -27 l 956 507 q 912 629 956 591 q 810 666 868 666 q 705 625 747 666 q 665 507 665 585 l 665 34 l 536 -27 l 529 -27 l 529 507 q 485 629 529 591 q 383 666 441 666 q 277 625 319 666 q 237 507 237 585 l 237 34 l 109 -27 l 102 -27 m 694 1051 l 694 897 l 566 836 l 559 836 l 559 990 l 688 1051 l 694 1051 z "},"Ṗ":{"ha":867,"x_min":136,"x_max":786,"o":"m 505 1333 l 505 1179 l 376 1118 l 369 1118 l 369 1272 l 498 1333 l 505 1333 m 136 -27 l 136 990 l 264 1051 l 271 1051 l 271 241 q 524 377 402 281 q 660 645 660 485 q 555 859 660 770 q 279 977 460 941 l 434 1051 l 441 1051 q 670 930 574 1025 q 786 646 786 815 q 568 308 786 454 q 271 173 433 218 l 271 34 l 142 -27 l 136 -27 z "},"ṗ":{"ha":800,"x_min":136,"x_max":699,"o":"m 316 117 q 338 99 316 117 q 417 80 360 80 q 523 121 474 80 q 563 239 563 157 l 563 507 q 518 629 563 591 q 417 666 474 666 q 312 625 352 666 q 271 507 271 583 l 271 239 q 316 117 271 155 m 417 -27 q 271 6 331 -21 l 271 -244 l 142 -305 l 136 -305 l 136 555 l 417 773 q 614 708 545 764 q 699 507 699 639 l 699 191 l 417 -27 m 445 1051 l 445 897 l 316 836 l 309 836 l 309 990 l 438 1051 l 445 1051 z "},"Ṡ":{"ha":902,"x_min":109,"x_max":793,"o":"m 451 -27 q 200 71 293 -27 q 109 312 109 168 l 237 373 l 244 373 l 244 312 q 293 165 244 222 q 451 95 352 95 q 609 165 548 95 q 658 312 658 221 q 618 446 658 399 q 450 509 562 509 q 237 591 325 509 q 170 769 170 654 l 170 834 l 451 1051 q 648 986 579 1042 q 732 785 732 918 l 604 724 l 597 724 l 597 785 q 553 907 597 868 q 451 944 510 944 q 345 903 385 944 q 305 785 305 861 q 336 677 305 711 q 450 631 376 631 q 702 554 612 631 q 793 313 793 475 l 793 237 l 451 -27 m 543 1333 l 543 1179 l 414 1118 l 407 1118 l 407 1272 l 536 1333 l 543 1333 z "},"ṡ":{"ha":726,"x_min":81,"x_max":644,"o":"m 363 -27 q 165 38 235 -18 q 81 239 81 106 l 210 300 l 217 300 l 217 239 q 261 117 217 157 q 363 80 303 80 q 468 121 428 80 q 509 239 509 163 q 463 344 509 315 q 362 368 424 368 q 141 441 203 368 q 110 577 110 479 l 363 773 q 529 713 462 771 q 596 591 583 667 l 467 530 l 460 530 l 460 550 q 440 624 460 599 q 347 666 406 666 q 260 629 289 666 q 239 564 239 603 q 275 495 239 521 q 362 481 296 481 q 572 425 508 481 q 644 191 644 361 l 363 -27 m 445 1051 l 445 897 l 316 836 l 309 836 l 309 990 l 438 1051 l 445 1051 z "},"Ṫ":{"ha":723,"x_min":3,"x_max":720,"o":"m 294 -27 l 294 936 l 3 936 l 3 943 l 42 1024 l 720 1024 l 720 1017 l 681 936 l 429 936 l 429 34 l 300 -27 l 294 -27 m 434 1333 l 434 1179 l 305 1118 l 298 1118 l 298 1272 l 427 1333 l 434 1333 z "},"ṫ":{"ha":509,"x_min":3,"x_max":505,"o":"m 186 -27 l 186 658 l 3 658 l 3 665 l 42 746 l 186 746 l 186 990 l 315 1051 l 322 1051 l 322 746 l 505 746 l 505 739 l 467 658 l 322 658 l 322 34 l 193 -27 l 186 -27 m 322 1333 l 322 1179 l 193 1118 l 186 1118 l 186 1272 l 315 1333 l 322 1333 z "},"Ẁ":{"ha":1506,"x_min":136,"x_max":1370,"o":"m 478 -27 q 227 71 323 -27 q 136 312 136 165 l 136 989 l 264 1051 l 271 1051 l 271 312 q 320 165 271 221 q 478 95 380 95 q 636 165 578 95 q 685 312 685 223 l 685 989 l 685 990 l 814 1051 l 821 1051 l 821 312 q 869 165 821 221 q 1027 95 930 95 q 1185 165 1127 95 q 1234 312 1234 223 l 1234 990 l 1363 1051 l 1370 1051 l 1370 237 l 1027 -27 q 777 71 871 -27 q 717 157 739 110 l 478 -27 m 710 1333 l 717 1333 l 827 1099 l 747 1062 l 741 1062 l 591 1276 l 710 1333 z "},"ẁ":{"ha":1194,"x_min":102,"x_max":1092,"o":"m 383 -27 q 186 38 255 -18 q 102 239 102 106 l 102 712 l 231 773 l 237 773 l 237 239 q 281 117 237 155 q 383 80 326 80 q 489 121 447 80 q 529 239 529 161 l 529 712 l 658 773 l 665 773 l 665 239 q 709 117 665 155 q 810 80 753 80 q 916 121 874 80 q 956 239 956 161 l 956 712 l 1085 773 l 1092 773 l 1092 191 l 810 -27 q 613 38 681 -18 q 557 107 578 67 l 383 -27 m 557 1055 l 564 1055 l 673 821 l 594 784 l 587 784 l 437 998 l 557 1055 z "},"Ẃ":{"ha":1506,"x_min":136,"x_max":1370,"o":"m 478 -27 q 227 71 323 -27 q 136 312 136 165 l 136 989 l 264 1051 l 271 1051 l 271 312 q 320 165 271 221 q 478 95 380 95 q 636 165 578 95 q 685 312 685 223 l 685 989 l 685 990 l 814 1051 l 821 1051 l 821 312 q 869 165 821 221 q 1027 95 930 95 q 1185 165 1127 95 q 1234 312 1234 223 l 1234 990 l 1363 1051 l 1370 1051 l 1370 237 l 1027 -27 q 777 71 871 -27 q 717 157 739 110 l 478 -27 m 786 1333 l 793 1333 l 912 1276 l 762 1062 l 755 1062 l 676 1099 l 786 1333 z "},"ẃ":{"ha":1194,"x_min":102,"x_max":1092,"o":"m 383 -27 q 186 38 255 -18 q 102 239 102 106 l 102 712 l 231 773 l 237 773 l 237 239 q 281 117 237 155 q 383 80 326 80 q 489 121 447 80 q 529 239 529 161 l 529 712 l 658 773 l 665 773 l 665 239 q 709 117 665 155 q 810 80 753 80 q 916 121 874 80 q 956 239 956 161 l 956 712 l 1085 773 l 1092 773 l 1092 191 l 810 -27 q 613 38 681 -18 q 557 107 578 67 l 383 -27 m 627 1055 l 634 1055 l 753 998 l 604 784 l 597 784 l 517 821 l 627 1055 z "},"Ẅ":{"ha":1506,"x_min":136,"x_max":1370,"o":"m 478 -27 q 227 71 323 -27 q 136 312 136 165 l 136 989 l 264 1051 l 271 1051 l 271 312 q 320 165 271 221 q 478 95 380 95 q 636 165 578 95 q 685 312 685 223 l 685 989 l 685 990 l 814 1051 l 821 1051 l 821 312 q 869 165 821 221 q 1027 95 930 95 q 1185 165 1127 95 q 1234 312 1234 223 l 1234 990 l 1363 1051 l 1370 1051 l 1370 237 l 1027 -27 q 777 71 871 -27 q 717 157 739 110 l 478 -27 m 899 1333 l 906 1333 l 906 1179 l 777 1118 l 770 1118 l 770 1272 l 899 1333 m 714 1333 l 721 1333 l 721 1179 l 592 1118 l 585 1118 l 585 1272 l 714 1333 z "},"ẅ":{"ha":1194,"x_min":102,"x_max":1092,"o":"m 383 -27 q 186 38 255 -18 q 102 239 102 106 l 102 712 l 231 773 l 237 773 l 237 239 q 281 117 237 155 q 383 80 326 80 q 489 121 447 80 q 529 239 529 161 l 529 712 l 658 773 l 665 773 l 665 239 q 709 117 665 155 q 810 80 753 80 q 916 121 874 80 q 956 239 956 161 l 956 712 l 1085 773 l 1092 773 l 1092 191 l 810 -27 q 613 38 681 -18 q 557 107 578 67 l 383 -27 m 745 1051 l 751 1051 l 751 897 l 623 836 l 616 836 l 616 990 l 745 1051 m 559 1051 l 566 1051 l 566 897 l 437 836 l 431 836 l 431 990 l 559 1051 z "},"Ỳ":{"ha":867,"x_min":68,"x_max":799,"o":"m 350 -27 l 350 354 l 155 354 l 155 361 l 194 442 l 316 442 l 68 995 l 186 1051 l 193 1051 l 450 468 l 721 1051 l 728 1051 l 799 1017 l 524 442 l 711 442 l 711 435 l 673 354 l 486 354 l 486 34 l 357 -27 l 350 -27 m 404 1333 l 411 1333 l 521 1099 l 441 1062 l 435 1062 l 285 1276 l 404 1333 z "},"ỳ":{"ha":800,"x_min":102,"x_max":665,"o":"m 383 -27 q 186 38 255 -18 q 102 239 102 106 l 102 712 l 231 773 l 237 773 l 237 239 q 281 117 237 155 q 382 80 326 80 q 489 121 441 80 q 529 239 529 156 l 529 712 l 658 773 l 665 773 l 665 -87 l 383 -305 q 187 -241 241 -296 l 281 -161 q 382 -198 322 -198 q 489 -157 443 -198 q 529 -39 529 -121 l 529 86 l 383 -27 m 307 1055 l 314 1055 l 424 821 l 345 784 l 338 784 l 188 998 l 307 1055 z "},"‐":{"ha":823,"x_min":153,"x_max":671,"o":"m 153 450 l 153 457 l 208 574 l 671 574 l 671 567 l 616 450 l 153 450 z "},"‑":{"ha":823,"x_min":153,"x_max":671,"o":"m 153 450 l 153 457 l 208 574 l 671 574 l 671 567 l 616 450 l 153 450 z "},"‒":{"ha":823,"x_min":102,"x_max":722,"o":"m 102 450 l 102 457 l 157 574 l 722 574 l 722 567 l 667 450 l 102 450 z "},"–":{"ha":823,"x_min":102,"x_max":722,"o":"m 102 450 l 102 457 l 157 574 l 722 574 l 722 567 l 667 450 l 102 450 z "},"—":{"ha":823,"x_min":17,"x_max":806,"o":"m 17 450 l 17 457 l 72 574 l 806 574 l 806 567 l 751 450 l 17 450 z "},"―":{"ha":823,"x_min":17,"x_max":806,"o":"m 17 450 l 17 457 l 72 574 l 806 574 l 806 567 l 751 450 l 17 450 z "},"‗":{"ha":823,"x_min":102,"x_max":722,"o":"m 102 -123 l 102 -117 l 157 0 l 722 0 l 722 -7 l 667 -123 l 102 -123 m 102 -278 l 102 -271 l 157 -155 l 722 -155 l 722 -161 l 667 -278 l 102 -278 z "},"‘":{"ha":404,"x_min":102,"x_max":302,"o":"m 259 1051 l 288 1017 q 229 853 229 939 q 302 730 229 777 l 174 669 l 167 669 q 102 866 111 738 l 259 1051 z "},"’":{"ha":404,"x_min":102,"x_max":302,"o":"m 231 1051 l 237 1051 q 302 854 294 982 l 145 669 l 116 703 q 175 867 175 781 q 102 990 175 943 l 231 1051 z "},"‚":{"ha":404,"x_min":102,"x_max":302,"o":"m 231 189 l 237 189 q 302 -9 294 119 l 145 -194 l 116 -160 q 175 4 175 -82 q 102 127 175 80 l 231 189 z "},"‛":{"ha":404,"x_min":102,"x_max":302,"o":"m 167 1051 l 174 1051 l 302 990 q 229 867 229 943 q 288 703 229 781 l 259 669 l 102 854 q 167 1051 111 982 z "},"“":{"ha":618,"x_min":102,"x_max":516,"o":"m 259 1051 l 288 1017 q 229 853 229 939 q 302 730 229 777 l 174 669 l 167 669 q 102 866 111 738 l 259 1051 m 473 1051 l 502 1017 q 443 853 443 939 q 516 730 443 777 l 387 669 l 380 669 q 315 866 324 738 l 473 1051 z "},"”":{"ha":618,"x_min":102,"x_max":516,"o":"m 444 1051 l 451 1051 q 516 854 507 982 l 359 669 l 330 703 q 389 867 389 781 q 315 990 389 943 l 444 1051 m 231 1051 l 237 1051 q 302 854 294 982 l 145 669 l 116 703 q 175 867 175 781 q 102 990 175 943 l 231 1051 z "},"„":{"ha":618,"x_min":102,"x_max":516,"o":"m 444 189 l 451 189 q 516 -9 507 119 l 359 -194 l 330 -160 q 389 4 389 -82 q 315 127 389 80 l 444 189 m 231 189 l 237 189 q 302 -9 294 119 l 145 -194 l 116 -160 q 175 4 175 -82 q 102 127 175 80 l 231 189 z "},"‟":{"ha":618,"x_min":102,"x_max":516,"o":"m 167 1051 q 174 1051 167 1051 l 302 990 q 229 867 229 943 q 288 703 229 781 l 259 669 l 102 854 q 167 1051 111 982 m 380 1051 l 387 1051 l 516 990 q 443 867 443 943 q 502 703 443 781 l 473 669 l 315 854 q 380 1051 324 982 z "},"†":{"ha":823,"x_min":102,"x_max":722,"o":"m 351 -27 l 344 -27 l 344 675 l 102 675 l 102 682 l 157 799 l 344 799 l 344 990 l 473 1051 l 479 1051 l 479 799 l 722 799 l 722 792 l 667 675 l 479 675 l 479 34 l 351 -27 z "},"‡":{"ha":823,"x_min":102,"x_max":722,"o":"m 351 -27 l 344 -27 l 344 225 l 102 225 l 102 232 l 157 349 l 344 349 l 344 675 l 102 675 l 102 682 l 157 799 l 344 799 l 344 990 l 473 1051 l 479 1051 l 479 799 l 722 799 l 722 792 l 667 675 l 479 675 l 479 349 l 722 349 l 722 342 l 667 225 l 479 225 l 479 34 l 351 -27 z "},"•":{"ha":764,"x_min":102,"x_max":662,"o":"m 383 783 q 579 704 501 780 q 662 453 661 625 l 380 236 q 184 315 262 239 q 102 566 103 393 l 383 783 z "},"‣":{"ha":629,"x_min":136,"x_max":562,"o":"m 136 245 l 136 774 l 562 519 l 136 245 z "},"․":{"ha":407,"x_min":136,"x_max":271,"o":"m 136 -27 l 136 127 l 264 189 l 271 189 l 271 34 l 142 -27 l 136 -27 z "},"‥":{"ha":636,"x_min":136,"x_max":500,"o":"m 365 -27 l 365 127 l 494 189 l 500 189 l 500 34 l 372 -27 l 365 -27 m 136 -27 l 136 127 l 264 189 l 271 189 l 271 34 l 142 -27 l 136 -27 z "},"…":{"ha":865,"x_min":136,"x_max":730,"o":"m 594 -27 l 594 127 l 723 189 l 730 189 l 730 34 l 601 -27 l 594 -27 m 365 -27 l 365 127 l 494 189 l 500 189 l 500 34 l 372 -27 l 365 -27 m 136 -27 l 136 127 l 264 189 l 271 189 l 271 34 l 142 -27 l 136 -27 z "},"‧":{"ha":407,"x_min":136,"x_max":271,"o":"m 136 403 l 136 557 l 264 618 l 271 618 l 271 464 l 142 403 l 136 403 z "},"‰":{"ha":1931,"x_min":102,"x_max":1829,"o":"m 1548 -27 q 1352 52 1429 -24 q 1269 302 1270 130 l 1550 519 q 1746 441 1668 517 q 1829 190 1828 362 l 1548 -27 m 1549 80 q 1655 121 1615 80 q 1695 246 1695 163 q 1651 375 1695 335 q 1549 412 1610 412 q 1443 371 1482 412 q 1403 246 1403 329 q 1447 117 1403 157 q 1549 80 1488 81 m 383 1051 q 579 972 501 1048 q 662 722 661 894 l 380 505 q 184 583 262 507 q 102 834 103 662 l 383 1051 m 962 -27 q 766 52 843 -24 q 683 302 684 130 l 964 519 q 1160 441 1082 517 q 1243 190 1242 362 l 962 -27 m 963 80 q 1069 121 1029 80 q 1109 246 1109 163 q 1065 375 1109 335 q 963 412 1024 412 q 857 371 897 412 q 817 246 817 329 q 861 117 817 157 q 963 80 902 81 m 479 -27 l 383 19 l 864 1051 l 871 1051 l 966 1005 l 486 -27 l 479 -27 m 382 612 q 488 653 448 612 q 528 778 528 695 q 484 907 528 867 q 382 944 443 943 q 276 903 315 944 q 236 778 236 861 q 280 649 236 689 q 382 612 321 612 z "},"′":{"ha":461,"x_min":102,"x_max":359,"o":"m 233 1051 l 240 1051 l 359 994 l 188 718 l 181 718 l 102 755 l 233 1051 z "},"″":{"ha":677,"x_min":102,"x_max":575,"o":"m 449 1051 l 456 1051 l 575 994 l 404 718 l 397 718 l 317 755 l 449 1051 m 233 1051 l 240 1051 l 359 994 l 188 718 l 181 718 l 102 755 l 233 1051 z "},"‴":{"ha":892,"x_min":102,"x_max":791,"o":"m 665 1051 l 671 1051 l 791 994 l 619 718 l 612 718 l 533 755 l 665 1051 m 449 1051 l 456 1051 l 575 994 l 404 718 l 397 718 l 317 755 l 449 1051 m 233 1051 l 240 1051 l 359 994 l 188 718 l 181 718 l 102 755 l 233 1051 z "},"‵":{"ha":461,"x_min":102,"x_max":359,"o":"m 221 1051 l 228 1051 l 359 755 l 280 718 l 273 718 l 102 994 l 221 1051 z "},"‶":{"ha":677,"x_min":102,"x_max":575,"o":"m 221 1051 l 228 1051 l 359 755 l 280 718 l 273 718 l 102 994 l 221 1051 m 437 1051 l 444 1051 l 575 755 l 496 718 l 489 718 l 317 994 l 437 1051 z "},"‷":{"ha":892,"x_min":102,"x_max":791,"o":"m 228 1051 l 359 755 l 280 718 l 273 718 l 102 994 l 221 1051 l 228 1051 m 437 1051 l 444 1051 l 575 755 l 496 718 l 489 718 l 317 994 l 437 1051 m 652 1051 l 659 1051 l 791 755 l 711 718 l 705 718 l 533 994 l 652 1051 z "},"‹":{"ha":545,"x_min":102,"x_max":410,"o":"m 332 871 l 338 871 l 410 837 l 232 558 l 407 262 l 289 206 l 282 206 l 102 511 l 332 871 z "},"›":{"ha":545,"x_min":136,"x_max":444,"o":"m 256 871 l 263 871 l 444 566 l 214 206 l 207 206 l 136 240 l 314 519 l 138 815 l 256 871 z "},"⁃":{"ha":802,"x_min":102,"x_max":701,"o":"m 463 827 l 463 625 l 591 699 l 697 625 l 701 619 l 524 517 l 701 416 l 697 410 l 591 336 l 463 410 l 463 262 l 346 208 l 339 208 l 339 410 l 211 336 l 105 410 l 102 416 l 277 517 l 102 619 l 105 625 l 211 699 l 339 625 l 339 772 l 456 827 l 463 827 z "},"⁄":{"ha":661,"x_min":7,"x_max":654,"o":"m 102 -95 l 7 -49 l 551 1119 l 557 1119 l 654 1073 l 109 -95 l 102 -95 z "},"€":{"ha":956,"x_min":34,"x_max":821,"o":"m 478 -27 q 227 71 323 -27 q 136 312 136 165 l 136 354 l 34 354 l 34 361 l 73 442 l 136 442 l 136 511 l 34 511 l 34 518 l 73 600 l 136 600 l 136 787 l 478 1051 q 729 953 633 1051 q 821 712 821 859 l 692 651 l 685 651 l 685 712 q 636 859 685 803 q 478 929 576 929 q 320 859 380 929 q 271 712 271 802 l 271 600 l 590 600 l 590 593 l 551 511 l 271 511 l 271 442 l 590 442 l 590 435 l 551 354 l 271 354 l 271 312 q 320 165 271 222 q 478 95 379 95 q 636 165 575 95 q 685 312 685 221 l 814 373 l 821 373 l 821 237 l 478 -27 z "},"℅":{"ha":1111,"x_min":102,"x_max":1009,"o":"m 827 -27 q 684 28 736 -27 q 633 160 633 81 l 633 406 l 815 547 q 959 492 907 547 q 1009 359 1009 438 l 1009 113 l 827 -27 m 755 97 q 822 68 782 68 q 888 97 862 68 q 907 160 907 120 l 907 359 q 888 422 907 400 q 822 452 862 452 q 755 422 783 452 q 735 359 735 402 l 735 160 q 755 97 735 118 m 283 1051 q 427 996 376 1051 q 477 854 477 943 l 400 817 l 376 817 l 376 864 q 356 927 376 905 q 290 956 330 956 q 223 927 252 956 q 203 864 203 907 l 203 665 q 223 602 203 623 q 290 572 250 572 q 356 602 330 572 q 376 665 376 625 l 376 675 l 454 712 l 477 712 l 477 617 l 296 477 q 152 532 204 477 q 102 665 102 586 l 102 911 l 283 1051 m 363 -27 l 268 19 l 749 1051 l 755 1051 l 851 1005 l 370 -27 l 363 -27 z "},"ℓ":{"ha":751,"x_min":102,"x_max":616,"o":"m 366 456 q 445 666 407 540 q 494 942 494 830 q 416 745 459 885 q 366 456 366 581 m 102 0 q 231 201 170 99 q 225 301 225 248 q 245 497 225 401 q 391 979 326 904 q 522 1038 442 1038 q 583 1016 557 1038 q 616 907 616 989 q 595 741 616 845 q 354 184 548 503 q 414 79 376 79 q 443 95 427 79 q 486 155 464 117 l 605 155 q 509 27 553 68 q 408 -14 465 -14 q 273 55 321 -14 l 238 0 l 102 0 z "},"™":{"ha":1248,"x_min":102,"x_max":1112,"o":"m 461 465 l 461 897 l 644 1038 q 787 983 733 1038 q 810 954 803 968 l 918 1038 q 1062 983 1015 1038 q 1112 851 1112 926 l 1112 501 l 1035 465 l 1010 465 l 1010 851 q 991 913 1010 887 q 924 943 968 943 q 859 913 880 943 q 838 851 838 885 l 838 501 l 760 465 l 736 465 l 736 851 q 716 913 736 893 q 650 943 686 943 q 584 913 614 943 q 563 851 563 893 l 563 501 l 486 465 l 461 465 m 247 465 l 247 928 l 102 928 l 102 953 l 136 1024 l 494 1024 l 494 1000 l 460 928 l 349 928 l 349 501 l 271 465 l 247 465 z "},"Ω":{"ha":956,"x_min":102,"x_max":854,"o":"m 102 0 l 102 7 l 140 88 l 361 88 q 203 217 255 146 q 136 416 136 307 l 136 787 l 478 1051 q 729 953 633 1051 q 821 712 821 859 l 821 341 l 608 88 l 854 88 l 854 81 l 816 0 l 544 0 l 544 123 q 654 254 620 178 q 685 416 685 323 l 685 712 q 636 859 685 803 q 478 929 576 929 q 320 859 380 929 q 271 712 271 802 l 271 416 q 302 254 271 323 q 412 123 336 178 l 412 0 l 102 0 z "},"℮":{"ha":921,"x_min":102,"x_max":819,"o":"m 258 373 l 258 121 q 460 39 340 39 q 728 206 633 39 l 777 177 q 620 25 696 60 q 460 -10 544 -10 q 201 98 300 -10 q 102 373 102 207 q 201 648 102 541 q 460 756 301 756 q 709 660 606 756 q 819 373 812 564 l 258 373 m 663 423 l 663 625 q 459 707 576 707 q 258 624 340 707 l 258 423 l 663 423 z "},"∂":{"ha":859,"x_min":102,"x_max":724,"o":"m 311 0 q 160 62 218 0 q 102 235 102 123 q 205 498 102 377 q 530 656 341 656 q 601 654 553 656 q 589 814 601 755 q 546 928 574 890 q 482 968 516 968 q 402 913 437 968 q 352 785 376 873 l 260 825 q 374 978 307 930 q 505 1024 439 1024 q 659 930 594 1024 q 724 645 724 835 q 665 297 724 454 q 507 73 606 145 q 311 0 407 0 m 331 62 q 431 128 381 62 q 519 267 473 182 q 602 588 581 376 q 525 599 575 599 q 378 512 452 599 q 296 394 329 456 q 245 226 245 301 q 258 119 245 158 q 331 62 277 62 z "},"∆":{"ha":808,"x_min":3,"x_max":804,"o":"m 3 0 l 334 996 l 452 1051 l 458 1051 l 804 0 l 3 0 m 123 88 l 633 88 l 380 865 l 123 88 z "},"∏":{"ha":943,"x_min":136,"x_max":807,"o":"m 142 -305 l 136 -305 l 136 990 l 208 1024 l 807 1024 l 807 -244 l 678 -305 l 671 -305 l 671 936 l 271 936 l 271 -244 l 142 -305 z "},"∑":{"ha":816,"x_min":68,"x_max":714,"o":"m 68 -278 l 392 400 l 68 990 l 140 1024 l 652 1024 l 652 1017 l 614 936 l 250 937 l 545 399 l 256 -190 l 714 -190 l 714 -197 l 675 -278 l 68 -278 z "},"−":{"ha":823,"x_min":102,"x_max":722,"o":"m 102 450 l 102 457 l 157 574 l 722 574 l 722 567 l 667 450 l 102 450 z "},"∕":{"ha":661,"x_min":7,"x_max":654,"o":"m 102 -95 l 7 -49 l 551 1119 l 557 1119 l 654 1073 l 109 -95 l 102 -95 z "},"∗":{"ha":802,"x_min":102,"x_max":701,"o":"m 463 827 l 463 625 l 591 699 l 697 625 l 701 619 l 524 517 l 701 416 l 697 410 l 591 336 l 463 410 l 463 262 l 346 208 l 339 208 l 339 410 l 211 336 l 105 410 l 102 416 l 277 517 l 102 619 l 105 625 l 211 699 l 339 625 l 339 772 l 456 827 l 463 827 z "},"∘":{"ha":764,"x_min":102,"x_max":662,"o":"m 383 783 q 579 704 501 780 q 662 453 661 625 l 380 236 q 184 315 262 239 q 102 566 103 393 l 383 783 m 382 343 q 488 385 448 343 q 528 509 528 427 q 484 638 528 598 q 382 675 443 675 q 276 634 315 675 q 236 509 236 592 q 280 380 236 420 q 382 343 321 344 z "},"∙":{"ha":407,"x_min":136,"x_max":271,"o":"m 136 403 l 136 557 l 264 618 l 271 618 l 271 464 l 142 403 l 136 403 z "},"√":{"ha":985,"x_min":68,"x_max":951,"o":"m 356 -27 l 349 -27 l 199 421 l 68 421 l 68 428 l 106 509 l 311 509 l 427 159 l 717 1024 l 951 1024 l 951 1017 l 912 936 l 781 936 l 473 28 l 356 -27 z "},"∛":{"ha":985,"x_min":68,"x_max":951,"o":"m 244 1024 l 512 1024 l 403 850 q 479 815 444 844 q 526 699 526 777 l 526 662 l 362 536 q 232 583 277 536 q 186 707 186 629 l 259 746 l 278 746 l 278 704 q 296 648 278 669 q 357 621 319 621 q 416 648 393 621 q 434 706 434 669 q 420 753 434 736 q 354 777 399 777 l 277 777 l 386 964 l 225 964 l 225 985 l 244 1024 m 356 -27 l 349 -27 l 199 421 l 68 421 l 68 428 l 106 509 l 311 509 l 427 159 l 717 1024 l 951 1024 l 951 1017 l 912 936 l 781 936 l 473 28 l 356 -27 z "},"∞":{"ha":1188,"x_min":102,"x_max":1086,"o":"m 382 343 q 488 385 448 343 q 528 509 528 427 q 484 638 528 598 q 382 675 442 675 q 276 634 315 675 q 236 509 236 592 q 280 380 236 420 q 382 343 321 343 m 383 783 q 579 704 501 780 q 625 642 606 677 l 808 783 q 1004 704 926 780 q 1086 453 1085 625 l 805 236 q 609 315 687 239 q 564 378 582 341 l 380 236 q 184 315 262 239 q 102 566 103 394 l 383 783 m 806 343 q 912 385 873 343 q 952 509 952 427 q 908 638 952 598 q 806 675 867 675 q 701 634 740 675 q 661 509 661 592 q 705 380 661 420 q 806 343 746 343 z "},"≈":{"ha":860,"x_min":102,"x_max":758,"o":"m 138 264 l 132 264 q 102 386 102 305 l 262 509 q 488 424 426 509 q 603 313 569 313 q 640 368 640 313 q 608 443 640 410 l 722 498 l 728 498 q 758 377 758 457 l 597 253 q 372 338 434 253 q 257 450 291 450 q 220 395 220 450 q 252 319 220 352 l 138 264 m 138 526 l 132 526 q 102 647 102 566 l 262 770 q 488 685 426 770 q 603 574 569 574 q 640 629 640 574 q 608 704 640 671 l 722 759 l 728 759 q 758 638 758 718 l 597 514 q 372 600 434 514 q 257 711 291 711 q 220 656 220 711 q 252 581 220 613 l 138 526 z "},"≠":{"ha":823,"x_min":102,"x_max":722,"o":"m 292 136 l 196 182 l 264 327 l 102 327 l 102 334 l 157 450 l 321 450 l 378 574 l 102 574 l 102 581 l 157 697 l 436 697 l 525 888 l 532 888 l 627 842 l 559 697 l 722 697 l 722 690 l 667 574 l 503 574 l 445 450 l 722 450 l 722 444 l 667 327 l 387 327 l 298 136 l 292 136 z "},"≡":{"ha":823,"x_min":102,"x_max":722,"o":"m 102 203 l 102 210 l 157 327 l 722 327 l 722 320 l 667 203 l 102 203 m 102 697 l 102 704 l 157 821 l 722 821 l 722 814 l 667 697 l 102 697 m 102 450 l 102 457 l 157 574 l 722 574 l 722 567 l 667 450 l 102 450 z "},"≤":{"ha":907,"x_min":102,"x_max":772,"o":"m 102 130 l 102 136 l 157 253 l 772 253 l 772 246 l 717 130 l 102 130 m 739 917 l 772 847 l 772 840 l 250 627 l 772 406 l 772 399 l 716 281 l 102 543 l 102 550 l 157 667 l 739 917 z "},"≥":{"ha":907,"x_min":136,"x_max":806,"o":"m 136 130 l 136 136 l 191 253 l 806 253 l 806 246 l 751 130 l 136 130 m 191 917 l 806 655 l 806 648 l 750 531 l 169 281 l 136 351 l 136 358 l 657 572 l 136 793 l 136 800 l 191 917 z "},"◊":{"ha":796,"x_min":81,"x_max":715,"o":"m 429 179 l 598 456 l 370 831 l 199 549 l 429 179 m 398 0 l 81 500 l 398 1024 l 715 503 l 398 0 z "}}}
